<?xml version="1.0" encoding="utf-8"?>
<!-- Generator: Adobe Illustrator 26.1.0, SVG Export Plug-In . SVG Version: 6.00 Build 0)  -->
<svg version="1.1" id="Layer_1" focusable="false" xmlns="http://www.w3.org/2000/svg" xmlns:xlink="http://www.w3.org/1999/xlink"
	 x="0px" y="0px" viewBox="0 0 1000 1000" style="enable-background:new 0 0 1000 1000;" xml:space="preserve">
<style type="text/css">
	.st0{fill:#FFFFFF;}
</style>
<link  id="dark-mode-general-link" rel="stylesheet" type="text/css" xmlns=""></link>
<link  id="dark-mode-custom-link" rel="stylesheet" type="text/css" xmlns=""></link>
<polygon class="st0" points="96.5,131 96.5,285.5 130.4,285.5 130.4,83.7 103.3,83.7 72.1,120.3 72.1,155.7 72.4,155.7 96.2,131 "/>
<path class="st0" d="M254.2,233.4v-97.6c0-31.6-15.8-54.5-50.3-54.5c-34.2,0-50,22.9-50,54.5v97.6c0,31.2,15.8,54.5,50,54.5
	C238.5,287.9,254.2,264.7,254.2,233.4 M187.9,238.8V130.4c0-12.2,4.5-20.8,16.1-20.8c11.9,0,16.4,8.6,16.4,20.8v108.4
	c0,12.2-4.5,20.8-16.4,20.8C192.3,259.6,187.9,251,187.9,238.8"/>
<g>
	<g>
		<path class="st0" d="M592.3,657.5H407.7c-1.2,0.1-2.1,1.1-2,2.2v55.5c-0.1,1.2,0.8,2.2,2,2.2h184.6c1.2-0.1,2.1-1.1,2-2.2v-55.5
			C594.4,658.6,593.5,657.6,592.3,657.5"/>
		<path class="st0" d="M592.3,539.5H407.7c-1.2,0.1-2.1,1.1-2,2.2v55.5c-0.1,1.2,0.8,2.2,2,2.2h184.6c1.2-0.1,2.1-1.1,2-2.2v-55.5
			C594.4,540.6,593.5,539.6,592.3,539.5"/>
	</g>
	<g>
		<path class="st0" d="M589.7,455.6L501.1,367c-0.6-0.6-1.6-0.6-2.2,0l-88.6,88.6c-0.6,0.6-0.6,1.6,0,2.2c0.3,0.3,0.7,0.4,1.1,0.4
			h177.2c0.8,0,1.5-0.7,1.5-1.5C590.1,456.3,590,455.9,589.7,455.6z"/>
		<path class="st0" d="M672.9,718.2l88.6-88.6c0.6-0.6,0.6-1.6,0-2.2c0,0,0,0,0,0l-88.6-88.6c-0.6-0.6-1.6-0.6-2.2,0
			c-0.3,0.3-0.4,0.7-0.4,1.1v177.2c0,0.8,0.7,1.5,1.5,1.5C672.2,718.7,672.6,718.5,672.9,718.2z"/>
		<path class="st0" d="M410.3,801.4l88.6,88.6c0.6,0.6,1.6,0.6,2.1,0c0,0,0,0,0,0l88.6-88.6c0.6-0.6,0.6-1.6,0-2.2
			c-0.3-0.3-0.7-0.5-1.1-0.5H411.4c-0.8,0-1.5,0.6-1.6,1.5C409.8,800.7,410,801.1,410.3,801.4z"/>
		<path class="st0" d="M327.1,538.8l-88.6,88.6c-0.6,0.6-0.6,1.6,0,2.2c0,0,0,0,0,0l88.6,88.6c0.6,0.6,1.6,0.6,2.2,0
			c0.3-0.3,0.4-0.7,0.4-1.1V539.9c0-0.8-0.7-1.5-1.5-1.5C327.8,538.4,327.4,538.5,327.1,538.8z"/>
	</g>
</g>
<g>
	<path class="st0" d="M358,165.9v-52.8h-0.4l-9.2,52.8h-6.4l-10.2-52.8h-0.2v52.8h-11.3V84.5h16l8.9,45.8h0.1l7.9-45.8h17.3v81.4
		H358z"/>
	<path class="st0" d="M379.7,165.9V84.5h13.7v81.4H379.7z"/>
	<path class="st0" d="M430.4,165.9l-16.1-51.1v51.1h-11.5V84.5h13.4l14.8,46.7V84.5h11.4v81.4H430.4z"/>
	<path class="st0" d="M479.2,165.9l-16.1-51.1v51.1h-11.5V84.5h13.4l14.8,46.7V84.5h11.4v81.4H479.2z"/>
	<path class="st0" d="M500.5,165.9V84.5h13.7v81.4H500.5z"/>
	<path class="st0" d="M341,286.8c-6.9,0-12-2-15.5-6c-3.4-4-5.2-9.3-5.2-16v-39.4c0-6.7,1.7-12.1,5.2-16c3.4-4,8.6-5.9,15.5-5.9
		c7,0,12.2,2,15.6,5.9c3.4,4,5.2,9.3,5.2,16v39.4c0,6.6-1.7,12-5.2,16C353.1,284.8,347.9,286.8,341,286.8z M352.1,189.3v9.5
		l-21.5,2.8v-7.7L352.1,189.3z M341,275.4c4.7,0,7.1-2.8,7.1-8.4v-43.7c0-5.6-2.4-8.4-7.1-8.4c-4.6,0-7,2.8-7,8.4V267
		C334,272.6,336.3,275.4,341,275.4z"/>
	<path class="st0" d="M392.5,204.5h13.7v62.9c0,13-6.3,19.4-18.8,19.4c-6.6,0-11.3-1.6-14-4.8c-2.7-3.2-4-7.6-4-13.3v-16.2h13v16.4
		c0,4.3,1.7,6.5,5,6.5c3.4,0,5.2-2.2,5.2-6.6V204.5z"/>
	<path class="st0" d="M424.9,285.9h-13l15.4-81.4h15.6l15.5,81.4h-14l-2.5-14.9h-14.5L424.9,285.9z M434.5,227.4l-5.4,32.6H440
		l-5.4-32.6H434.5z"/>
	<path class="st0" d="M489.2,204.5H502l-15.5,81.4h-14.9l-15.5-81.4h13.9l9.4,56.8h0.1L489.2,204.5z"/>
	<path class="st0" d="M536.7,285.9l-16.1-51.1v51.1h-11.5v-81.4h13.4l14.8,46.7v-46.7h11.4v81.4H536.7z"/>
	<path class="st0" d="M557.9,285.9v-81.4h13.7v81.4H557.9z"/>
</g>
</svg>
