<?xml version="1.0" encoding="utf-8"?>
<!-- Generator: Adobe Illustrator 26.1.0, SVG Export Plug-In . SVG Version: 6.00 Build 0)  -->
<svg version="1.1" id="Layer_1" focusable="false" xmlns="http://www.w3.org/2000/svg" xmlns:xlink="http://www.w3.org/1999/xlink"
	 x="0px" y="0px" viewBox="0 0 1000 1000" style="enable-background:new 0 0 1000 1000;" xml:space="preserve">
<style type="text/css">
	.st0{fill:#FFFFFF;}
</style>
<link  id="dark-mode-general-link" rel="stylesheet" type="text/css" xmlns=""></link>
<link  id="dark-mode-custom-link" rel="stylesheet" type="text/css" xmlns=""></link>
<polygon id="_Path_2" class="st0" points="99.8,131.4 100.1,131.4 100.1,285.7 134,285.7 134,84.1 106.9,84.1 75.7,120.7 
	75.7,156.1 76,156.1 "/>
<path id="_Path_3" class="st0" d="M154.2,125.7v24.4h30.9v-25.3c0-12.2,6-15.8,13.1-15.8c6.6,0,12.2,2.7,12.2,15.2v16.6
	c0,16.7-1.5,23.2-12.5,34.8l-19,20.2c-18.4,19.6-25.3,32.7-25.3,52.6v37.2h88v-27.7h-55.6v-9.5c0-15.8,5.6-21.7,14.3-30.9l21.7-22.9
	c17.6-18.7,21.4-30.6,21.4-50.9v-19.6c0-28.9-14-42.5-44.3-42.5C169.4,81.7,154.2,97.5,154.2,125.7"/>
<path id="_Path_4" class="st0" d="M778.5,535.7c-40.8-32.2-89.7-35.7-108.8-35.7c-10.1,0-19.4,0.9-26.3,2.5l-2.7,0.6
	c-25.8,6.1-69.1,16.3-119.4,78.8l-1.5,1.8c-0.8,1.1-1.2,2.4-1.3,3.8c0,1.2,0.3,2.3,0.9,3.3l1.1,1.9c8.3,13.9,15.2,26,20.7,36.2
	c1.7,3.3,5.7,4.6,9,2.9c0.7-0.3,1.3-0.8,1.8-1.4c0.3-0.5,0.7-1,1-1.3c43.4-60.1,77.5-68.1,100-73.4l2.8-0.7
	c4.5-0.9,9.2-1.3,13.8-1.2c10.5,0,46.9,1.7,75.3,24.2c25.3,20,38.1,51.8,38.1,94.8c0,71.9-34.8,100-64,110.8
	c-11.4,4.2-23.5,6.3-35.7,6.3c-18.5-0.1-36.8-4.3-53.6-12.2l-2.1-1c-25.1-10.9-62.6-33.6-98-104.8
	c-72.7-146-133.7-159.8-174.1-168.9l-2.1-0.5c-3.1-0.7-11.8-2.3-26-2.3c-23.4,0-68.4,4.6-107,35.4c-26.3,21-57.8,61.8-57.8,137
	c0,45.8,9.4,76,33.6,107.8c4.5,6.2,46.6,60.6,127.5,60.6c12.4,0,24.8-1.3,36.9-3.6c14.8-2.8,37.5-10.1,63-28.8l21.2,19.2
	c2.5,2.1,6.3,2,8.6-0.4c1-1.1,1.6-2.5,1.5-4L471.7,722v-1.2c0-1.7-0.7-3.3-2-4.4c-1.2-1.1-2.7-1.6-4.3-1.6l0,0L366.8,742l-1.9,0.3
	c-1.2,0.3-2.3,0.9-3.1,1.8c-2.3,2.5-2.1,6.3,0.4,8.6c0,0,0,0,0.1,0.1l20.4,18.5c-10.7,6.6-21.5,11-31.9,13
	c-8.6,1.7-17.4,2.5-26.2,2.6c-55.9,0-83.4-36.7-84.5-38.2l-0.6-0.8c-17-22.3-22.7-41.3-22.7-75.3c0-43.1,12.6-75,37.4-94.8
	c27.7-22.1,63.2-23.8,73.5-23.8c4.7-0.1,9.4,0.3,14,1.2l2.2,0.5c32.3,7.3,76.4,17.3,137.7,140.3c32.3,65,72.9,107.4,123.9,129.8
	c5.9,3,37.6,18.1,78.1,18.1c18.6,0.1,37.1-3.2,54.5-9.7c29.8-11.1,99.1-49.1,99.1-161.4C837.2,597.7,805.3,556.8,778.5,535.7z"/>
<g>
	<path class="st0" d="M330.1,165.9h-13l15.4-81.4h15.6l15.5,81.4h-14l-2.5-14.9h-14.5L330.1,165.9z M351.5,69.3v9.5L330,81.5v-7.7
		L351.5,69.3z M339.7,107.4l-5.4,32.6h10.9l-5.4-32.6H339.7z"/>
	<path class="st0" d="M370.7,165.9V84.5h19.8c6.6,0,11.3,1.5,14.1,4.4c2.8,3,4.1,7.4,4.1,13.4v8.3c0,6.9-2.7,11.2-8.2,13
		c6.8,1.5,10.2,6,10.2,13.6V148c0,5.9-1.5,10.4-4.4,13.4c-3,3-7.8,4.5-14.4,4.5H370.7z M384.4,95.7v23.2h4.8c4.3,0,6.5-2.2,6.5-6.6
		v-10c0-4.4-2.2-6.6-6.6-6.6H384.4z M390.3,129.3h-5.9v25.4h6c4.5,0,6.7-2.2,6.7-6.6v-12.2C397.1,131.5,394.8,129.3,390.3,129.3z"/>
	<path class="st0" d="M457.2,84.5l-15.1,50.4v31h-13.7v-31l-15.2-50.4h14.3l8.3,30.8h0.1l8.3-30.8H457.2z"/>
	<path class="st0" d="M490.7,165.9l-12.8-37.3v37.3h-13.7V84.5h19.9c6.6,0,11.4,1.6,14.4,4.7c3,3.1,4.4,7.6,4.4,13.6v10.4
		c0,8.8-3.6,14-10.9,15.7l13.1,37H490.7z M482.4,95.7h-4.6V121h4.6c4.5,0,6.7-2.2,6.7-6.7v-12C489.1,97.9,486.9,95.7,482.4,95.7z"/>
	<path class="st0" d="M532.5,133.2v-10.8h19.4v43.4h-9.8V157c-1.9,6.6-6.3,9.8-13.1,9.8c-5.7,0-10-2-12.8-6c-2.9-4-4.3-9.3-4.3-16
		v-39.4c0-6.7,1.7-12.1,5.1-16c3.4-4,8.5-5.9,15.4-5.9c7.1,0,12.2,1.8,15.1,5.3c3,3.6,4.4,8.6,4.4,15.1v7.2h-12.5v-8.3
		c0-5.3-2.3-7.9-6.8-7.9c-4.7,0-7.1,2.8-7.1,8.4V147c0,5.6,2.2,8.4,6.7,8.4c4.5,0,6.7-2.6,6.7-7.8v-14.4H532.5z"/>
	<path class="st0" d="M582.3,84.5c13.2,0,19.8,7.3,19.8,21.8V144c0,14.6-6.6,21.8-19.8,21.8h-21.1V84.5H582.3z M574.8,154.7h5.8
		c5.2,0,7.8-2.8,7.8-8.3v-42.6c0-5.4-2.6-8.2-7.8-8.2h-5.8V154.7z"/>
	<path class="st0" d="M620.3,165.9h-13l15.4-81.4h15.6l15.5,81.4h-14l-2.5-14.9h-14.5L620.3,165.9z M629.9,107.4l-5.4,32.6h10.9
		l-5.4-32.6H629.9z"/>
	<path class="st0" d="M687.4,165.9l-12.8-37.3v37.3h-13.7V84.5h19.9c6.6,0,11.4,1.6,14.4,4.7c3,3.1,4.4,7.6,4.4,13.6v10.4
		c0,8.8-3.6,14-10.9,15.7l13.1,37H687.4z M679.1,95.7h-4.6V121h4.6c4.5,0,6.7-2.2,6.7-6.7v-12C685.8,97.9,683.6,95.7,679.1,95.7z"/>
	<path class="st0" d="M708.5,165.9V84.5h32v11.2h-18.4v23.3h13.7v11h-13.7v35.9H708.5z"/>
	<path class="st0" d="M775.1,84.5h12.6v61.6c0,13.8-6.4,20.8-19.3,20.8c-13.6,0-20.4-6.9-20.4-20.8V84.5h13.7v62.9
		c0,5.4,2.2,8,6.7,8c4.5,0,6.7-2.7,6.7-8V84.5z"/>
	<path class="st0" d="M796.9,165.9V84.5h13.7v70.2h16.3v11.2H796.9z"/>
	<path class="st0" d="M834.6,165.9V84.5h13.7v70.2h16.3v11.2H834.6z"/>
	<path class="st0" d="M346.9,285.9l-16.1-51.1v51.1h-11.5v-81.4h13.4l14.8,46.7v-46.7h11.4v81.4H346.9z"/>
	<path class="st0" d="M409.9,204.5l-15.1,50.4v31h-13.7v-31l-15.2-50.4h14.3l8.3,30.8h0.1l8.3-30.8H409.9z M398.8,189.3v9.5
		l-21.5,2.8v-7.7L398.8,189.3z"/>
	<path class="st0" d="M415.3,215.7v-11.2h36.4v11.2h-11.3v70.2h-13.8v-70.2H415.3z"/>
	<path class="st0" d="M476.9,286.8c-6.6,0-11.5-1.7-14.6-5c-3.1-3.3-4.7-7.8-4.7-13.5v-10.9h12.7v11.2c0,4.8,2.2,7.2,6.7,7.2
		c4.2,0,6.2-2.4,6.2-7.2v-3.1c0-2.2-0.5-4.2-1.4-5.9c-0.9-1.7-2.5-3.6-4.7-5.6l-8-8c-4.2-4.2-7.2-7.7-8.9-10.7
		c-1.7-3-2.5-6.6-2.5-11v-2.8c0-5.4,1.6-9.7,4.8-13c3.2-3.3,8-4.9,14.4-4.9c6.6,0,11.5,1.6,14.5,4.7c3,3.1,4.6,7.7,4.6,13.8v6.6
		h-12.5v-7.1c0-4.6-2.2-7-6.5-7c-4.3,0-6.5,2.2-6.5,6.7v1.7c0,2.1,0.5,3.9,1.5,5.4c1,1.5,2.7,3.4,5,5.6l8.8,8.6
		c4.1,4.2,6.9,7.7,8.6,10.5c1.6,2.8,2.5,6.4,2.5,10.6v4c0,5.8-1.6,10.5-4.9,13.9C488.6,285.1,483.6,286.8,476.9,286.8z"/>
	<path class="st0" d="M505.5,285.9v-81.4h13.7v70.2h16.3v11.2H505.5z"/>
	<path class="st0" d="M553.9,285.9h-13l15.4-81.4h15.6l15.5,81.4h-14l-2.5-14.9h-14.5L553.9,285.9z M563.5,227.4l-5.4,32.6h10.9
		l-5.4-32.6H563.5z"/>
	<path class="st0" d="M629.2,286.8c-6.9,0-12-2-15.5-6c-3.4-4-5.2-9.3-5.2-16v-39.4c0-6.7,1.7-12.1,5.2-16c3.4-4,8.6-5.9,15.5-5.9
		c7,0,12.2,2,15.6,5.9c3.4,4,5.2,9.3,5.2,16v39.4c0,6.6-1.7,12-5.2,16C641.3,284.8,636.1,286.8,629.2,286.8z M629.2,275.4
		c4.7,0,7.1-2.8,7.1-8.4v-43.7c0-5.6-2.4-8.4-7.1-8.4c-4.6,0-7,2.8-7,8.4V267C622.2,272.6,624.5,275.4,629.2,275.4z"/>
	<path class="st0" d="M679.8,253.2v-10.8h19.4v43.4h-9.8V277c-1.9,6.6-6.3,9.8-13.1,9.8c-5.7,0-10-2-12.8-6c-2.9-4-4.3-9.3-4.3-16
		v-39.4c0-6.7,1.7-12.1,5.1-16c3.4-4,8.5-5.9,15.4-5.9c7.1,0,12.2,1.8,15.1,5.3c3,3.6,4.4,8.6,4.4,15.1v7.2h-12.5v-8.3
		c0-5.3-2.3-7.9-6.8-7.9c-4.7,0-7.1,2.8-7.1,8.4V267c0,5.6,2.2,8.4,6.7,8.4c4.5,0,6.7-2.6,6.7-7.8v-14.4H679.8z"/>
	<path class="st0" d="M319.3,405.9v-81.4h32v11.2H333v23.3h13.7v11H333v35.9H319.3z"/>
	<path class="st0" d="M385.3,405.9l-12.8-37.3v37.3h-13.7v-81.4h19.9c6.6,0,11.4,1.6,14.4,4.7c3,3.1,4.4,7.6,4.4,13.6v10.4
		c0,8.8-3.6,14-10.9,15.7l13.1,37H385.3z M377.1,335.7h-4.6V361h4.6c4.5,0,6.7-2.2,6.7-6.7v-12C383.8,337.9,381.5,335.7,377.1,335.7
		z"/>
	<path class="st0" d="M417.3,405.9h-13l15.4-81.4h15.6l15.5,81.4h-14l-2.5-14.9h-14.5L417.3,405.9z M426.9,347.4l-5.4,32.6h10.9
		l-5.4-32.6H426.9z"/>
	<path class="st0" d="M495.5,405.9v-52.8h-0.4l-9.2,52.8h-6.4l-10.2-52.8h-0.2v52.8h-11.3v-81.4h16l8.9,45.8h0.1l7.9-45.8H508v81.4
		H495.5z"/>
	<path class="st0" d="M517.2,405.9v-81.4h13.7v70.2h16.3v11.2H517.2z"/>
	<path class="st0" d="M554.9,405.9v-81.4h32.6v11.2h-19v23.3h13.6v11h-13.6v24.7h19v11.2H554.9z"/>
	<path class="st0" d="M596.3,405.9v-81.4H610v81.4H596.3z"/>
	<path class="st0" d="M617.1,370v-11h3.5v-34.4h21.1c13.2,0,19.8,7.3,19.8,21.8V384c0,14.6-6.6,21.8-19.8,21.8h-21.1V370H617.1z
		 M634.2,394.7h5.8c5.2,0,7.8-2.8,7.8-8.3v-42.6c0-5.4-2.6-8.2-7.8-8.2h-5.8v23.3h8.8v11h-8.8V394.7z"/>
	<path class="st0" d="M689.3,406.8c-6.6,0-11.5-1.7-14.6-5c-3.1-3.3-4.7-7.8-4.7-13.5v-10.9h12.7v11.2c0,4.8,2.2,7.2,6.7,7.2
		c4.2,0,6.2-2.4,6.2-7.2v-3.1c0-2.2-0.5-4.2-1.4-5.9c-0.9-1.7-2.5-3.6-4.7-5.6l-8-8c-4.2-4.2-7.2-7.7-8.9-10.7
		c-1.7-3-2.5-6.6-2.5-11v-2.8c0-5.4,1.6-9.7,4.8-13c3.2-3.3,8-4.9,14.4-4.9c6.6,0,11.5,1.6,14.5,4.7c3,3.1,4.6,7.7,4.6,13.8v6.6
		h-12.5v-7.1c0-4.6-2.2-7-6.5-7c-4.3,0-6.5,2.2-6.5,6.7v1.7c0,2.1,0.5,3.9,1.5,5.4c1,1.5,2.7,3.4,5,5.6l8.8,8.6
		c4.1,4.2,6.9,7.7,8.6,10.5c1.6,2.8,2.5,6.4,2.5,10.6v4c0,5.8-1.6,10.5-4.9,13.9C701,405.1,696,406.8,689.3,406.8z"/>
	<path class="st0" d="M717.9,405.9v-81.4h13.7v70.2h16.3v11.2H717.9z"/>
	<path class="st0" d="M766.3,405.9h-13l15.4-81.4h15.6l15.5,81.4h-14l-2.5-14.9h-14.5L766.3,405.9z M775.9,347.4l-5.4,32.6h10.9
		l-5.4-32.6H775.9z"/>
</g>
</svg>
