<?xml version="1.0" encoding="utf-8"?>
<!-- Generator: Adobe Illustrator 26.1.0, SVG Export Plug-In . SVG Version: 6.00 Build 0)  -->
<svg version="1.1" id="Layer_1" focusable="false" xmlns="http://www.w3.org/2000/svg" xmlns:xlink="http://www.w3.org/1999/xlink"
	 x="0px" y="0px" viewBox="0 0 1000 1000" style="enable-background:new 0 0 1000 1000;" xml:space="preserve">
<style type="text/css">
	.st0{fill:#FFFFFF;}
</style>
<link  id="dark-mode-general-link" rel="stylesheet" type="text/css" xmlns=""></link>
<link  id="dark-mode-custom-link" rel="stylesheet" type="text/css" xmlns=""></link>
<polygon class="st0" points="77.2,120.6 77.2,156 77.5,156 101.3,131.3 101.6,131.3 101.6,285.6 135.5,285.6 135.5,84 108.5,84 "/>
<path class="st0" d="M254.1,237.1v-29.7c0-33-13.1-49.7-37.5-49.7c-14.3,0-22.9,6.5-27.9,16.4h-0.3v-43.4c0-12.2,3.9-20.8,16.1-20.8
	s15.8,7.1,15.8,19.6v13.4h30.9v-10.7c0-29.7-9.8-50.5-47.3-50.5c-35.7,0-49.1,22.9-49.1,54.4v98.1c0,31.2,13.7,53.8,49.4,53.8
	C240.2,288,254.2,268.4,254.1,237.1 M220.6,240.1c0,12.8-4.8,20.2-16.4,20.2c-11.3,0-15.8-7.7-15.8-20.2v-36.9
	c0.6-11.3,5.3-18.4,16.1-18.4c11.6,0,16.1,7.1,16.1,20.2V240.1z"/>
<g>
	<path class="st0" d="M646.1,491c0,0-8.4,11.2-6,22.1c2.4,10.9,14.9,17.4,14.9,17.4s8.4-11.2,6-22S646.1,491,646.1,491"/>
	<path class="st0" d="M632.4,554.8c0,0,8.4-11.2,6-22.1s-14.9-17.4-14.9-17.4s-8.4,11.2-6,22.1S632.4,554.8,632.4,554.8"/>
	<path class="st0" d="M667,542.9c0,0,8.9,9,19,8.1s17.6-11.3,17.6-11.3s-8.9-9-19-8.1S667,542.9,667,542.9"/>
	<path class="st0" d="M681.6,495c-8.2,8.4-7.1,23.1-7.1,23.1s14.5,1.3,22.8-7.1s7.1-23.1,7.1-23.1S689.8,486.7,681.6,495"/>
	<path class="st0" d="M663.4,576.1c10.1,1.2,19.6-7.5,19.6-7.5s-6.9-10.6-17-11.8s-19.6,7.5-19.6,7.5S653.3,574.9,663.4,576.1"/>
	<path class="st0" d="M672.4,751.2H597c-5.9,0-10.7,4.8-10.7,10.7c0,5.9,4.8,10.7,10.7,10.7h75.4c5.9,0,10.7-4.8,10.7-10.7
		C683.1,756,678.3,751.2,672.4,751.2"/>
	<path class="st0" d="M672.4,868.7H597c-5.9,0-10.7,4.8-10.7,10.7c0,5.9,4.8,10.7,10.7,10.7h75.4c5.9,0,10.7-4.8,10.7-10.7
		C683.1,873.5,678.3,868.7,672.4,868.7"/>
	<path class="st0" d="M333.5,725.3c-1.7-0.5-3.5-1-5.2-1.3C328.3,724,330.2,724.6,333.5,725.3"/>
	<path class="st0" d="M669.6,780h-69.8c-3.3,0-6.1,2.7-6.1,6.1v21.2l-45.6,5l-66.6-1.5V770c9-1.1,17.8-2.9,26.5-5.4
		c64.1-18.1,78.1-71.1,76.7-107.8c-1.4-37.3,10.6-51.8,27.7-58.3c4.6-1.7,9.4-3,14.2-3.8c0.2,9.2,2,19.8,6.2,32.5
		c1.5-0.1,3-0.2,4.5-0.4c-4.3-13-6.2-23.7-6.3-32.8c5-0.6,10.1-0.8,15.2-0.5c-5.1-3-10-6.4-14.5-10.3c2.9-17.7,13.4-28.5,24.3-39.7
		c6-6.1,12.1-12.4,17-19.9l-3.8-2.4c-4.6,7.1-10.6,13.3-16.4,19.2c-10.6,10.8-21.3,21.9-24.9,39.5c-3.9-3.5-7.5-7.2-11-11.1
		c-15.8-17.7-36.2-4.7-65.2,22.3s-65.5,27.9-101.2-8.5c-47-48.2-88.1-47.9-116.2-45.2c19.2,8.2,26,26.2,35.7,71.9
		c10.2,48,36,69.7,71.2,72.7c-19.6,6.9-20.6,18-46.8,36.1c-20.5,14.1-49.4,9.7-61,7c21.5,6.7,46.9,29.2,69.6,37
		c13.4,4.6,27.4,7.4,41.5,8.5v38.9L325.4,807v27.2l222.8-5.1l45.6,5v21.1c0,3.4,2.7,6.1,6.1,6.1h69.8c3.4,0,6.1-2.7,6.1-6.1v-69.2
		C675.7,782.7,673,780,669.6,780z M455.6,771.5c5,0.1,10-0.1,14.9-0.4v39.4l-14.9-0.3V771.5z"/>
	<path class="st0" d="M318.8,829.8c0,5.7-4,10.4-8.9,10.4h-5.4c-4.9,0-8.9-4.6-8.9-10.4V811c0-5.7,4-10.4,8.9-10.4h5.4
		c4.9,0,8.9,4.6,8.9,10.4V829.8z"/>
</g>
<g>
	<path class="st0" d="M323.3,165.9V84.5h32v11.2H337v23.3h13.7v11H337v35.9H323.3z"/>
	<path class="st0" d="M389.3,165.9l-12.8-37.3v37.3h-13.7V84.5h19.9c6.6,0,11.4,1.6,14.4,4.7c3,3.1,4.4,7.6,4.4,13.6v10.4
		c0,8.8-3.6,14-10.9,15.7l13.1,37H389.3z M381.1,95.7h-4.6V121h4.6c4.5,0,6.7-2.2,6.7-6.7v-12C387.8,97.9,385.5,95.7,381.1,95.7z"/>
	<path class="st0" d="M410.5,165.9V84.5h13.7v81.4H410.5z"/>
	<path class="st0" d="M431.2,130v-11h3.5V84.5h21.1c13.2,0,19.8,7.3,19.8,21.8V144c0,14.6-6.6,21.8-19.8,21.8h-21.1V130H431.2z
		 M448.4,154.7h5.8c5.2,0,7.8-2.8,7.8-8.3v-42.6c0-5.4-2.6-8.2-7.8-8.2h-5.8v23.3h8.8v11h-8.8V154.7z"/>
	<path class="st0" d="M512,84.5h12.6v61.6c0,13.8-6.4,20.8-19.3,20.8c-13.6,0-20.4-6.9-20.4-20.8V84.5h13.7v62.9c0,5.4,2.2,8,6.7,8
		c4.5,0,6.7-2.7,6.7-8V84.5z"/>
	<path class="st0" d="M560.3,165.9l-12.8-37.3v37.3h-13.7V84.5h19.9c6.6,0,11.4,1.6,14.4,4.7c3,3.1,4.4,7.6,4.4,13.6v10.4
		c0,8.8-3.6,14-10.9,15.7l13.1,37H560.3z M552.1,95.7h-4.6V121h4.6c4.5,0,6.7-2.2,6.7-6.7v-12C558.8,97.9,556.5,95.7,552.1,95.7z"/>
	<path class="st0" d="M595.5,152.8v1.1l-7,18.4h-7.7l1.7-19.4H595.5z"/>
	<path class="st0" d="M645.3,165.9l-12.8-37.3v37.3h-13.7V84.5h19.9c6.6,0,11.4,1.6,14.4,4.7c3,3.1,4.4,7.6,4.4,13.6v10.4
		c0,8.8-3.6,14-10.9,15.7l13.1,37H645.3z M637,95.7h-4.6V121h4.6c4.5,0,6.7-2.2,6.7-6.7v-12C643.7,97.9,641.5,95.7,637,95.7z"/>
	<path class="st0" d="M677,165.9h-13l20.8-81.4h41v11.2h-19v23.3h13.6v11h-13.6v24.7h19v11.2h-32.6V151h-12.7L677,165.9z
		 M693.1,97.1l-10.1,43h10.2v-43H693.1z"/>
	<path class="st0" d="M733,95.7V84.5h36.4v11.2h-11.3v70.2h-13.8V95.7H733z"/>
	<path class="st0" d="M775.6,95.7V84.5H812v11.2h-11.3v70.2h-13.8V95.7H775.6z"/>
	<path class="st0" d="M850.7,84.5h12.8l-15.5,81.4h-14.9l-15.5-81.4h13.9l9.4,56.8h0.1L850.7,84.5z"/>
	<path class="st0" d="M888.7,69.3v9.5l-21.5,2.8v-7.7L888.7,69.3z M870.7,165.9V84.5h13.7v81.4H870.7z"/>
	<path class="st0" d="M912.3,166.8c-6.6,0-11.5-1.7-14.6-5c-3.1-3.3-4.7-7.8-4.7-13.5v-10.9h12.7v11.2c0,4.8,2.2,7.2,6.7,7.2
		c4.2,0,6.2-2.4,6.2-7.2v-3.1c0-2.2-0.5-4.2-1.4-5.9c-0.9-1.7-2.5-3.6-4.7-5.6l-8-8c-4.2-4.2-7.2-7.7-8.9-10.7
		c-1.7-3-2.5-6.6-2.5-11v-2.8c0-5.4,1.6-9.7,4.8-13c3.2-3.3,8-4.9,14.4-4.9c6.6,0,11.5,1.6,14.5,4.7c3,3.1,4.6,7.7,4.6,13.8v6.6
		h-12.5v-7.1c0-4.6-2.2-7-6.5-7s-6.5,2.2-6.5,6.7v1.7c0,2.1,0.5,3.9,1.5,5.4c1,1.5,2.7,3.4,5,5.6l8.8,8.6c4.1,4.2,6.9,7.7,8.6,10.5
		c1.6,2.8,2.5,6.4,2.5,10.6v4c0,5.8-1.6,10.5-4.9,13.9C924,165.1,919,166.8,912.3,166.8z"/>
	<path class="st0" d="M940.9,165.9V84.5h13.7v81.4H940.9z"/>
	<path class="st0" d="M344,286.8c-6.9,0-12-2-15.5-6c-3.4-4-5.2-9.3-5.2-16v-39.4c0-6.7,1.7-12.1,5.2-16c3.4-4,8.6-5.9,15.5-5.9
		c7,0,12.2,2,15.6,5.9c3.4,4,5.2,9.3,5.2,16v39.4c0,6.6-1.7,12-5.2,16C356.1,284.8,350.9,286.8,344,286.8z M344,275.4
		c4.7,0,7.1-2.8,7.1-8.4v-43.7c0-5.6-2.4-8.4-7.1-8.4c-4.6,0-7,2.8-7,8.4V267C337,272.6,339.3,275.4,344,275.4z"/>
	<path class="st0" d="M394.6,253.2v-10.8h19.4v43.4h-9.8V277c-1.9,6.6-6.3,9.8-13.1,9.8c-5.7,0-10-2-12.8-6c-2.9-4-4.3-9.3-4.3-16
		v-39.4c0-6.7,1.7-12.1,5.1-16c3.4-4,8.5-5.9,15.4-5.9c7.1,0,12.2,1.8,15.1,5.3c3,3.6,4.4,8.6,4.4,15.1v7.2h-12.5v-8.3
		c0-5.3-2.3-7.9-6.8-7.9c-4.7,0-7.1,2.8-7.1,8.4V267c0,5.6,2.2,8.4,6.7,8.4c4.5,0,6.7-2.6,6.7-7.8v-14.4H394.6z"/>
	<path class="st0" d="M455.9,286.8c-6.6,0-11.5-1.7-14.6-5c-3.1-3.3-4.7-7.8-4.7-13.5v-10.9h12.7v11.2c0,4.8,2.2,7.2,6.7,7.2
		c4.2,0,6.2-2.4,6.2-7.2v-3.1c0-2.2-0.5-4.2-1.4-5.9c-0.9-1.7-2.5-3.6-4.7-5.6l-8-8c-4.2-4.2-7.2-7.7-8.9-10.7
		c-1.7-3-2.5-6.6-2.5-11v-2.8c0-5.4,1.6-9.7,4.8-13c3.2-3.3,8-4.9,14.4-4.9c6.6,0,11.5,1.6,14.5,4.7c3,3.1,4.6,7.7,4.6,13.8v6.6
		h-12.5v-7.1c0-4.6-2.2-7-6.5-7c-4.3,0-6.5,2.2-6.5,6.7v1.7c0,2.1,0.5,3.9,1.5,5.4c1,1.5,2.7,3.4,5,5.6l8.8,8.6
		c4.1,4.2,6.9,7.7,8.6,10.5c1.6,2.8,2.5,6.4,2.5,10.6v4c0,5.8-1.6,10.5-4.9,13.9C467.7,285.1,462.7,286.8,455.9,286.8z"/>
	<path class="st0" d="M481.1,215.7v-11.2h36.4v11.2h-11.3v70.2h-13.8v-70.2H481.1z"/>
	<path class="st0" d="M525.3,285.9v-81.4h32.6v11.2h-19v23.3h13.6v11H539v24.7h19v11.2H525.3z"/>
	<path class="st0" d="M593.2,285.9l-12.8-37.3v37.3h-13.7v-81.4h19.9c6.6,0,11.4,1.6,14.4,4.7c3,3.1,4.4,7.6,4.4,13.6v10.4
		c0,8.8-3.6,14-10.9,15.7l13.1,37H593.2z M584.9,215.7h-4.6V241h4.6c4.5,0,6.7-2.2,6.7-6.7v-12C591.7,217.9,589.4,215.7,584.9,215.7
		z"/>
	<path class="st0" d="M642.3,285.9L628,246.3v39.6h-13.7v-81.4H628v35.8l14.9-35.8h13.4l-15.8,36.6l16.2,44.8H642.3z"/>
	<path class="st0" d="M663.3,285.9v-81.4H677v81.4H663.3z"/>
	<path class="st0" d="M712.9,285.9L700,248.5v37.3h-13.7v-81.4h19.9c6.6,0,11.4,1.6,14.4,4.7c3,3.1,4.4,7.6,4.4,13.6v10.4
		c0,8.8-3.6,14-10.9,15.7l13.1,37H712.9z M704.6,215.7H700V241h4.6c4.5,0,6.7-2.2,6.7-6.7v-12C711.3,217.9,709.1,215.7,704.6,215.7z
		"/>
	<path class="st0" d="M341.9,406.8c-6.6,0-11.5-1.7-14.6-5c-3.1-3.3-4.7-7.8-4.7-13.5v-10.9h12.7v11.2c0,4.8,2.2,7.2,6.7,7.2
		c4.2,0,6.2-2.4,6.2-7.2v-3.1c0-2.2-0.5-4.2-1.4-5.9c-0.9-1.7-2.5-3.6-4.7-5.6l-8-8c-4.2-4.2-7.2-7.7-8.9-10.7
		c-1.7-3-2.5-6.6-2.5-11v-2.8c0-5.4,1.6-9.7,4.8-13c3.2-3.3,8-4.9,14.4-4.9c6.6,0,11.5,1.6,14.5,4.7c3,3.1,4.6,7.7,4.6,13.8v6.6
		h-12.5v-7.1c0-4.6-2.2-7-6.5-7s-6.5,2.2-6.5,6.7v1.7c0,2.1,0.5,3.9,1.5,5.4c1,1.5,2.7,3.4,5,5.6l8.8,8.6c4.1,4.2,6.9,7.7,8.6,10.5
		c1.6,2.8,2.5,6.4,2.5,10.6v4c0,5.8-1.6,10.5-4.9,13.9C353.7,405.1,348.7,406.8,341.9,406.8z"/>
	<path class="st0" d="M367.1,335.7v-11.2h36.4v11.2h-11.3v70.2h-13.8v-70.2H367.1z"/>
	<path class="st0" d="M430.1,406.8c-6.9,0-12-2-15.5-6c-3.4-4-5.2-9.3-5.2-16v-39.4c0-6.7,1.7-12.1,5.2-16c3.4-4,8.6-5.9,15.5-5.9
		c7,0,12.2,2,15.6,5.9c3.4,4,5.2,9.3,5.2,16v39.4c0,6.6-1.7,12-5.2,16C442.3,404.8,437.1,406.8,430.1,406.8z M430.1,395.4
		c4.7,0,7.1-2.8,7.1-8.4v-43.7c0-5.6-2.4-8.4-7.1-8.4c-4.6,0-7,2.8-7,8.4V387C423.2,392.6,425.5,395.4,430.1,395.4z"/>
	<path class="st0" d="M488.7,324.5h12.8l-15.5,81.4h-14.9l-15.5-81.4h13.9l9.4,56.8h0.1L488.7,324.5z"/>
	<path class="st0" d="M536.2,405.9l-16.1-51.1v51.1h-11.5v-81.4h13.4l14.8,46.7v-46.7h11.4v81.4H536.2z"/>
	<path class="st0" d="M568.3,405.9h-13l15.4-81.4h15.6l15.5,81.4h-14l-2.5-14.9h-14.5L568.3,405.9z M577.9,347.4l-5.4,32.6h10.9
		l-5.4-32.6H577.9z"/>
	<path class="st0" d="M635.3,405.9l-12.8-37.3v37.3h-13.7v-81.4h19.9c6.6,0,11.4,1.6,14.4,4.7c3,3.1,4.4,7.6,4.4,13.6v10.4
		c0,8.8-3.6,14-10.9,15.7l13.1,37H635.3z M627.1,335.7h-4.6V361h4.6c4.5,0,6.7-2.2,6.7-6.7v-12C633.8,337.9,631.5,335.7,627.1,335.7
		z"/>
</g>
</svg>
