<?xml version="1.0" encoding="utf-8"?>
<!-- Generator: Adobe Illustrator 26.1.0, SVG Export Plug-In . SVG Version: 6.00 Build 0)  -->
<svg version="1.1" id="Layer_1" focusable="false" xmlns="http://www.w3.org/2000/svg" xmlns:xlink="http://www.w3.org/1999/xlink"
	 x="0px" y="0px" viewBox="0 0 1000 1000" style="enable-background:new 0 0 1000 1000;" xml:space="preserve">
<style type="text/css">
	.st0{fill:#FFFFFF;}
</style>
<link  id="dark-mode-general-link" rel="stylesheet" type="text/css" xmlns=""></link>
<link  id="dark-mode-custom-link" rel="stylesheet" type="text/css" xmlns=""></link>
<g>
	<path id="_Path_2" class="st0" d="M142.7,288.1c34.2,0,49.1-18.1,49.1-46.1v-29.7c0-18.4-8-30.3-25-34.2
		c14-4.5,23.2-15.8,23.2-32.7v-17.5c0-28.5-13.7-46.1-44.9-46.1c-35.1,0-47.3,20.8-47.3,50.6v17.8h30.9v-20.5
		c0-12.5,3.9-19.6,14.6-19.6s14.6,7.1,14.6,18.1v21.7c0,10.7-7.1,16.4-18.1,16.4h-12.8v25.9h14.3c11.9,0,16.6,5.6,16.6,16.4v33.3
		c0,10.7-4.8,18.2-15.2,18.2c-11.6,0-15.8-7.8-15.8-19.6v-28.8H96v26.5C96,268.5,108.2,288.1,142.7,288.1"/>
	<g>
		<path id="_Path_3" class="st0" d="M835.3,625c0-28.1-18-51-45.4-51c-13.7,0-30.2,15-39.1,24.2c-9-9.2-24.4-24.2-38-24.2
			c-27.3,0-46.5,22.8-46.5,51c0,13.4,5.2,26.4,14.5,36l0,0l70.1,70.2l70-70.2l-0.1,0C830.1,651.4,835.3,638.4,835.3,625z"/>
		<g id="_Group_">
			<path id="_Path_4" class="st0" d="M536.8,845.9h-0.7c-5.3-0.3-9.7-4.3-10.6-9.5l-35.6-207.4l-53.9,100c-3,5.6-10,7.7-15.6,4.7
				c-3.2-1.7-5.4-4.9-5.9-8.5l-22.9-160l-41.9,94.1c-1.8,4.2-6,6.8-10.5,6.9H176.2c-6.4-0.4-11.2-5.8-10.8-12.2
				c0.3-5.8,5-10.5,10.8-10.8h155.4l55.1-123.8c2.6-5.8,9.4-8.4,15.2-5.9c3.6,1.6,6.1,4.9,6.7,8.9l23.6,165l53.2-98.6
				c3-5.6,10-7.7,15.6-4.6c3.1,1.7,5.3,4.7,5.9,8.2l33,192.1L660,385c1.8-6.1,8.3-9.5,14.4-7.7c3.1,0.9,5.6,3.1,7,6l63.2,131.1
				c2.9,5.7,0.6,12.6-5.1,15.5c-5.7,2.9-12.6,0.6-15.5-5.1c-0.1-0.1-0.1-0.3-0.2-0.4L673.6,420L547.8,837.7
				C546.4,842.5,541.9,845.9,536.8,845.9z"/>
		</g>
	</g>
</g>
<g>
	<path class="st0" d="M312,133.2v-10.8h19.4v43.4h-9.8V157c-1.9,6.6-6.3,9.8-13.1,9.8c-5.7,0-10-2-12.8-6c-2.9-4-4.3-9.3-4.3-16
		v-39.4c0-6.7,1.7-12.1,5.1-16c3.4-4,8.5-5.9,15.4-5.9c7.1,0,12.2,1.8,15.1,5.3c3,3.6,4.4,8.6,4.4,15.1v7.2h-12.5v-8.3
		c0-5.3-2.3-7.9-6.8-7.9c-4.7,0-7.1,2.8-7.1,8.4V147c0,5.6,2.2,8.4,6.7,8.4c4.5,0,6.7-2.6,6.7-7.8v-14.4H312z"/>
	<path class="st0" d="M361.3,166.8c-6.9,0-12-2-15.5-6c-3.4-4-5.2-9.3-5.2-16v-39.4c0-6.7,1.7-12.1,5.2-16c3.4-4,8.6-5.9,15.5-5.9
		c7,0,12.2,2,15.6,5.9c3.4,4,5.2,9.3,5.2,16v39.4c0,6.6-1.7,12-5.2,16C373.5,164.8,368.3,166.8,361.3,166.8z M372.5,69.3v9.5
		L351,81.5v-7.7L372.5,69.3z M361.3,155.4c4.7,0,7.1-2.8,7.1-8.4v-43.7c0-5.6-2.4-8.4-7.1-8.4c-4.6,0-7,2.8-7,8.4V147
		C354.3,152.6,356.7,155.4,361.3,155.4z"/>
	<path class="st0" d="M389,130v-11h3.5V84.5h21.1c13.2,0,19.8,7.3,19.8,21.8V144c0,14.6-6.6,21.8-19.8,21.8h-21.1V130H389z
		 M406.2,154.7h5.8c5.2,0,7.8-2.8,7.8-8.3v-42.6c0-5.4-2.6-8.2-7.8-8.2h-5.8v23.3h8.8v11h-8.8V154.7z"/>
	<path class="st0" d="M483.6,165.9V130h-13.2v35.9h-13.7V84.5h13.7v34.4h13.2V84.5h13.8v81.4H483.6z"/>
	<path class="st0" d="M506.6,165.9V84.5h32.6v11.2h-19v23.3h13.6v11h-13.6v24.7h19v11.2H506.6z"/>
	<path class="st0" d="M548,165.9V84.5h13.7v81.4H548z"/>
	<path class="st0" d="M571.1,165.9V84.5h13.7v70.2h16.3v11.2H571.1z"/>
	<path class="st0" d="M626.7,166.8c-6.6,0-11.5-1.7-14.6-5c-3.1-3.3-4.7-7.8-4.7-13.5v-10.9h12.7v11.2c0,4.8,2.2,7.2,6.7,7.2
		c4.2,0,6.2-2.4,6.2-7.2v-3.1c0-2.2-0.5-4.2-1.4-5.9c-0.9-1.7-2.5-3.6-4.7-5.6l-8-8c-4.2-4.2-7.2-7.7-8.9-10.7
		c-1.7-3-2.5-6.6-2.5-11v-2.8c0-5.4,1.6-9.7,4.8-13c3.2-3.3,8-4.9,14.4-4.9c6.6,0,11.5,1.6,14.5,4.7c3,3.1,4.6,7.7,4.6,13.8v6.6
		h-12.5v-7.1c0-4.6-2.2-7-6.5-7s-6.5,2.2-6.5,6.7v1.7c0,2.1,0.5,3.9,1.5,5.4c1,1.5,2.7,3.4,5,5.6l8.8,8.6c4.1,4.2,6.9,7.7,8.6,10.5
		c1.6,2.8,2.5,6.4,2.5,10.6v4c0,5.8-1.6,10.5-4.9,13.9C638.5,165.1,633.5,166.8,626.7,166.8z"/>
	<path class="st0" d="M664.9,165.9h-13l15.4-81.4h15.6l15.5,81.4h-14l-2.5-14.9h-14.5L664.9,165.9z M674.5,107.4l-5.4,32.6H680
		l-5.4-32.6H674.5z"/>
	<path class="st0" d="M312,286.8c-6.9,0-12-2-15.5-6c-3.4-4-5.2-9.3-5.2-16v-39.4c0-6.7,1.7-12.1,5.2-16c3.4-4,8.6-5.9,15.5-5.9
		c7,0,12.2,2,15.6,5.9c3.4,4,5.2,9.3,5.2,16v39.4c0,6.6-1.7,12-5.2,16C324.1,284.8,318.9,286.8,312,286.8z M312,275.4
		c4.7,0,7.1-2.8,7.1-8.4v-43.7c0-5.6-2.4-8.4-7.1-8.4c-4.6,0-7,2.8-7,8.4V267C305,272.6,307.3,275.4,312,275.4z"/>
	<path class="st0" d="M362.6,253.2v-10.8h19.4v43.4h-9.8V277c-1.9,6.6-6.3,9.8-13.1,9.8c-5.7,0-10-2-12.8-6c-2.9-4-4.3-9.3-4.3-16
		v-39.4c0-6.7,1.7-12.1,5.1-16c3.4-4,8.5-5.9,15.4-5.9c7.1,0,12.2,1.8,15.1,5.3c3,3.6,4.4,8.6,4.4,15.1v7.2h-12.5v-8.3
		c0-5.3-2.3-7.9-6.8-7.9c-4.7,0-7.1,2.8-7.1,8.4V267c0,5.6,2.2,8.4,6.7,8.4c4.5,0,6.7-2.6,6.7-7.8v-14.4H362.6z"/>
	<path class="st0" d="M436.3,204.5h12.8l-15.5,81.4h-14.9l-15.5-81.4h13.9l9.4,56.8h0.1L436.3,204.5z"/>
	<path class="st0" d="M458.4,285.9h-13l20.8-81.4h41v11.2h-19v23.3h13.6v11h-13.6v24.7h19v11.2h-32.6V271h-12.7L458.4,285.9z
		 M474.5,217.1l-10.1,43h10.2v-43H474.5z"/>
	<path class="st0" d="M516,285.9v-81.4h13.7v70.2H546v11.2H516z"/>
	<path class="st0" d="M553.7,285.9v-81.4h32v11.2h-18.4v23.3H581v11h-13.7v35.9H553.7z"/>
	<path class="st0" d="M593.1,285.9v-81.4h32.6v11.2h-19v23.3h13.6v11h-13.6v24.7h19v11.2H593.1z"/>
	<path class="st0" d="M661.1,285.9l-12.8-37.3v37.3h-13.7v-81.4h19.9c6.6,0,11.4,1.6,14.4,4.7c3,3.1,4.4,7.6,4.4,13.6v10.4
		c0,8.8-3.6,14-10.9,15.7l13.1,37H661.1z M652.8,215.7h-4.6V241h4.6c4.5,0,6.7-2.2,6.7-6.7v-12C659.5,217.9,657.3,215.7,652.8,215.7
		z"/>
	<path class="st0" d="M679.9,250v-11h3.5v-34.4h21.1c13.2,0,19.8,7.3,19.8,21.8V264c0,14.6-6.6,21.8-19.8,21.8h-21.1V250H679.9z
		 M697.1,274.7h5.8c5.2,0,7.8-2.8,7.8-8.3v-42.6c0-5.4-2.6-8.2-7.8-8.2h-5.8v23.3h8.8v11h-8.8V274.7z"/>
</g>
</svg>
