<?xml version="1.0" encoding="utf-8"?>
<!-- Generator: Adobe Illustrator 26.1.0, SVG Export Plug-In . SVG Version: 6.00 Build 0)  -->
<svg version="1.1" id="Layer_1" focusable="false" xmlns="http://www.w3.org/2000/svg" xmlns:xlink="http://www.w3.org/1999/xlink"
	 x="0px" y="0px" viewBox="0 0 1000 1000" style="enable-background:new 0 0 1000 1000;" xml:space="preserve">
<style type="text/css">
	.st0{fill:#FFFFFF;}
</style>
<link  id="dark-mode-general-link" rel="stylesheet" type="text/css" xmlns=""></link>
<link  id="dark-mode-custom-link" rel="stylesheet" type="text/css" xmlns=""></link>
<polygon id="_Path_2" class="st0" points="102.6,111.4 154.9,111.4 109.7,285.4 143.3,285.4 187.6,115 187.6,83.8 102.6,83.8 "/>
<g>
	<path id="_Compound_Path_" class="st0" d="M500,484.5c-81,0-146.6,65.6-146.6,146.5c0,81,65.6,146.6,146.5,146.6
		s146.6-65.6,146.6-146.5c0,0,0,0,0-0.1C646.5,550.1,580.9,484.5,500,484.5 M489.1,542.4c0-4.9,4.9-10.2,10.9-10.2
		s10.9,5.4,10.9,10.2v50.3c0,4.8-4.9,10.2-10.9,10.2s-10.9-5.3-10.9-10.2V542.4z M500,706.2c-42.1-0.1-76.2-34.3-76.1-76.4
		c0.1-33.3,21.7-62.7,53.5-72.6v28.4c-24.5,12.5-34.3,42.6-21.8,67.1c12.5,24.5,42.6,34.3,67.1,21.8c24.5-12.5,34.3-42.6,21.8-67.1
		c-4.8-9.4-12.5-17.1-21.9-21.9v-28.4c40.2,12.5,62.7,55.2,50.3,95.4C562.9,684.4,533.4,706.2,500,706.2"/>
	<path id="_Path_3" class="st0" d="M331.7,629.8c0-6.7-5.9-12-11.3-12h-64.2c-5.4,0-11.4,5.4-11.4,12s5.9,12.1,11.4,12.1h64.2
		C325.8,641.9,331.7,636.4,331.7,629.8"/>
	<path id="_Path_4" class="st0" d="M755.1,629.8c0-6.7-5.9-12-11.3-12h-64.2c-5.4,0-11.3,5.4-11.3,12s5.9,12.1,11.3,12.1h64.2
		C749.2,641.9,755.1,636.4,755.1,629.8"/>
	<path id="_Path_5" class="st0" d="M500,461.5c6.6,0,12-5.9,12-11.3v-64.2c0-5.4-5.4-11.4-12-11.4s-12.1,5.9-12.1,11.4v64.2
		C487.9,455.6,493.3,461.5,500,461.5"/>
	<path id="_Path_6" class="st0" d="M500,884.9c6.6,0,12-5.9,12-11.3v-64.2c0-5.4-5.4-11.3-12-11.3s-12.1,6-12.1,11.3v64.2
		C487.9,879,493.3,884.9,500,884.9"/>
	<path id="_Path_7" class="st0" d="M354,546.2c3.3-5.8,0.9-13.4-3.8-16l-55.7-31.9c-4.7-2.7-12.5-1-15.8,4.8s-0.8,13.4,3.9,16.1
		l55.7,31.9C342.9,553.8,350.7,552,354,546.2"/>
	<path id="_Path_8" class="st0" d="M721.4,756.5c3.3-5.8,0.9-13.4-3.8-16l-55.7-31.9c-4.7-2.7-12.5-1-15.8,4.8s-0.8,13.4,3.8,16.1
		l55.7,31.9C710.3,764.1,718.1,762.3,721.4,756.5"/>
	<path id="_Path_9" class="st0" d="M583.6,483.8c5.8,3.3,13.3,0.9,16-3.8l31.9-55.7c2.7-4.7,1-12.5-4.8-15.8s-13.4-0.8-16.1,3.9
		L578.7,468C576,472.7,577.8,480.5,583.6,483.8"/>
	<path id="_Path_10" class="st0" d="M373.3,851.2c5.8,3.3,13.4,0.9,16-3.8l31.9-55.7c2.7-4.7,1-12.5-4.8-15.8s-13.4-0.8-16.1,3.9
		l-31.9,55.7C365.8,840.1,367.5,847.9,373.3,851.2"/>
	<path id="_Path_11" class="st0" d="M416.1,483.9c5.8-3.3,7.5-11.1,4.8-15.8l-32-55.6c-2.7-4.7-10.3-7.1-16.1-3.8
		s-7.5,11.2-4.8,15.9l32,55.6C402.8,484.8,410.4,487.2,416.1,483.9"/>
	<path id="_Path_12" class="st0" d="M627.2,850.9c5.8-3.3,7.5-11.1,4.8-15.8l-32-55.6c-2.7-4.7-10.3-7.2-16.1-3.8
		s-7.5,11.2-4.8,15.9l32,55.6C613.8,851.8,621.4,854.2,627.2,850.9"/>
	<path id="_Path_13" class="st0" d="M645.9,545.9c3.3,5.8,11.1,7.5,15.8,4.8l55.6-32c4.7-2.7,7.2-10.3,3.9-16.1s-11.2-7.5-15.9-4.8
		l-55.6,32C645,532.5,642.6,540.2,645.9,545.9"/>
	<path id="_Path_14" class="st0" d="M278.9,757c3.3,5.8,11.1,7.5,15.8,4.8l55.6-32c4.7-2.7,7.2-10.3,3.8-16.1s-11.2-7.5-15.9-4.8
		l-55.6,32C278,743.6,275.6,751.2,278.9,757"/>
</g>
<g>
	<path class="st0" d="M289.3,165.9V84.5h19.8c6.6,0,11.3,1.5,14.1,4.4c2.8,3,4.1,7.4,4.1,13.4v8.3c0,6.9-2.7,11.2-8.2,13
		c6.8,1.5,10.2,6,10.2,13.6V148c0,5.9-1.5,10.4-4.4,13.4c-3,3-7.8,4.5-14.4,4.5H289.3z M303,95.7v23.2h4.8c4.3,0,6.5-2.2,6.5-6.6
		v-10c0-4.4-2.2-6.6-6.6-6.6H303z M308.9,129.3H303v25.4h6c4.5,0,6.7-2.2,6.7-6.6v-12.2C315.7,131.5,313.5,129.3,308.9,129.3z"/>
	<path class="st0" d="M364.8,84.5h12.6v61.6c0,13.8-6.4,20.8-19.3,20.8c-13.6,0-20.4-6.9-20.4-20.8V84.5h13.7v62.9
		c0,5.4,2.2,8,6.7,8c4.5,0,6.7-2.7,6.7-8V84.5z"/>
	<path class="st0" d="M413.2,165.9l-12.8-37.3v37.3h-13.7V84.5h19.9c6.6,0,11.4,1.6,14.4,4.7c3,3.1,4.4,7.6,4.4,13.6v10.4
		c0,8.8-3.6,14-10.9,15.7l13.1,37H413.2z M404.9,95.7h-4.6V121h4.6c4.5,0,6.7-2.2,6.7-6.7v-12C411.6,97.9,409.4,95.7,404.9,95.7z"/>
	<path class="st0" d="M432,130v-11h3.5V84.5h21.1c13.2,0,19.8,7.3,19.8,21.8V144c0,14.6-6.6,21.8-19.8,21.8h-21.1V130H432z
		 M449.2,154.7h5.8c5.2,0,7.8-2.8,7.8-8.3v-42.6c0-5.4-2.6-8.2-7.8-8.2h-5.8v23.3h8.8v11h-8.8V154.7z"/>
	<path class="st0" d="M494.7,165.9h-13l15.4-81.4h15.6l15.5,81.4h-14l-2.5-14.9h-14.5L494.7,165.9z M504.3,107.4l-5.4,32.6h10.9
		l-5.4-32.6H504.3z"/>
	<path class="st0" d="M561.7,165.9l-12.8-37.3v37.3h-13.7V84.5h19.9c6.6,0,11.4,1.6,14.4,4.7c3,3.1,4.4,7.6,4.4,13.6v10.4
		c0,8.8-3.6,14-10.9,15.7l13.1,37H561.7z M553.5,95.7h-4.6V121h4.6c4.5,0,6.7-2.2,6.7-6.7v-12C560.2,97.9,557.9,95.7,553.5,95.7z"/>
	<path class="st0" d="M604,84.5c13.2,0,19.8,7.3,19.8,21.8V144c0,14.6-6.6,21.8-19.8,21.8h-21.1V84.5H604z M596.5,154.7h5.8
		c5.2,0,7.8-2.8,7.8-8.3v-42.6c0-5.4-2.6-8.2-7.8-8.2h-5.8V154.7z"/>
	<path class="st0" d="M671.8,84.5l-15.1,50.4v31H643v-31l-15.2-50.4H642l8.3,30.8h0.1l8.3-30.8H671.8z"/>
	<path class="st0" d="M696.4,133.2v-10.8h19.4v43.4H706V157c-1.9,6.6-6.3,9.8-13.1,9.8c-5.7,0-10-2-12.8-6c-2.9-4-4.3-9.3-4.3-16
		v-39.4c0-6.7,1.7-12.1,5.1-16c3.4-4,8.5-5.9,15.4-5.9c7.1,0,12.2,1.8,15.1,5.3c3,3.6,4.4,8.6,4.4,15.1v7.2h-12.5v-8.3
		c0-5.3-2.3-7.9-6.8-7.9c-4.7,0-7.1,2.8-7.1,8.4V147c0,5.6,2.2,8.4,6.7,8.4c4.5,0,6.7-2.6,6.7-7.8v-14.4H696.4z"/>
	<path class="st0" d="M745.7,133.2v-10.8h19.4v43.4h-9.8V157c-1.9,6.6-6.3,9.8-13.1,9.8c-5.7,0-10-2-12.8-6c-2.9-4-4.3-9.3-4.3-16
		v-39.4c0-6.7,1.7-12.1,5.1-16c3.4-4,8.5-5.9,15.4-5.9c7.1,0,12.2,1.8,15.1,5.3c3,3.6,4.4,8.6,4.4,15.1v7.2h-12.5v-8.3
		c0-5.3-2.3-7.9-6.8-7.9c-4.7,0-7.1,2.8-7.1,8.4V147c0,5.6,2.2,8.4,6.7,8.4c4.5,0,6.7-2.6,6.7-7.8v-14.4H745.7z"/>
	<path class="st0" d="M310,286.8c-6.9,0-12-2-15.5-6c-3.4-4-5.2-9.3-5.2-16v-39.4c0-6.7,1.7-12.1,5.2-16c3.4-4,8.6-5.9,15.5-5.9
		c7,0,12.2,2,15.6,5.9c3.4,4,5.2,9.3,5.2,16v39.4c0,6.6-1.7,12-5.2,16C322.1,284.8,316.9,286.8,310,286.8z M310,275.4
		c4.7,0,7.1-2.8,7.1-8.4v-43.7c0-5.6-2.4-8.4-7.1-8.4c-4.6,0-7,2.8-7,8.4V267C303,272.6,305.3,275.4,310,275.4z"/>
	<path class="st0" d="M366.5,285.9l-12.8-37.3v37.3H340v-81.4h19.9c6.6,0,11.4,1.6,14.4,4.7c3,3.1,4.4,7.6,4.4,13.6v10.4
		c0,8.8-3.6,14-10.9,15.7l13.1,37H366.5z M358.2,215.7h-4.6V241h4.6c4.5,0,6.7-2.2,6.7-6.7v-12C364.9,217.9,362.7,215.7,358.2,215.7
		z"/>
	<path class="st0" d="M415.6,285.9l-14.3-39.6v39.6h-13.7v-81.4h13.7v35.8l14.9-35.8h13.4l-15.8,36.6l16.2,44.8H415.6z"/>
	<path class="st0" d="M447.4,285.9h-13l15.4-81.4h15.6l15.5,81.4h-14l-2.5-14.9h-14.5L447.4,285.9z M457,227.4l-5.4,32.6h10.9
		l-5.4-32.6H457z"/>
</g>
</svg>
