<?xml version="1.0" encoding="utf-8"?>
<!-- Generator: Adobe Illustrator 22.0.1, SVG Export Plug-In . SVG Version: 6.00 Build 0)  -->
<svg version="1.1" id="Layer_1" xmlns="http://www.w3.org/2000/svg" xmlns:xlink="http://www.w3.org/1999/xlink" x="0px" y="0px"
	 viewBox="0 0 1000 1000" style="enable-background:new 0 0 1000 1000;" xml:space="preserve">
<style type="text/css">
	.st0{fill:#FFFFFF;}
</style>
<title>Artboard 1</title>
<rect y="0" width="1000" height="1000"/>
<polygon class="st0" points="299.1,113.2 299.1,164.6 287.5,164.6 287.5,82.8 301,82.8 315.9,129.7 315.9,82.8 327.4,82.8 
	327.4,164.6 315.3,164.6 "/>
<path class="st0" d="M357.1,165.5c14.6,0,20.9-9.4,20.9-22.1v-39.5c0-12.8-6.2-22.1-20.9-22.1s-20.7,9.3-20.7,22.1v39.6
	C336.4,156.1,342.6,165.5,357.1,165.5 M350.1,101.7c0-5,2.2-8.4,7-8.4s7.1,3.5,7.1,8.4v43.9c0,5-2.2,8.4-7.1,8.4s-7-3.5-7-8.4V101.7
	z"/>
<path class="st0" d="M301.3,257.6h6.6c13.9,0,18.9-7,18.9-18.4V222c0-11.5-5.1-18.3-18.9-18.3h-20.4v81.8h13.8V257.6z M301.3,214.8
	h5.1c4.7,0,6.8,2.2,6.8,6.6v18.8c0,4.5-2,6.8-6.8,6.8h-5.1V214.8z"/>
<path class="st0" d="M355.8,286.3c14.6,0,20.9-9.4,20.9-22.1v-39.6c0-12.8-6.3-22.1-20.9-22.1s-20.7,9.3-20.7,22.1v39.6
	C335.1,276.9,341.3,286.3,355.8,286.3 M348.8,222.5c0-5,2.2-8.4,7-8.4s7.1,3.5,7.1,8.4v43.9c0,5-2.2,8.5-7.1,8.5s-7-3.5-7-8.5V222.5
	z"/>
<polygon class="st0" points="411.8,285.4 427.3,203.6 414.4,203.6 404.8,260.6 404.6,260.6 395.2,203.6 381.2,203.6 396.8,285.4 "/>
<polygon class="st0" points="467,274.2 447.9,274.2 447.9,249.3 461.5,249.3 461.5,238.2 447.9,238.2 447.9,214.8 467,214.8 
	467,203.6 434.2,203.6 434.2,285.4 467,285.4 "/>
<path class="st0" d="M489.2,247.9l12.9,37.5h14.5l-13.1-37.1c7.8-1.8,11-7,11-15.8V222c0-11.5-5.1-18.3-18.9-18.3h-20v81.8h13.8
	L489.2,247.9z M489.2,214.9h4.6c4.7,0,6.8,2.2,6.8,6.6v12c0,4.4-2,6.8-6.8,6.8h-4.6V214.9z"/>
<polygon class="st0" points="531.5,285.4 545.3,285.4 545.3,214.8 556.7,214.8 556.7,203.6 520.1,203.6 520.1,214.8 531.5,214.8 "/>
<polygon class="st0" points="577.3,285.4 591,285.4 591,254.3 606.2,203.6 593.1,203.6 584.8,234.6 584.7,234.6 576.3,203.6 
	562,203.6 577.3,254.3 "/>
<polygon class="st0" points="139.6,131.5 139.9,131.5 139.9,285.9 173.8,285.9 173.8,84.2 146.7,84.2 115.5,120.8 115.5,156.2 
	115.8,156.2 "/>
<g>
	<path class="st0" d="M770.1,477.1c0-15.3,12.4-27.7,27.7-27.6c15.3,0,27.7,12.4,27.6,27.7c0,15.3-12.4,27.6-27.6,27.6
		C782.5,504.8,770.1,492.4,770.1,477.1"/>
	<path class="st0" d="M830.2,515.5c19,1.8,33.5,17.7,33.5,36.8V629c0,5.9-4.8,10.7-10.7,10.7c-5.9,0-10.7-4.8-10.7-10.7v-66
		c0-2.5-0.7-5.8-5.2-5.8c-3.1,0-3.8,3.3-3.9,5.4v197.5c0,8.5-6.9,15.4-15.4,15.4c-8.5,0-15.4-6.9-15.4-15.4V646.4
		c0-1.3-0.5-4.5-4.4-4.5l0,0c-3.9,0-4.4,3.3-4.5,4.5v113.8c0.2,8.5-6.5,15.6-15,15.8s-15.6-6.5-15.8-15c0-0.3,0-0.5,0-0.8V562.7
		c-0.1-2.1-0.8-5.4-3.9-5.4c-4.5,0-5.2,3.3-5.2,5.8V629c-0.3,5.9-5.3,10.5-11.2,10.3c-5.6-0.2-10-4.7-10.3-10.3v-76.8
		c0-19.1,14.5-35,33.5-36.8c0.7-0.1,1.3-0.2,2-0.2H828C828.7,515.3,829.4,515.3,830.2,515.5"/>
</g>
<g>
	<path class="st0" d="M605.5,491.6c0-14.5-11.7-26.2-26.2-26.2c-14.5,0-26.2,11.7-26.2,26.2s11.7,26.2,26.2,26.2c0,0,0,0,0,0
		C593.8,517.8,605.5,506.1,605.5,491.6"/>
	<path class="st0" d="M526.5,551l-21.8,71c0,0-3.9,13,7.1,16.2s14.3-9.4,14.3-9.4l17.6-59.2c0,0,1-4.6,4.4-3.6s2.1,5.8,2.1,5.8
		l-30.6,111h28.4v79.5c0.2,7.5,6.5,13.5,14,13.3c7.3-0.2,13.1-6,13.3-13.3v-79.6h7.8v79.5c0.2,7.5,6.5,13.5,14,13.3
		c7.3-0.2,13.1-6,13.3-13.3v-79.5h28.4l-30.6-111c0,0-1.3-4.8,2.1-5.8s4.4,3.6,4.4,3.6l17.6,59.2c0,0,3.3,12.7,14.3,9.4
		s7.2-16.2,7.2-16.2l-21.8-71c0,0-7.8-20.5-25-20.5h-55.6C534.3,530.5,526.5,551,526.5,551"/>
</g>
<g>
	<path class="st0" d="M448.5,491.6c0-14.5-11.7-26.2-26.2-26.2c-14.5,0-26.2,11.7-26.2,26.2c0,14.5,11.7,26.2,26.2,26.2l0,0
		C436.8,517.8,448.5,506.1,448.5,491.6"/>
	<path class="st0" d="M369.5,551l-21.8,71c0,0-3.9,13,7.1,16.2s14.3-9.4,14.3-9.4l17.6-59.2c0,0,1-4.6,4.4-3.6s2.1,5.8,2.1,5.8
		l-30.6,111h28.4v79.5c0,7.5,6.1,13.7,13.7,13.7s13.7-6.1,13.7-13.7l0,0v-79.6h7.8v79.5c0.2,7.5,6.5,13.5,14,13.3
		c7.3-0.2,13.1-6,13.3-13.3v-79.5h28.5l-30.6-111c0,0-1.3-4.9,2.1-5.8s4.4,3.6,4.4,3.6l17.6,59.2c0,0,3.3,12.7,14.3,9.4
		s7.1-16.2,7.1-16.2l-21.8-71c0,0-7.8-20.5-25-20.5h-55.6C377.3,530.5,369.5,551,369.5,551"/>
</g>
<g>
	<path class="st0" d="M693.5,638.3c12.1,0,21.8-9.8,21.8-21.8c0-12.1-9.8-21.8-21.8-21.8c-12,0-21.8,9.8-21.8,21.8
		C671.7,628.5,681.4,638.3,693.5,638.3C693.5,638.3,693.5,638.3,693.5,638.3"/>
	<path class="st0" d="M641.2,706.1c-1.1,2.5-1.9,8,3.2,10.3c6,2.8,9.3-3,9.3-3l11.9-37.8c0,0,2.1-2.5,2.1,0.1v89h0
		c0.2,6.2,5.3,11,11.5,10.9c5.9-0.2,10.7-4.9,10.9-10.9v-35.2c0,0-0.7-5,3.4-5s3.4,5,3.4,5v35.2c0,6.2,5,11.2,11.2,11.2
		c6.2,0,11.2-5,11.2-11.2v-89.1c0-2.6,1.4-0.8,1.4-0.8l9.3,25.9c0,0,4,11.6,5.3,12.1c4.2,1.8,9-0.2,10.8-4.4c0,0,0,0,0,0
		c1.1-2.6,0.8-5.7-0.9-8l0.1-0.1c-0.3-0.8-13.9-34.3-15.5-39c-4.9-14.4-13.9-14.2-22.5-14.5s-13.8,0-13.8,0s-5.5-0.2-16.9,0.1
		s-15,6.2-27.5,38.5C647.3,690.1,641.2,705.2,641.2,706.1L641.2,706.1z"/>
</g>
<g>
	<path class="st0" d="M186.7,504.8c15.3,0,27.7-12.4,27.7-27.7c0-15.3-12.4-27.7-27.7-27.7S159,461.8,159,477.1c0,0,0,0,0,0
		C159,492.4,171.4,504.7,186.7,504.8z"/>
	<path class="st0" d="M219.2,515.3c-0.7-0.1-1.5-0.3-2.2-0.3h-60.5c-0.7,0.1-1.3,0.2-2,0.3c-19,1.8-33.5,17.8-33.5,36.9V629
		c0,3.9,2.1,7.6,5.6,9.5c-0.2,0.3-0.3,0.6-0.4,0.9l-24.6,130.3c-0.4,2.2,1,4.3,3.1,4.7c0,0,0.1,0,0.1,0c0.2,0,0.5,0.1,0.8,0.1
		c2,0,3.6-1.4,4-3.3l24.6-130.3c0-0.5,0-1-0.1-1.5c4.7-1.2,8-5.5,7.9-10.4v-66c0-2.5,0.6-5.8,5.2-5.8c3.1,0,3.8,3.3,3.8,5.4v197.5
		c0,8.6,6.9,15.5,15.5,15.5s15.5-6.9,15.5-15.5V646.4c0-2.4,1.8-4.3,4.2-4.4c0.1,0,0.3,0,0.4,0l0,0c3.9,0,4.3,3.1,4.3,4.4v113.8
		c0,8.6,6.9,15.5,15.5,15.5s15.5-6.9,15.5-15.5V562.7c0-2.1,0.7-5.4,3.8-5.4c4.6,0,5.2,3.3,5.2,5.8V629c0,6.1,4.9,11,11,11
		s11-4.9,11-11v-76.8C252.9,533.1,238.3,517.1,219.2,515.3z"/>
</g>
<g>
	<path class="st0" d="M326.2,674.4l20.2-36.8c0,0,2.4-5.3,2.4-6.5c-0.1-4.4-3.7-7.9-8.1-7.9c-2.7,0-5.1,1.4-6.6,3.7H334
		c-0.6,0.5-10.8,18.6-14.2,22c-3.5,3.6-6.7,3.1-6.7,3.1h-26.4c0,0-3.2,0.5-6.7-3.1c-3.4-3.4-13.5-21.5-14.2-22l-0.1,0.1
		c-2.4-3.7-7.4-4.7-11.1-2.3c-2.2,1.4-3.5,3.8-3.6,6.4c0.1,1.2,0.4,2.4,0.8,3.5l22,39.8c0.8,1.7,1.2,3.4,1.3,5.2v7.8L263.5,730H275
		v35h0.1c0.1,6,4.9,10.8,10.9,10.8c6,0.1,10.8-4.7,10.9-10.7v-33.7c-0.3-0.4-0.5-0.9-0.4-1.4h6.5c0.1,0.5,0,1-0.1,1.4v33.7
		c0,6.1,4.9,11,11,11s11-4.9,11-11V730h11.3L325,687.2v-7.6C325.1,677.9,325.5,676.1,326.2,674.4z"/>
	<path class="st0" d="M299.9,638.3c12.1,0,21.8-9.8,21.8-21.8s-9.8-21.8-21.8-21.8c-12,0-21.8,9.8-21.8,21.8
		C278,628.5,287.8,638.3,299.9,638.3C299.8,638.3,299.9,638.3,299.9,638.3z"/>
</g>
</svg>
