<?xml version="1.0" encoding="utf-8"?>
<!-- Generator: Adobe Illustrator 22.0.1, SVG Export Plug-In . SVG Version: 6.00 Build 0)  -->
<svg version="1.1" id="Layer_1" xmlns="http://www.w3.org/2000/svg" xmlns:xlink="http://www.w3.org/1999/xlink" x="0px" y="0px"
	 viewBox="0 0 1000 1000" style="enable-background:new 0 0 1000 1000;" xml:space="preserve">
<style type="text/css">
	.st0{fill:#FFFFFF;}
</style>
<title>Artboard 1</title>
<rect y="0" width="1000" height="1000"/>
<path class="st0" d="M333.1,128.5l13.1,38.1H361l-13.3-37.7c8-1.8,11.1-7.1,11.1-16v-10.7c0-11.6-5.1-18.6-19.2-18.6h-20.4v83h14
	L333.1,128.5z M333.1,95h4.6c4.8,0,6.9,2.2,6.9,6.8V114c0,4.4-2.1,6.9-6.9,6.9h-4.6V95z"/>
<polygon class="st0" points="400.9,155.2 381.5,155.2 381.5,130 395.4,130 395.4,118.7 381.5,118.7 381.5,95 400.9,95 400.9,83.6 
	367.6,83.6 367.6,166.6 400.9,166.6 "/>
<path class="st0" d="M431.1,83.6h-21.5v83h21.5c14.9,0,20.2-9.6,20.2-22.3v-38.4C451.3,93,446.1,83.6,431.1,83.6 M437.4,146.8
	c0,5-2.2,8.4-8,8.4h-5.9V95h5.9c5.8,0,8,3.4,8,8.3V146.8z"/>
<path class="st0" d="M474.5,83.6h-14v62.8c0,12.9,6.1,21.2,20.8,21.2c14.2,0,19.7-8.3,19.7-21.2V83.6h-12.8v64.2
	c0,4.9-2,8.2-6.9,8.2s-6.9-3.3-6.9-8.2V83.6z"/>
<path class="st0" d="M510.3,105v40.2c0,12.9,6.1,22.4,20.8,22.4s19.7-8.8,19.7-20.7v-14.3h-12.7v15.3c0,4.9-1.7,8.1-6.7,8.1
	s-7.1-3.5-7.1-8.6v-44.6c0-5,2.1-8.6,7.1-8.6s6.7,2.9,6.7,8.1v10.9h12.7v-9.8c0-12.3-4.3-20.8-19.7-20.8
	C516.4,82.6,510.3,92,510.3,105"/>
<polygon class="st0" points="559.6,166.6 592.9,166.6 592.9,155.2 573.6,155.2 573.6,130 587.4,130 587.4,118.7 573.6,118.7 
	573.6,95 592.9,95 592.9,83.6 559.6,83.6 "/>
<path class="st0" d="M601.6,83.6v83h21.6c14.9,0,20.2-9.6,20.2-22.3v-38.4c0-12.9-5.3-22.3-20.2-22.3L601.6,83.6z M629.4,103.3v43.5
	c0,5-2.2,8.4-8,8.4h-5.9V95h5.9C627.2,95,629.4,98.4,629.4,103.3"/>
<rect x="319.2" y="202.4" class="st0" width="14" height="83"/>
<polygon class="st0" points="382.6,202.4 371,202.4 371,250 355.9,202.4 342.2,202.4 342.2,285.4 354,285.4 354,233.2 370.4,285.4 
	382.6,285.4 "/>
<polygon class="st0" points="423.8,213.8 423.8,202.4 390.5,202.4 390.5,285.4 423.8,285.4 423.8,274 404.5,274 404.5,248.8 
	418.3,248.8 418.3,237.5 404.5,237.5 404.5,213.8 "/>
<path class="st0" d="M450,201.4c-14.7,0-21.1,9.4-21.1,22.4V264c0,11.3,4.8,19.5,15.9,21.4v5.6l26.3,4.9v-10.4l-10.3-2
	c7.1-3.4,10.3-10.5,10.3-19.6v-40.1C471.2,210.8,464.8,201.4,450,201.4 M457.2,266.9c0,4.9-2.2,8.6-7.2,8.6s-7.1-3.7-7.1-8.6v-45.3
	c0-5,2.2-8.6,7.1-8.6s7.2,3.6,7.2,8.6V266.9z"/>
<path class="st0" d="M479,202.4v62.8c0,12.9,6.1,21.2,20.8,21.2c14.2,0,19.7-8.3,19.7-21.2v-62.8h-12.9v64.2c0,4.9-2,8.2-6.9,8.2
	s-6.9-3.3-6.9-8.2v-64.2H479z"/>
<path class="st0" d="M539.7,202.4l-15.7,83h13.2l2.4-15.2h14.8l2.6,15.2h14.3l-15.8-83H539.7z M541.6,259.1l5.5-33.3h0.1l5.5,33.3
	H541.6z"/>
<polygon class="st0" points="577.1,202.4 577.1,285.4 607.7,285.4 607.7,274 591.1,274 591.1,202.4 "/>
<rect x="614" y="202.4" class="st0" width="14" height="83"/>
<polygon class="st0" points="659.9,285.4 659.9,213.8 671.4,213.8 671.4,202.4 634.3,202.4 634.3,213.8 645.8,213.8 645.8,285.4 "/>
<rect x="677.8" y="202.4" class="st0" width="14" height="83"/>
<polygon class="st0" points="733,274 713.7,274 713.7,248.8 727.5,248.8 727.5,237.5 713.7,237.5 713.7,213.8 733,213.8 733,202.4 
	699.7,202.4 699.7,285.4 733,285.4 "/>
<path class="st0" d="M738.5,256.4v11.1c0,10.9,5.5,18.9,19.7,18.9s20.3-8.1,20.3-19.5v-4c0-9.2-3.7-13.8-11.3-21.6l-9-8.8
	c-4-3.9-6.6-6.6-6.6-11.3v-1.7c0-4.7,2.7-6.9,6.6-6.9c4.4,0,6.6,2.3,6.6,7.1v7.2h12.8v-6.8c0-12-5.5-18.9-19.5-18.9
	c-13.6,0-19.6,8-19.6,18.2v2.8c0,9.6,3.7,14.3,11.6,22.2l8.2,8.2c4.3,4,6.2,7,6.2,11.8v3.2c0,4.4-2,7.4-6.4,7.4
	c-4.8,0-6.9-2.7-6.9-7.4v-11.4H738.5z"/>
<polygon class="st0" points="96.5,131 96.5,285.5 130.4,285.5 130.4,83.7 103.3,83.7 72.1,120.3 72.1,155.7 72.4,155.7 96.2,131 "/>
<path class="st0" d="M254.2,233.4v-97.6c0-31.6-15.8-54.5-50.3-54.5c-34.2,0-50,22.9-50,54.5v97.6c0,31.2,15.8,54.5,50,54.5
	C238.5,287.9,254.2,264.7,254.2,233.4 M187.9,238.8V130.4c0-12.2,4.5-20.8,16.1-20.8c11.9,0,16.4,8.6,16.4,20.8v108.4
	c0,12.2-4.5,20.8-16.4,20.8C192.3,259.6,187.9,251,187.9,238.8"/>
<g>
	<g>
		<path class="st0" d="M592.3,657.5H407.7c-1.2,0.1-2.1,1.1-2,2.2v55.5c-0.1,1.2,0.8,2.2,2,2.2h184.6c1.2-0.1,2.1-1.1,2-2.2v-55.5
			C594.4,658.6,593.5,657.6,592.3,657.5"/>
		<path class="st0" d="M592.3,539.5H407.7c-1.2,0.1-2.1,1.1-2,2.2v55.5c-0.1,1.2,0.8,2.2,2,2.2h184.6c1.2-0.1,2.1-1.1,2-2.2v-55.5
			C594.4,540.6,593.5,539.6,592.3,539.5"/>
	</g>
	<g>
		<path class="st0" d="M589.7,455.6L501.1,367c-0.6-0.6-1.6-0.6-2.2,0l-88.6,88.6c-0.6,0.6-0.6,1.6,0,2.2c0.3,0.3,0.7,0.4,1.1,0.4
			h177.2c0.8,0,1.5-0.7,1.5-1.5C590.1,456.3,590,455.9,589.7,455.6z"/>
		<path class="st0" d="M672.9,718.2l88.6-88.6c0.6-0.6,0.6-1.6,0-2.2c0,0,0,0,0,0l-88.6-88.6c-0.6-0.6-1.6-0.6-2.2,0
			c-0.3,0.3-0.4,0.7-0.4,1.1v177.2c0,0.8,0.7,1.5,1.5,1.5C672.2,718.7,672.6,718.5,672.9,718.2z"/>
		<path class="st0" d="M410.3,801.4l88.6,88.6c0.6,0.6,1.6,0.6,2.1,0c0,0,0,0,0,0l88.6-88.6c0.6-0.6,0.6-1.6,0-2.2
			c-0.3-0.3-0.7-0.5-1.1-0.5H411.4c-0.8,0-1.5,0.6-1.6,1.5C409.8,800.7,410,801.1,410.3,801.4z"/>
		<path class="st0" d="M327.1,538.8l-88.6,88.6c-0.6,0.6-0.6,1.6,0,2.2c0,0,0,0,0,0l88.6,88.6c0.6,0.6,1.6,0.6,2.2,0
			c0.3-0.3,0.4-0.7,0.4-1.1V539.9c0-0.8-0.7-1.5-1.5-1.5C327.8,538.4,327.4,538.5,327.1,538.8z"/>
	</g>
</g>
</svg>
