<?xml version="1.0" encoding="utf-8"?>
<!-- Generator: Adobe Illustrator 22.0.1, SVG Export Plug-In . SVG Version: 6.00 Build 0)  -->
<svg version="1.1" id="Layer_1" xmlns="http://www.w3.org/2000/svg" xmlns:xlink="http://www.w3.org/1999/xlink" x="0px" y="0px"
	 viewBox="0 0 1000 1000" style="enable-background:new 0 0 1000 1000;" xml:space="preserve">
<style type="text/css">
	.st0{fill:#FFFFFF;}
</style>
<title>Artboard 1</title>
<rect y="0" width="1000" height="1000"/>
<path class="st0" d="M292.5,166.4c14,0,20-8,20-19.2v-4c0-9-3.6-13.6-11.1-21.2l-8.8-8.7c-4-3.9-6.5-6.5-6.5-11.1v-1.7
	c0-4.6,2.6-6.8,6.5-6.8c4.3,0,6.5,2.3,6.5,7v7.1h12.5v-6.6c0-11.8-5.4-18.6-19.2-18.6c-13.4,0-19.3,7.8-19.3,18v2.8
	c0,9.4,3.6,14.1,11.5,21.8l8.1,8.1c4.2,4,6.1,6.9,6.1,11.6v3.1c0,4.4-1.9,7.2-6.3,7.2c-4.7,0-6.8-2.6-6.8-7.2v-11.2h-12.8v11
	C273.2,158.6,278.6,166.5,292.5,166.4"/>
<path class="st0" d="M358.5,145.5V83.7h-12.7v63.2c0,4.8-1.9,8.1-6.8,8.1s-6.7-3.2-6.7-8.1V83.7h-13.8v61.9c0,12.7,6,20.9,20.5,20.9
	C353,166.4,358.5,158.2,358.5,145.5"/>
<path class="st0" d="M404.9,147.2v-4c0-9-3.6-13.6-11.1-21.2l-8.8-8.7c-4-3.8-6.5-6.5-6.5-11.1v-1.7c0-4.6,2.7-6.8,6.5-6.8
	c4.3,0,6.5,2.3,6.5,7v7.1H404v-6.6c0-11.8-5.4-18.6-19.2-18.6c-13.4,0-19.3,7.8-19.3,18v2.8c0,9.4,3.6,14.1,11.5,21.8l8.1,8.1
	c4.2,4,6.1,6.9,6.1,11.6v3.1c0,4.3-1.9,7.2-6.3,7.2c-4.7,0-6.8-2.7-6.8-7.2v-11.3h-12.7v11c0,10.7,5.4,18.6,19.4,18.6
	S404.9,158.4,404.9,147.2"/>
<polygon class="st0" points="444.7,83.7 408.2,83.7 408.2,94.9 419.5,94.9 419.5,165.4 433.4,165.4 433.4,94.9 444.7,94.9 "/>
<path class="st0" d="M473.2,83.7h-15.7l-15.4,81.8h13l2.4-14.9h14.6l2.5,14.9h14.1L473.2,83.7z M459.4,139.5l5.4-32.8h0.1l5.4,32.8
	H459.4z"/>
<rect x="494.3" y="83.7" class="st0" width="13.7" height="81.8"/>
<polygon class="st0" points="555.7,165.4 555.7,83.7 544.2,83.7 544.2,130.6 529.4,83.7 515.9,83.7 515.9,165.4 527.5,165.4 
	527.5,114.1 543.6,165.4 "/>
<path class="st0" d="M575.6,150.5h14.6l2.5,15h14.1l-15.5-81.8h-15.7l-15.4,81.8h13L575.6,150.5z M582.8,106.7h0.1l5.4,32.8h-11
	L582.8,106.7z"/>
<path class="st0" d="M649.4,110v-8.3c0-11.6-4.6-18-18.3-18h-19.9v81.8h21.3c13.8,0,18.9-6.4,18.9-18v-10.8
	c0-7.5-3.4-12.1-10.2-13.6C646.9,121.2,649.4,116.8,649.4,110 M625,94.9h4.7c4.6,0,6.6,2.2,6.6,6.6v10c0,4.3-2.1,6.6-6.5,6.6H625
	V94.9z M637.8,147.6c0,4.3-2.2,6.6-6.7,6.6h-6v-25.6h5.9c4.8,0,6.9,2.3,6.9,6.6L637.8,147.6z"/>
<polygon class="st0" points="670.9,83.7 657.1,83.7 657.1,165.4 687.2,165.4 687.2,154.2 670.9,154.2 "/>
<polygon class="st0" points="725.1,94.9 725.1,83.7 692.3,83.7 692.3,165.4 725.1,165.4 725.1,154.2 706,154.2 706,129.4 
	719.7,129.4 719.7,118.3 706,118.3 706,94.9 "/>
<path class="st0" d="M768.7,166.4c14.6,0,19.4-8.7,19.4-20.4v-14.1h-12.5V147c0,4.8-1.7,7.9-6.6,7.9s-7-3.5-7-8.4v-43.9
	c0-5,2-8.4,7-8.4s6.6,2.9,6.6,8v10.7h12.5v-9.7c0-12.1-4.2-20.5-19.4-20.5c-14.5,0-20.5,9.3-20.5,22.1v39.6
	C748.2,157,754.2,166.4,768.7,166.4"/>
<rect x="794.6" y="83.7" class="st0" width="13.7" height="81.8"/>
<polygon class="st0" points="838.8,165.4 838.8,94.9 850.1,94.9 850.1,83.7 813.5,83.7 813.5,94.9 824.9,94.9 824.9,165.4 "/>
<rect x="855.4" y="83.7" class="st0" width="13.7" height="81.8"/>
<polygon class="st0" points="876.2,165.4 909,165.4 909,154.2 890,154.2 890,129.4 903.6,129.4 903.6,118.3 890,118.3 890,94.9 
	909,94.9 909,83.7 876.2,83.7 "/>
<path class="st0" d="M932.3,113.3c-4-3.9-6.5-6.5-6.5-11.1v-1.7c0-4.6,2.6-6.8,6.5-6.8c4.4,0,6.5,2.3,6.5,7v7.1h12.5v-6.6
	c0-11.8-5.4-18.6-19.2-18.6c-13.4,0-19.3,7.8-19.3,18v2.8c0,9.4,3.6,14.1,11.4,21.8l8.1,8.1c4.2,4,6.2,6.9,6.2,11.6v3.1
	c0,4.4-1.9,7.2-6.3,7.2c-4.7,0-6.8-2.6-6.8-7.2v-11.2h-12.8v11c0,10.7,5.4,18.6,19.4,18.6s20-8,20-19.2v-4c0-9-3.7-13.6-11.1-21.2
	L932.3,113.3z"/>
<path class="st0" d="M288.8,203.7l-15.4,81.8h13l2.4-15h14.6l2.5,15H320l-15.5-81.8H288.8z M290.6,259.5l5.4-32.8h0.1l5.4,32.8
	H290.6z"/>
<polygon class="st0" points="355.2,250.6 340.4,203.7 326.9,203.7 326.9,285.4 338.5,285.4 338.5,234.1 354.6,285.4 366.7,285.4 
	366.7,203.7 355.2,203.7 "/>
<path class="st0" d="M396.9,203.7h-21.2v81.8h21.2c14.7,0,19.9-9.4,19.9-22v-37.9C416.8,213,411.6,203.6,396.9,203.7 M403.1,265.9
	c0,4.9-2.2,8.3-7.8,8.3h-5.8v-59.3h5.8c5.7,0,7.8,3.4,7.8,8.2V265.9z"/>
<path class="st0" d="M460.2,202.7c-14.5,0-20.5,9.3-20.5,22.1v39.6c0,12.6,6,22.1,20.5,22.1s19.4-8.7,19.4-20.4v-14.1h-12.5V267
	c0,4.8-1.7,8-6.6,8s-7-3.5-7-8.4v-43.9c0-4.9,2.1-8.4,7-8.4s6.6,2.9,6.6,8v10.7h12.5v-9.6C479.6,211.2,475.4,202.8,460.2,202.7"/>
<path class="st0" d="M509.1,202.7c-14.5,0-20.7,9.3-20.7,22.1v39.6c0,12.6,6.3,22.1,20.7,22.1s20.8-9.4,20.8-22.1v-39.6
	C529.9,212,523.7,202.7,509.1,202.7 M516.2,266.5c0,5-2.2,8.4-7.1,8.4s-7-3.5-7-8.4v-43.9c0-4.9,2.1-8.4,7-8.4s7.1,3.5,7.1,8.4
	V266.5z"/>
<polygon class="st0" points="564,249.7 563.9,249.7 555,203.7 539,203.7 539,285.4 550.3,285.4 550.3,232.4 550.5,232.4 
	560.8,285.4 567.2,285.4 576.5,232.4 576.8,232.4 576.8,285.4 589.3,285.4 589.3,203.7 572,203.7 "/>
<polygon class="st0" points="623.5,249.7 623.4,249.7 614.4,203.7 598.4,203.7 598.4,285.4 609.7,285.4 609.7,232.4 610,232.4 
	620.2,285.4 626.6,285.4 635.9,232.4 636.2,232.4 636.2,285.4 648.8,285.4 648.8,203.7 631.4,203.7 "/>
<path class="st0" d="M685.1,266.9c0,4.8-1.9,8.1-6.7,8.1s-6.8-3.3-6.8-8.1v-63.2h-13.8v61.8c0,12.7,6,20.9,20.5,20.9
	c14,0,19.4-8.2,19.4-20.9v-61.8h-12.7V266.9z"/>
<polygon class="st0" points="735.1,250.6 720.3,203.7 706.8,203.7 706.8,285.4 718.4,285.4 718.4,234.1 734.5,285.4 746.6,285.4 
	746.6,203.7 735.1,203.7 "/>
<polygon class="st0" points="71.7,120.4 71.7,155.8 71.9,155.8 95.7,131.1 96,131.1 96,285.4 129.9,285.4 129.9,83.8 102.9,83.8 "/>
<polygon class="st0" points="149,120.4 149,155.8 149.3,155.8 173.1,131.1 173.4,131.1 173.4,285.4 207.3,285.4 207.3,83.8 
	180.2,83.8 "/>
<rect x="755.6" y="203.7" class="st0" width="13.7" height="81.8"/>
<polygon class="st0" points="776.9,214.9 788.2,214.9 788.2,285.4 802,285.4 802,214.9 813.4,214.9 813.4,203.7 776.9,203.7 "/>
<rect x="821" y="203.7" class="st0" width="13.8" height="81.8"/>
<polygon class="st0" points="843.9,285.4 876.7,285.4 876.7,274.2 857.6,274.2 857.6,249.4 871.3,249.4 871.3,238.3 857.6,238.3 
	857.6,214.9 876.7,214.9 876.7,203.7 843.9,203.7 "/>
<path class="st0" d="M903.3,233.3c-4-3.9-6.5-6.5-6.5-11.1v-1.7c0-4.6,2.7-6.8,6.5-6.8c4.3,0,6.5,2.3,6.5,7v7.1h12.5v-6.6
	c0-11.8-5.4-18.6-19.2-18.6c-13.4,0-19.3,7.8-19.3,18v2.8c0,9.4,3.6,14.1,11.5,21.8l8.1,8.1c4.2,4,6.1,6.9,6.1,11.6v3.1
	c0,4.3-1.9,7.2-6.3,7.2c-4.7,0-6.8-2.6-6.8-7.2v-11.3h-12.8v11c0,10.7,5.4,18.6,19.4,18.6s20-8,20-19.2v-4c0-9-3.6-13.6-11.1-21.2
	L903.3,233.3z"/>
<g>
	<g>
		<path class="st0" d="M165,761.3h150.4c2,0,3.7-1.6,3.7-3.6c0-0.9-0.3-1.8-1-2.5l-0.2-0.2l-74.8-96.8l-0.7-0.8
			c-0.7-0.8-1.7-1.2-2.7-1.2c-0.9,0-1.8,0.4-2.4,1l-0.4,0.5l-0.7,0.8l-73,95.8l-1.1,1.4c-0.4,0.6-0.6,1.3-0.6,2.1
			C161.3,759.6,162.9,761.3,165,761.3C165,761.3,165,761.3,165,761.3z"/>
		<path class="st0" d="M314.9,775H164.2c-2,0-3.7,1.7-3.7,3.7l0,0v117.9c0,2,1.6,3.7,3.7,3.7c0,0,0,0,0,0h48.5v-74.2
			c0-2,1.6-3.7,3.7-3.7c0,0,0,0,0,0h45c2,0,3.7,1.6,3.7,3.7c0,0,0,0,0,0v74.2h49.8c2,0,3.7-1.7,3.7-3.7v0V778.7
			C318.6,776.6,316.9,775,314.9,775z"/>
	</g>
	<path class="st0" d="M835.8,744.1H686.7c-2,0-3.6,1.5-3.6,3.5c0,0,0,0,0,0v150.6c0,2,1.7,3.6,3.7,3.5h149.2c2,0,3.6-1.6,3.7-3.5
		c0,0,0,0,0,0V747.6C839.5,745.6,837.8,744.1,835.8,744.1C835.9,744.1,835.8,744.1,835.8,744.1 M754.2,842.4c0,2-1.7,3.6-3.6,3.6
		c0,0,0,0,0,0H706c-2,0-3.6-1.6-3.7-3.6c0,0,0,0,0,0v-27.1c0-2,1.7-3.6,3.6-3.6c0,0,0,0,0,0h44.6c2,0,3.6,1.6,3.6,3.5c0,0,0,0,0,0
		V842.4z M754.2,792.4c0,2-1.7,3.6-3.6,3.6c0,0,0,0,0,0H706c-2,0-3.6-1.6-3.7-3.6c0,0,0,0,0,0v-27.1c0-2,1.7-3.6,3.7-3.5h44.6
		c2,0,3.6,1.6,3.6,3.5c0,0,0,0,0,0V792.4z M822.3,842.4c0,2-1.7,3.6-3.6,3.6c0,0,0,0,0,0h-44.6c-2,0-3.6-1.6-3.7-3.5c0,0,0,0,0,0
		v-27.1c0-2,1.7-3.6,3.6-3.6c0,0,0,0,0,0h44.5c2,0,3.6,1.6,3.7,3.5c0,0,0,0,0,0L822.3,842.4z M822.3,792.4c0,2-1.7,3.6-3.6,3.6
		c0,0,0,0,0,0h-44.6c-2,0-3.6-1.6-3.7-3.5c0,0,0,0,0,0v-27.1c0-2,1.7-3.6,3.7-3.5c0,0,0,0,0,0h44.5c2,0,3.6,1.6,3.7,3.5c0,0,0,0,0,0
		L822.3,792.4z"/>
	<path class="st0" d="M489.1,394.4h-146c-2,0-3.6,1.6-3.6,3.6l0,0v498.9c0,2,1.6,3.6,3.6,3.6h146c2,0,3.6-1.6,3.6-3.6V398
		C492.6,396,491,394.4,489.1,394.4 M402.2,843.7c0,1.1-0.9,1.9-1.9,1.9h-33.4c-1.1,0-1.9-0.9-1.9-1.9v-37.2c0-1.1,0.9-1.9,1.9-1.9
		c0,0,0,0,0,0h33.4c1.1,0,1.9,0.8,1.9,1.9c0,0,0,0,0,0V843.7z M402.2,758.1c0,1.1-0.9,1.9-1.9,1.9h0h-33.4c-1,0-1.9-0.9-1.9-1.9
		v-37.2c0-1.1,0.8-1.9,1.9-1.9c0,0,0,0,0,0h33.4c1.1,0,1.9,0.8,1.9,1.9c0,0,0,0,0,0V758.1z M402.2,672.6c0,1.1-0.9,1.9-1.9,1.9
		h-33.4c-1.1,0-1.9-0.9-1.9-1.9v-37.3c0-1.1,0.9-1.9,1.9-1.9h33.4c1.1,0,1.9,0.9,1.9,1.9V672.6z M402.2,587c0,1.1-0.9,1.9-1.9,1.9
		h-33.4c-1.1,0-1.9-0.9-1.9-1.9v-37.2c0-1,0.9-1.9,1.9-1.9c0,0,0,0,0,0h33.4c1,0,1.9,0.8,1.9,1.9c0,0,0,0,0,0V587z M402.2,501.5
		c0,1.1-0.9,1.9-1.9,1.9h-33.4c-1.1,0-1.9-0.9-1.9-1.9v-37.3c0-1.1,0.9-1.9,1.9-1.9h0h33.4c1.1,0,1.9,0.9,1.9,1.9v0V501.5z
		 M467.8,843.7c0,1.1-0.9,1.9-1.9,1.9c0,0,0,0,0,0h-33.4c-1.1,0-1.9-0.8-1.9-1.9c0,0,0,0,0,0v-37.2c0-1.1,0.9-1.9,1.9-1.9
		c0,0,0,0,0,0h33.4c1.1,0,1.9,0.8,1.9,1.9c0,0,0,0,0,0L467.8,843.7z M467.8,758.1c0,1.1-0.8,1.9-1.9,1.9c0,0,0,0,0,0h-33.4
		c-1,0-1.9-0.8-1.9-1.9c0,0,0,0,0,0v-37.2c0-1,0.8-1.9,1.9-1.9c0,0,0,0,0,0h33.4c1.1,0,1.9,0.8,1.9,1.9c0,0,0,0,0,0L467.8,758.1z
		 M467.8,672.6c0,1.1-0.9,1.9-1.9,1.9c0,0,0,0,0,0h-33.4c-1.1,0-1.9-0.8-1.9-1.9c0,0,0,0,0,0v-37.3c0-1.1,0.9-1.9,1.9-1.9
		c0,0,0,0,0,0h33.4c1.1,0,1.9,0.8,1.9,1.9l0,0L467.8,672.6z M467.8,587c0,1.1-0.9,1.9-1.9,1.9c0,0,0,0,0,0h-33.4
		c-1.1,0-1.9-0.8-1.9-1.9c0,0,0,0,0,0v-37.3c0-1,0.9-1.9,1.9-1.9c0,0,0,0,0,0h33.4c1,0,1.9,0.8,1.9,1.9c0,0,0,0,0,0L467.8,587z
		 M467.8,501.5c0,1.1-0.9,1.9-1.9,1.9c0,0,0,0,0,0h-33.4c-1.1,0-1.9-0.8-1.9-1.9c0,0,0,0,0,0v-37.3c0-1.1,0.8-1.9,1.9-1.9
		c0,0,0,0,0,0h33.4c1.1,0,1.9,0.8,1.9,1.9c0,0,0,0,0,0L467.8,501.5z"/>
	<path class="st0" d="M839.3,728.9c0,1.7-1.3,3-3,3H686.2c-1.7,0-3-1.3-3-3v-30c0-1.7,1.3-3,3-3h150.2c1.7,0,3,1.3,3,3V728.9z"/>
	<path class="st0" d="M665.4,488.6c-0.5-1.6-2-2.8-3.7-2.8c-0.7,0-1.5,0.3-2.1,0.7l-0.3,0.2l-1.2,1.6l-143.5,182l-0.7,0.9
		c-0.8,0.7-1.2,1.8-1.2,2.8v223.6c0,2,1.6,3.6,3.6,3.6c0,0,0,0,0,0h145.8c2,0,3.6-1.6,3.6-3.5c0,0,0,0,0,0V490.1
		C665.7,489.6,665.6,489.1,665.4,488.6z M605,587.5l1-1.3c9.8-12.6,26.4-33,34.4-42.9l1.1-1.3c0.8-1,2-1.5,3.2-1.5
		c2,0,3.6,1.4,4,3.3V590c0,2.2-1.8,4-4,4.1c-0.1,0-0.1,0-0.2,0s-0.1,0-0.2,0h-35.8c-0.1,0-0.1,0-0.2,0s-0.1,0-0.2,0
		c-2.2-0.1-4-1.9-4-4.1C604.2,589.1,604.5,588.2,605,587.5z M582.3,842.4c0,2-1.6,3.6-3.5,3.6c0,0,0,0,0,0h-43.5
		c-2,0-3.6-1.6-3.6-3.5c0,0,0,0,0,0v-27.2c0-2,1.6-3.6,3.6-3.6c0,0,0,0,0,0h43.5c2,0,3.6,1.6,3.6,3.5c0,0,0,0,0,0L582.3,842.4z
		 M582.3,792.1c0,2-1.6,3.6-3.5,3.6c0,0,0,0,0,0h-43.5c-2,0-3.6-1.6-3.6-3.5c0,0,0,0,0,0v-27.2c0-2,1.6-3.6,3.5-3.6c0,0,0,0,0,0
		h43.5c2,0,3.6,1.6,3.6,3.5c0,0,0,0,0,0L582.3,792.1z M582.3,741.8c0,2-1.6,3.6-3.6,3.6c0,0,0,0,0,0h-43.5c-2,0-3.6-1.6-3.6-3.5
		c0,0,0,0,0,0v-27.2c0-2,1.6-3.6,3.5-3.6c0,0,0,0,0,0h43.5c2,0,3.6,1.6,3.6,3.5c0,0,0,0,0,0L582.3,741.8z M582.4,631.5v60
		c0,2-1.6,3.6-3.6,3.6h-43.5c-2,0-3.6-1.6-3.6-3.5c0,0,0,0,0,0v-7.5c0-0.5,0.1-0.9,0.3-1.3c0.1-0.1,0.1-0.3,0.2-0.4
		c0.1-0.2,0.2-0.3,0.3-0.5c0.1-0.2,0.3-0.4,0.4-0.6c5.6-8,30.7-38.9,41.2-51.8l1.1-1.3c0.8-1,2-1.5,3.2-1.5c2,0,3.6,1.4,4,3.3
		L582.4,631.5z M648.8,842.4c0,2-1.6,3.6-3.6,3.6l0,0h-43.5c-2,0-3.6-1.6-3.6-3.5c0,0,0,0,0,0v-27.2c0-2,1.6-3.6,3.6-3.6
		c0,0,0,0,0,0h43.5c2,0,3.6,1.6,3.6,3.6V842.4z M648.8,792.1c0,2-1.6,3.6-3.6,3.6l0,0h-43.5c-2,0-3.6-1.6-3.6-3.5c0,0,0,0,0,0v-27.2
		c0-2,1.6-3.6,3.5-3.6c0,0,0,0,0,0h43.5c2,0,3.6,1.6,3.6,3.6l0,0V792.1z M648.8,741.8c0,2-1.6,3.6-3.6,3.6h-43.5
		c-2,0-3.6-1.6-3.6-3.5c0,0,0,0,0,0v-27.2c0-2,1.6-3.6,3.6-3.6c0,0,0,0,0,0h43.5c2,0,3.6,1.6,3.6,3.6l0,0V741.8z M648.8,691.4
		c0,2-1.6,3.6-3.6,3.6h-43.5c-2,0-3.6-1.6-3.6-3.5c0,0,0,0,0,0v-27.2c0-2,1.6-3.6,3.6-3.6c0,0,0,0,0,0h43.5c2,0,3.6,1.6,3.6,3.6l0,0
		V691.4z M648.8,641.1c0,2-1.6,3.6-3.6,3.6l0,0h-43.5c-2,0-3.6-1.6-3.6-3.5c0,0,0,0,0,0v-27.2c0-2,1.6-3.6,3.6-3.6c0,0,0,0,0,0h43.5
		c2,0,3.6,1.6,3.6,3.6c0,0,0,0,0,0V641.1z"/>
</g>
</svg>
