<?xml version="1.0" encoding="utf-8"?>
<!-- Generator: Adobe Illustrator 22.0.1, SVG Export Plug-In . SVG Version: 6.00 Build 0)  -->
<svg version="1.1" id="Layer_1" xmlns="http://www.w3.org/2000/svg" xmlns:xlink="http://www.w3.org/1999/xlink" x="0px" y="0px"
	 viewBox="0 0 1000 1000" style="enable-background:new 0 0 1000 1000;" xml:space="preserve">
<style type="text/css">
	.st0{fill:#FFFFFF;}
</style>
<title>Artboard 1</title>
<rect y="0" width="1000" height="1000"/>
<polygon class="st0" points="126.2,83.9 126.2,285.4 92.3,285.4 92.3,131.1 92,131.1 68.3,155.8 67.9,155.8 67.9,120.4 99.2,83.9 
	"/>
<path class="st0" d="M238,127.6v17.5c0,16.9-9.2,28.2-23.2,32.7c16.9,3.9,25,15.8,25,34.2v29.7c0,27.9-14.9,46.1-49.1,46.1
	c-34.5,0-46.7-19.6-46.7-50.2v-26.4H175V240c0,11.9,4.1,19.6,15.8,19.6c10.4,0,15.1-7.4,15.1-18.1v-33.3c0-10.7-4.8-16.4-16.6-16.4
	H175v-25.9h12.8c11,0,18.1-5.7,18.1-16.4v-21.7c0-11-3.9-18.1-14.6-18.1s-14.6,7.1-14.6,19.6v20.5h-31V132
	c0-29.7,12.2-50.5,47.3-50.5C224.3,81.5,238,99,238,127.6"/>
<path class="st0" d="M867.1,626C840.7,589.1,721.6,441.5,500,441.5S159.3,589.1,132.9,626c-1.1,1.6-2.1,3-2.9,4.1
	c0.8,1.2,1.8,2.5,2.9,4.2c26.4,37,145.5,184.5,367.1,184.5s340.7-147.6,367.1-184.5c1.2-1.6,2.1-3,2.8-4.2
	C869.2,629,868.2,627.6,867.1,626 M376.5,534.8c2-2.9,8.6-11.3,9.4-12.3c1.7-2.2,5.1-2.7,7.5-3.1s5.5,0.9,5.9,2.6s-0.9,8.6-2.1,9.8
	c-3.2,3.4-11.7,8.1-16.4,7.4C377.2,538.7,375.8,535.9,376.5,534.8 M368.5,550.6c0.4-0.4,0.7-0.8,0.8-0.9c2.8-3.2,8.3-3.9,12.2-4.5
	s9,1.3,9.6,3.8s-9.6,7.2-11.5,9c-5.3,4.9-13.7,14.9-18.5,16c-1.3,0.3-2.8,0.2-4-0.4C360.2,565.6,364,557.9,368.5,550.6 M451.4,720.7
	c-3,11.8-6.5,16-9.5,19.8s-14,8.6-21,8s-8-19.2-8-28.9c0-3.3-4.7,6.5-7.2-13.5c-1.6-12.8-9.8,1.3-10.4-7.2s-4.7-6.8-9-12.2
	s-9.7,0.5-15.7,3.2s-3.5,4.1-12,1.4c-0.2-0.1-0.3-0.1-0.5-0.2c-8.1-19-12.2-39.4-12.2-60.1c0-5.2,0.3-10.3,0.8-15.4
	c0.3-0.5,0.6-1,1-1.4c8.2-9.7,8-11.9,8-11.9l9-3.1c0,0,14.4,2.2,25.3,6.3c9,3.3,23,10.9,31.2,7.6c5.9-2.4,10.6-5.7,10-10.6
	c-0.7-6.2-5.5-7.7-11.4-3.5c-2.2,1.5-6.8-9.3-10.5-8.8s4.5,12.8,1.4,13.3s-9.3-12.7-10.4-14.9s-5.9-7.5-10.2-3.4
	c-9.1,8.7-23.9,8.1-26.9,10.3c-9,6.8-11.4-2.2-11.2-7.7c0.4-1.2,0.7-2.5,1.1-3.8c3-3.2,13.5-4.3,17.2-1.9c4,2.7,6.9-0.7,8.4-2.3
	s1-4.2,0-6.3s2-3.7,4.1-4.3s9-5.4,11.7-7s17-3.3,23.4-0.1c5.2,2.8,11.7,1.5,15.4-3.1c3.1-3.7,6.9-6.9,11.2-9.3
	c2.2-1-5.5-8.3-11.9-0.4s-9.6,8.6-12.6,8.6s-20.8-4.4-23-10.1s5.6-9.8,12.1-13s24.6-3.1,29.2-4.1c9.4-2,21.3-6.8,27.3-2.7
	s-25.1,11.1-14.9,16.7c3.6,2,20.1-9.5,25.8-12.4c13.3-6.8-12.9-9.1-9.5-23c3.8-15.7-32.1-9.6-50-8.3c71.8-45.9,167.2-25,213.1,46.8
	c9.3,14.5,16,30.4,20.1,47.1c0.1,2.4-0.2,4.8-0.8,7.2c-1.4,5.6-12,10.3-18.1,1.4c-1.6-2.3-8.2-8.5-8,2.2s10.4,11.8,0.5,18.2
	s-11.7,4.9-16.2,6.5s-9,12.6-7.9,18.5s15.2,22,4.7,21.3c-2.5-0.2-20.9-12.8-23.9-20.9c-3.2-8.5-6.7-16.9-9.2-23.3s-9-8-14.5-4.3
	s1.5,7.5-2.4,15.5s-6.8,15.2-12.5,8.6c-15.1-17.3-37-8.8-40.4-28c-1.9-10.4-10.8-9.4-18.3-15.3s-11.7-9-13-4.8
	c-1.1,3.7,23.6,23.3,25.4,28.3c2.6,7.5-7.4,14-14.7,15.8s-10.5-4.1-17.7-11.6s-10.3-12.8-10.8-6.9c-0.7,8.5,6.8,21,14.1,25.6
	c6.2,4,13.2,5.7,11.2,12.2s0,2.8-7,9.7s-8.3,9.2-7.8,18.8s-2,10.2-3.5,18.2S454.4,708.9,451.4,720.7 M617,659.1
	c5.2-0.4,13,6.8,9.9,9.5s-10.8,1.7-14.7-1.3S614.7,659.3,617,659.1 M610.4,654.4c-1.7-0.6-3.1-2.2-4.4-6s1.9-6,5-4.4
	s7.3,6.3,7.3,8.8S612.1,655,610.4,654.4 M542.3,654.1c-3,2.7-10.8,1.7-14.8-1.3s2.5-8,4.8-8.2C537.5,644.1,545.3,651.3,542.3,654.1
	 M479.3,684.7c-2.1,3.5-7.9,29.4-11.8,26.4s1.6-30.1,2.7-32.2C476.3,667.8,489.5,668.4,479.3,684.7 M500.3,785.3
	c-14.7,0-29.3-2.1-43.4-6.2c-2.3-1.8-3-4.9-1.9-7.5c4.8-12.5,19-17.3,30.2-18.4c25-2.4,57.9,16.2,63.1,13.2s15.8-16.8,31.3-16.2
	c10.6,0.4,10.5,2.2,14.1,3.5C567,774.3,534.1,785.4,500.3,785.3 M609.2,740.4c-1.7-0.4-3.3-1-4.8-1.8c-8.4-4.3-7.4,2.6-11.6,1
	s4.7-11.2-7.8-3s-9-1.3-14.5-15s6.2-29.4,16-33c13.4-4.8,21.7-5.8,28-7.4c18.5-4.6,22.5-15.6,25.8-8.9c0.6,1.2,1.2,2.5,1.8,3.6
	c1.5,3.2,2.3,6.6,2.3,10.1C636.7,706.4,624.6,725,609.2,740.4 M651.4,662.5c-4.1-1.1-21.5-25.1-7.8-40.8c2.3-2.6-4.6-10.2-2.7-10.4
	c7.5-0.6,11.5,4.1,13.5,10.8c0.2,3,0.3,5.9,0.3,9C654.6,641.7,653.6,652.2,651.4,662.5"/>
<path class="st0" d="M319.1,145.6v-40.4c0-13,6.1-22.5,20.9-22.5c15.5,0,19.8,8.6,19.8,20.9v9.8H347v-11c0-5.2-1.7-8.1-6.8-8.1
	s-7.1,3.6-7.1,8.6v44.8c0,5,2.1,8.6,7.1,8.6s6.8-3.2,6.8-8.1v-15.4h12.8v14.4c0,11.9-4.9,20.8-19.8,20.8S319.1,158.5,319.1,145.6z"
	/>
<path class="st0" d="M368.7,83.7h14v72h16.7v11.4h-30.7V83.7z"/>
<path class="st0" d="M407.1,83.7h14v83.4h-14V83.7z"/>
<path class="st0" d="M470.2,113h-0.4l-9.5,54.1h-6.5L443.4,113h-0.2v54.1h-11.6V83.7h16.4l9.1,47h0.1l8.1-47H483v83.4h-12.8V113z"/>
<path class="st0" d="M490,167.1l15.8-83.4h16l15.9,83.4h-14.4l-2.6-15.3h-14.9l-2.5,15.3H490z M507.6,140.7h11.2l-5.5-33.5h-0.1
	L507.6,140.7z"/>
<path class="st0" d="M535.8,83.7h37.3v11.4h-11.6v72h-14.2v-72h-11.6V83.7z"/>
<path class="st0" d="M580.8,83.7h33.5v11.4h-19.4V119h13.9v11.3h-13.9v25.4h19.5v11.4h-33.5V83.7z"/>
<path class="st0" d="M316.6,285.4l15.8-83.4h16l15.9,83.4h-14.4l-2.6-15.3h-14.9l-2.5,15.3L316.6,285.4z M334.2,259h11.2l-5.5-33.5
	h-0.1L334.2,259z"/>
<path class="st0" d="M368.3,263.9v-40.4c0-13.1,6.2-22.5,20.9-22.5c15.5,0,19.8,8.6,19.8,20.9v9.8h-12.8v-10.9
	c0-5.2-1.7-8.1-6.8-8.1s-7.1,3.6-7.1,8.6v44.8c0,5,2.1,8.6,7.1,8.6s6.8-3.2,6.8-8.1v-15.4h12.8v14.4c0,11.9-4.9,20.8-19.8,20.8
	S368.3,276.8,368.3,263.9z"/>
<path class="st0" d="M414,202h37.3v11.4h-11.6v72h-14.2v-72H414V202z"/>
<path class="st0" d="M459,202h14v83.4h-14V202z"/>
<path class="st0" d="M482.4,263.9v-40.4c0-13.1,6.4-22.5,21.2-22.5c14.8,0,21.3,9.5,21.3,22.5v40.4c0,12.9-6.4,22.5-21.3,22.5
	S482.4,276.8,482.4,263.9z M510.8,266.1v-44.8c0-5-2.2-8.6-7.3-8.6s-7.1,3.6-7.1,8.6v44.8c0,5,2.2,8.6,7.1,8.6
	S510.8,271.1,510.8,266.1z"/>
<path class="st0" d="M545.9,233v52.4H534V202h13.8l15.2,47.9V202h11.7v83.4h-12.3L545.9,233z"/>
</svg>
