<?xml version="1.0" encoding="utf-8"?>
<!-- Generator: Adobe Illustrator 22.0.1, SVG Export Plug-In . SVG Version: 6.00 Build 0)  -->
<svg version="1.1" id="Layer_1" xmlns="http://www.w3.org/2000/svg" xmlns:xlink="http://www.w3.org/1999/xlink" x="0px" y="0px"
	 viewBox="0 0 1000 1000" style="enable-background:new 0 0 1000 1000;" xml:space="preserve">
<style type="text/css">
	.st0{fill:#FFFFFF;}
</style>
<title>Artboard 1</title>
<rect x="0.3" y="0.1" width="999.8" height="999.8"/>
<polygon class="st0" points="77.2,120.6 77.2,156 77.5,156 101.3,131.3 101.6,131.3 101.6,285.6 135.5,285.6 135.5,84 108.5,84 "/>
<path class="st0" d="M254.1,237.1v-29.7c0-33-13.1-49.7-37.5-49.7c-14.3,0-22.9,6.5-27.9,16.4h-0.3v-43.4c0-12.2,3.9-20.8,16.1-20.8
	s15.8,7.1,15.8,19.6v13.4h30.9v-10.7c0-29.7-9.8-50.5-47.3-50.5c-35.7,0-49.1,22.9-49.1,54.4v98.1c0,31.2,13.7,53.8,49.4,53.8
	C240.2,288,254.2,268.4,254.1,237.1 M220.6,240.1c0,12.8-4.8,20.2-16.4,20.2c-11.3,0-15.8-7.7-15.8-20.2v-36.9
	c0.6-11.3,5.3-18.4,16.1-18.4c11.6,0,16.1,7.1,16.1,20.2V240.1z"/>
<g>
	<path class="st0" d="M646.1,491c0,0-8.4,11.2-6,22.1c2.4,10.9,14.9,17.4,14.9,17.4s8.4-11.2,6-22.1
		C658.6,497.5,646.1,491,646.1,491"/>
	<path class="st0" d="M632.4,554.8c0,0,8.4-11.2,6-22.1s-14.9-17.4-14.9-17.4s-8.4,11.2-6,22.1S632.4,554.8,632.4,554.8"/>
	<path class="st0" d="M667,542.9c0,0,8.9,9,19,8.1s17.6-11.3,17.6-11.3s-8.9-9-19-8.1S667,542.9,667,542.9"/>
	<path class="st0" d="M681.6,495c-8.2,8.4-7.1,23.1-7.1,23.1s14.5,1.3,22.8-7.1c8.2-8.3,7.1-23.1,7.1-23.1S689.8,486.7,681.6,495"/>
	<path class="st0" d="M663.4,576.1c10.1,1.2,19.6-7.5,19.6-7.5s-6.9-10.6-17-11.8s-19.6,7.5-19.6,7.5S653.3,574.9,663.4,576.1"/>
	<path class="st0" d="M672.4,751.2H597c-5.9,0-10.7,4.8-10.7,10.7c0,5.9,4.8,10.7,10.7,10.7h75.4c5.9,0,10.7-4.8,10.7-10.7
		C683.1,756,678.3,751.2,672.4,751.2"/>
	<path class="st0" d="M672.4,868.7H597c-5.9,0-10.7,4.8-10.7,10.7c0,5.9,4.8,10.7,10.7,10.7h75.4c5.9,0,10.7-4.8,10.7-10.7
		C683.1,873.5,678.3,868.7,672.4,868.7"/>
	<path class="st0" d="M333.5,725.3c-1.7-0.5-3.5-1-5.2-1.3C328.3,724,330.2,724.6,333.5,725.3"/>
	<path class="st0" d="M669.6,780h-69.8c-3.3,0-6.1,2.7-6.1,6.1v21.2l-45.6,5l-66.6-1.5V770c9-1.1,17.8-2.9,26.5-5.4
		c64.1-18.1,78.1-71.1,76.7-107.8c-1.4-37.3,10.6-51.8,27.7-58.3c4.6-1.7,9.4-3,14.2-3.8c0.2,9.2,2,19.8,6.2,32.5
		c1.5-0.1,3-0.2,4.5-0.4c-4.3-13-6.2-23.7-6.3-32.8c5-0.6,10.1-0.8,15.2-0.5c-5.1-3-10-6.4-14.5-10.3c2.9-17.7,13.4-28.5,24.3-39.7
		c6-6.1,12.1-12.4,17-19.9l-3.8-2.4c-4.6,7.1-10.6,13.3-16.4,19.2c-10.6,10.8-21.3,21.9-24.9,39.5c-3.9-3.5-7.5-7.2-11-11.1
		c-15.8-17.7-36.2-4.7-65.2,22.3s-65.5,27.9-101.2-8.5c-47-48.2-88.1-47.9-116.2-45.2c19.2,8.2,26,26.2,35.7,71.9
		c10.2,48,36,69.7,71.2,72.7c-19.6,6.9-20.6,18-46.8,36.1c-20.5,14.1-49.4,9.7-61,7c21.5,6.7,46.9,29.2,69.6,37
		c13.4,4.6,27.4,7.4,41.5,8.5v38.9L325.4,807v27.2l222.8-5.1l45.6,5v21.1c0,3.4,2.7,6.1,6.1,6.1h69.8c3.4,0,6.1-2.7,6.1-6.1v-69.2
		C675.7,782.7,673,780,669.6,780z M455.6,771.5c5,0.1,10-0.1,14.9-0.4v39.4l-14.9-0.3V771.5z"/>
	<path class="st0" d="M318.8,829.8c0,5.7-4,10.4-8.9,10.4h-5.4c-4.9,0-8.9-4.6-8.9-10.4V811c0-5.7,4-10.4,8.9-10.4h5.4
		c4.9,0,8.9,4.6,8.9,10.4V829.8z"/>
</g>
<g>
	<path class="st0" d="M319.4,83.9h20.4c13.9,0,18.9,6.9,18.9,18.3v17.2c0,11.4-5.1,18.4-18.9,18.4h-6.6v27.7h-13.7V83.9z
		 M333.1,95.1v32.2h5.1c4.7,0,6.8-2.3,6.8-6.8v-18.8c0-4.5-2-6.6-6.8-6.6H333.1z"/>
	<path class="st0" d="M364.7,83.9h32.8v11.2h-19.1v23.4h13.6v11.1h-13.6v24.8h19v11.2h-32.8V83.9z"/>
	<path class="st0" d="M402.8,165.6l15.4-81.7h15.7l15.5,81.7h-14.1l-2.5-15h-14.6l-2.4,15H402.8z M420,139.7h11l-5.4-32.8h-0.1
		L420,139.7z"/>
	<path class="st0" d="M454,144.5V105c0-12.8,6-22.1,20.5-22.1c15.2,0,19.4,8.4,19.4,20.5v9.6h-12.5v-10.7c0-5.1-1.7-8-6.6-8
		s-7,3.5-7,8.4v43.9c0,4.9,2,8.4,7,8.4s6.6-3.1,6.6-8v-15h12.5v14.1c0,11.7-4.8,20.4-19.4,20.4S454,157.2,454,144.5z"/>
	<path class="st0" d="M501.4,83.9h32.8v11.2h-19v23.4h13.6v11.1h-13.7v24.8h19v11.2h-32.7V83.9z"/>
	<path class="st0" d="M556.2,153.5l-7,18.4h-7.7l1.7-19.5h13L556.2,153.5z"/>
	<path class="st0" d="M614.4,83.9V147c0,11.8-5.2,19.5-18.9,19.5c-14.2,0-18.1-7.8-18.1-18.2v-16.2h13v16.5c0,4.1,1.5,6.5,5.1,6.5
		s5.2-2.4,5.2-6.6V83.9H614.4z"/>
	<path class="st0" d="M662.7,83.9v61.8c0,12.6-5.4,20.9-19.4,20.9c-14.5,0-20.5-8.2-20.5-20.9V83.9h13.7V147c0,4.8,1.9,8.1,6.8,8.1
		s6.8-3.2,6.8-8.1V83.9H662.7z"/>
	<path class="st0" d="M670.4,148v-11h12.8v11.2c0,4.6,2,7.2,6.8,7.2c4.3,0,6.3-2.9,6.3-7.2v-3.1c0-4.7-1.9-7.6-6.2-11.6l-8.1-8.1
		c-7.8-7.7-11.5-12.4-11.5-21.8v-2.8c0-10.1,5.9-18,19.3-18c13.7,0,19.2,6.8,19.2,18.6v6.6h-12.5v-7c0-4.7-2.2-7-6.5-7
		c-3.9,0-6.5,2.2-6.5,6.8v1.7c0,4.6,2.5,7.2,6.5,11.1l8.8,8.7c7.5,7.6,11.1,12.2,11.1,21.2v4c0,11.2-6,19.2-20,19.2
		S670.4,158.7,670.4,148z"/>
	<path class="st0" d="M716,83.9h36.5v11.2h-11.3v70.5h-13.9V95.1H716V83.9z"/>
	<path class="st0" d="M759.6,83.9h13.7v81.7h-13.7V83.9z"/>
	<path class="st0" d="M781.8,144.5V105c0-12.8,6-22.1,20.5-22.1c15.2,0,19.4,8.4,19.4,20.5v9.6h-12.5v-10.7c0-5.1-1.7-8-6.6-8
		s-7,3.5-7,8.4v43.9c0,4.9,2,8.4,7,8.4s6.6-3.1,6.6-8v-15h12.5v14.1c0,11.7-4.8,20.4-19.4,20.4S781.8,157.2,781.8,144.5z"/>
	<path class="st0" d="M829.8,83.9h32.8v11.2h-19v23.4h13.6v11.1h-13.6v24.8h19v11.2h-32.8V83.9z"/>
</g>
<g>
	<path class="st0" d="M317.7,285.5l15.4-81.7h15.7l15.5,81.7h-14.1l-2.5-14.9h-14.6l-2.4,14.9H317.7z M334.9,259.5h11l-5.4-32.8
		h-0.1L334.9,259.5z"/>
	<path class="st0" d="M382.8,234.1v51.3h-11.6v-81.7h13.5l14.8,46.9v-46.9H411v81.7h-12.1L382.8,234.1z"/>
	<path class="st0" d="M461.1,225.7v37.9c0,12.5-5.2,21.9-19.9,21.9H420v-81.7h21.2C456,203.7,461.1,213,461.1,225.7z M439.6,274.2
		c5.7,0,7.8-3.4,7.8-8.3v-42.8c0-4.8-2.2-8.2-7.8-8.2h-5.8v59.3H439.6z"/>
	<path class="st0" d="M483.3,267.9v-11h12.8v11.2c0,4.6,2,7.2,6.8,7.2c4.3,0,6.3-2.9,6.3-7.2V265c0-4.7-1.9-7.6-6.1-11.6l-8.1-8.1
		c-7.8-7.7-11.5-12.4-11.5-21.8v-2.8c0-10.1,5.9-18,19.3-18c13.7,0,19.2,6.8,19.2,18.6v6.7h-12.5v-7.1c0-4.7-2.2-7-6.5-7
		c-3.9,0-6.5,2.2-6.5,6.8v1.7c0,4.6,2.5,7.2,6.5,11.1l8.8,8.7c7.5,7.6,11.1,12.2,11.1,21.2v4c0,11.2-6,19.2-20,19.2
		S483.3,278.6,483.3,267.9z"/>
	<path class="st0" d="M527.8,203.7h36.5V215H553v70.5h-13.9V215h-11.3V203.7z"/>
	<path class="st0" d="M585.6,248v37.5h-13.7v-81.7h20c13.9,0,18.9,6.9,18.9,18.3v10.5c0,8.8-3.1,14-11,15.8l13.2,37.1h-14.5
		L585.6,248z M585.6,215v25.4h4.6c4.7,0,6.7-2.4,6.7-6.7v-12.1c0-4.5-2-6.6-6.7-6.6L585.6,215z"/>
	<path class="st0" d="M619.5,264.4v-39.5c0-12.8,6.3-22.1,20.7-22.1s20.8,9.3,20.8,22.1v39.5c0,12.7-6.3,22.1-20.8,22.1
		S619.5,277,619.5,264.4z M647.3,266.5v-43.9c0-4.9-2.2-8.4-7.1-8.4s-7,3.5-7,8.4v43.9c0,4.9,2.2,8.4,7,8.4S647.3,271.5,647.3,266.5
		z"/>
	<path class="st0" d="M681.7,234.1v51.3h-11.6v-81.7h13.5l14.8,46.9v-46.9h11.5v81.7h-12L681.7,234.1z"/>
	<path class="st0" d="M739.7,241.8h19.5v43.6h-9.9v-8.9c-1.8,6.1-5.7,9.9-13.1,9.9c-11.8,0-17.2-9.4-17.2-22.1v-39.5
		c0-12.8,6.2-22.1,20.6-22.1c15.2,0,19.7,8.4,19.7,20.5v7.2h-12.5v-8.3c0-5.1-1.9-8-6.9-8s-7.1,3.5-7.1,8.4v43.9
		c0,4.9,2,8.4,6.8,8.4c4.5,0,6.8-2.5,6.8-7.8v-14.4h-6.5V241.8z"/>
	<path class="st0" d="M320,324.9h13.7v81.7H320V324.9z"/>
	<path class="st0" d="M354.5,355.3v51.4h-11.6v-81.7h13.5l14.8,46.9v-46.9h11.5v81.7h-12.1L354.5,355.3z"/>
	<path class="st0" d="M391,389v-11h12.8v11.2c0,4.6,2,7.2,6.8,7.2c4.3,0,6.3-2.9,6.3-7.2v-3.1c0-4.7-1.9-7.6-6.1-11.6l-8.1-8.1
		c-7.8-7.7-11.5-12.4-11.5-21.8v-2.8c0-10.1,5.9-18,19.3-18c13.7,0,19.2,6.8,19.2,18.6v6.6H417v-7c0-4.7-2.2-7-6.5-7
		c-3.9,0-6.5,2.2-6.5,6.8v1.7c0,4.6,2.5,7.2,6.5,11.1l8.8,8.7c7.5,7.6,11.1,12.2,11.1,21.2v4c0,11.2-6,19.2-20,19.2
		S391,399.7,391,389z"/>
	<path class="st0" d="M435.5,324.9H472v11.2h-11.4v70.5h-13.9v-70.5h-11.3V324.9z"/>
	<path class="st0" d="M479.6,324.9h13.7v81.7h-13.7V324.9z"/>
	<path class="st0" d="M500.9,324.9h36.5v11.2h-11.3v70.5h-13.9v-70.5h-11.3V324.9z"/>
	<path class="st0" d="M584.9,324.9v61.8c0,12.6-5.4,20.9-19.4,20.9c-14.5,0-20.5-8.2-20.5-20.9v-61.8h13.7V388
		c0,4.8,1.9,8.1,6.8,8.1s6.8-3.2,6.8-8.1v-63.1H584.9z"/>
	<path class="st0" d="M592.4,324.9h36.5v11.2h-11.3v70.5h-13.9v-70.5h-11.3V324.9z"/>
	<path class="st0" d="M636.5,324.9h13.7v81.7h-13.7V324.9z"/>
	<path class="st0" d="M659.4,385.5V346c0-12.8,6.3-22.1,20.7-22.1S701,333.2,701,346v39.5c0,12.7-6.3,22.1-20.8,22.1
		S659.4,398.2,659.4,385.5z M687.2,387.7v-43.9c0-4.9-2.2-8.4-7.1-8.4s-7,3.5-7,8.4v43.9c0,4.9,2.2,8.4,7,8.4
		S687.2,392.6,687.2,387.7L687.2,387.7z"/>
	<path class="st0" d="M721.6,355.3v51.4H710v-81.7h13.5l14.8,46.9v-46.9h11.5v81.7h-12.1L721.6,355.3z"/>
	<path class="st0" d="M758.1,389v-11h12.8v11.2c0,4.6,2,7.2,6.8,7.2c4.3,0,6.3-2.9,6.3-7.2v-3.1c0-4.7-1.9-7.6-6.2-11.6l-8.1-8.1
		c-7.8-7.7-11.5-12.4-11.5-21.8v-2.8c0-10.1,5.9-18,19.3-18c13.7,0,19.2,6.8,19.2,18.6v6.6h-12.5v-7c0-4.7-2.2-7-6.5-7
		c-3.9,0-6.5,2.2-6.5,6.8v1.7c0,4.6,2.5,7.2,6.5,11.1l8.8,8.7c7.5,7.6,11.1,12.2,11.1,21.2v4c0,11.2-6,19.2-20,19.2
		S758.1,399.7,758.1,389z"/>
</g>
</svg>
