<?xml version="1.0" encoding="utf-8"?>
<!-- Generator: Adobe Illustrator 22.0.1, SVG Export Plug-In . SVG Version: 6.00 Build 0)  -->
<svg version="1.1" id="Layer_1" xmlns="http://www.w3.org/2000/svg" xmlns:xlink="http://www.w3.org/1999/xlink" x="0px" y="0px"
	 viewBox="0 0 1000 1000" style="enable-background:new 0 0 1000 1000;" xml:space="preserve">
<style type="text/css">
	.st0{fill:#FFFFFF;}
</style>
<title>Artboard 1</title>
<rect y="0" width="1000" height="1000"/>
<path class="st0" d="M319.1,83.7h20.4c13.9,0,18.9,6.9,18.9,18.3v17.2c0,11.5-5.1,18.5-18.9,18.5h-6.6v27.7h-13.8V83.7z M332.9,94.9
	v32.2h5c4.7,0,6.7-2.3,6.7-6.8v-18.8c0-4.4-2-6.6-6.7-6.6H332.9z"/>
<path class="st0" d="M360.1,165.5l15.4-81.8h15.7l15.5,81.8h-14.1l-2.5-15h-14.6l-2.4,15H360.1z M377.4,139.5h11l-5.4-32.8h-0.1
	L377.4,139.5z"/>
<path class="st0" d="M427.4,128v37.5h-13.7V83.7h20c13.9,0,18.9,6.9,18.9,18.3v10.5c0,8.8-3.1,14-11,15.8l13.1,37.1h-14.5L427.4,128
	z M427.4,94.9v25.4h4.6c4.7,0,6.8-2.4,6.8-6.8v-12.1c0-4.4-2-6.6-6.8-6.6L427.4,94.9z"/>
<polygon class="st0" points="457.5,83.7 494,83.7 494,94.9 482.6,94.9 482.6,165.5 468.8,165.5 468.8,94.9 457.5,94.9 "/>
<polygon class="st0" points="514.3,114.1 514.3,165.5 502.7,165.5 502.7,83.7 516.2,83.7 531,130.6 531,83.7 542.5,83.7 
	542.5,165.5 530.4,165.5 "/>
<polygon class="st0" points="553.8,83.7 586.5,83.7 586.5,94.9 567.5,94.9 567.5,118.3 581.1,118.3 581.1,129.4 567.5,129.4 
	567.5,154.2 586.5,154.2 586.5,165.5 553.8,165.5 "/>
<path class="st0" d="M608.8,128v37.5h-13.7V83.7h20c13.9,0,18.9,6.9,18.9,18.3v10.5c0,8.8-3.1,14-11,15.8l13.1,37.1h-14.4L608.8,128
	z M608.8,94.9v25.4h4.6c4.7,0,6.8-2.4,6.8-6.8v-12.1c0-4.4-2-6.6-6.8-6.6L608.8,94.9z"/>
<path class="st0" d="M640.9,147.8v-11h12.8V148c0,4.6,2,7.2,6.7,7.2c4.3,0,6.3-2.9,6.3-7.2V145c0-4.7-1.9-7.6-6.2-11.6l-8.1-8.1
	c-7.8-7.7-11.5-12.4-11.5-21.8v-2.8c0-10.1,5.9-18,19.3-18c13.7,0,19.2,6.8,19.2,18.6v6.6h-12.6v-7.1c0-4.7-2.2-7-6.5-7
	c-3.9,0-6.5,2.2-6.5,6.8v1.7c0,4.6,2.5,7.2,6.5,11.1l8.8,8.7c7.5,7.6,11.1,12.2,11.1,21.2v4c0,11.2-6,19.2-20,19.2
	S640.9,158.6,640.9,147.8"/>
<polygon class="st0" points="715.8,129.4 702.5,129.4 702.5,165.5 688.8,165.5 688.8,83.7 702.5,83.7 702.5,118.3 715.8,118.3 
	715.8,83.7 729.6,83.7 729.6,165.5 715.8,165.5 "/>
<rect x="738.7" y="83.7" class="st0" width="13.7" height="81.8"/>
<path class="st0" d="M761.6,83.7H782c13.9,0,18.9,6.9,18.9,18.3v17.2c0,11.5-5.1,18.5-18.9,18.5h-6.6v27.7h-13.8V83.7z M775.3,94.9
	v32.2h5c4.7,0,6.8-2.3,6.8-6.8v-18.8c0-4.4-2-6.6-6.8-6.6H775.3z"/>
<path class="st0" d="M806.2,147.8v-11H819V148c0,4.6,2,7.2,6.8,7.2c4.3,0,6.3-2.9,6.3-7.2V145c0-4.7-1.9-7.6-6.2-11.6l-8.1-8.1
	c-7.8-7.7-11.5-12.4-11.5-21.8v-2.8c0-10.1,5.9-18,19.3-18c13.8,0,19.2,6.8,19.2,18.6v6.6h-12.5v-7.1c0-4.7-2.2-7-6.5-7
	c-3.9,0-6.5,2.2-6.5,6.8v1.7c0,4.6,2.5,7.2,6.5,11.1l8.8,8.7c7.5,7.6,11.1,12.2,11.1,21.2v4c0,11.2-6,19.2-20,19.2
	S806.3,158.6,806.2,147.8"/>
<polygon class="st0" points="149.6,83.8 149.6,285.4 115.7,285.4 115.7,131.1 115.4,131.1 91.6,155.8 91.3,155.8 91.3,120.4 
	122.6,83.8 "/>
<polygon class="st0" points="165.1,83.8 250.2,83.8 250.2,115 205.8,285.4 172.2,285.4 217.4,111.5 165.1,111.5 "/>
<polygon class="st0" points="319.1,202.5 351.8,202.5 351.8,213.8 333.1,213.8 333.1,237.6 347,237.6 347,248.8 333.1,248.8 
	333.1,285.5 319.1,285.5 "/>
<path class="st0" d="M356.7,264v-40.1c0-13,6.4-22.4,21-22.4s21.3,9.4,21.3,22.4V264c0,12.9-6.4,22.4-21.2,22.4s-21-9.5-21-22.4
	 M385.1,266.2v-44.5c0-5-2.2-8.6-7.2-8.6s-7.1,3.6-7.1,8.6v44.6c0,5,2.2,8.6,7.1,8.6S385.1,271.3,385.1,266.2"/>
<path class="st0" d="M422,247.4v38.1h-14v-83h20.3c14.1,0,19.2,7,19.2,18.6v10.6c0,8.9-3.2,14.2-11.1,16l13.3,37.7h-14.7L422,247.4z
	 M422,213.8v25.8h4.6c4.8,0,6.9-2.4,6.9-6.9v-12.2c0-4.5-2.1-6.7-6.9-6.7L422,213.8z"/>
<polygon class="st0" points="469.6,202.5 506.7,202.5 506.7,213.8 495.2,213.8 495.2,285.5 481.1,285.5 481.1,213.8 469.6,213.8 "/>
<polygon class="st0" points="540.6,248.8 527.2,248.8 527.2,285.5 513.2,285.5 513.2,202.5 527.2,202.5 527.2,237.6 540.6,237.6 
	540.6,202.5 554.7,202.5 554.7,285.5 540.6,285.5 "/>
<polygon class="st0" points="563.8,202.5 597.1,202.5 597.1,213.8 577.8,213.8 577.8,237.6 591.6,237.6 591.6,248.8 577.8,248.8 
	577.8,274.1 597.1,274.1 597.1,285.5 563.8,285.5 "/>
<path class="st0" d="M641.7,241.1h19.8v44.3h-10v-9.1c-1.8,6.2-5.8,10-13.3,10c-12,0-17.5-9.5-17.5-22.4v-40.1
	c0-13,6.2-22.4,20.9-22.4c15.4,0,20,8.6,20,20.8v7.3h-12.8v-8.4c0-5.1-2-8.1-7-8.1s-7.2,3.6-7.2,8.6v44.6c0,5,2.1,8.6,6.9,8.6
	c4.5,0,6.8-2.6,6.8-8v-14.6h-6.6L641.7,241.1z"/>
<path class="st0" d="M669.5,264v-40.1c0-13,6.4-22.4,21-22.4s21.2,9.4,21.2,22.4V264c0,12.9-6.4,22.4-21.2,22.4
	S669.5,276.8,669.5,264 M697.8,266.2v-44.5c0-5-2.2-8.6-7.2-8.6s-7.1,3.6-7.1,8.6v44.6c0,5,2.2,8.6,7.1,8.6S697.8,271.3,697.8,266.2
	"/>
<path class="st0" d="M715.6,285.5l15.7-83h15.9l15.8,83h-14.3l-2.6-15.2h-14.8l-2.4,15.2H715.6z M733.1,259.1h11.2l-5.5-33.3h-0.1
	L733.1,259.1z"/>
<polygon class="st0" points="771,202.5 785,202.5 785,274.1 801.6,274.1 801.6,285.5 771,285.5 "/>
<path class="st0" d="M806.6,267.6v-11.1h13v11.4c0,4.6,2.1,7.4,6.8,7.4c4.4,0,6.4-3,6.4-7.4v-3.2c0-4.8-2-7.7-6.2-11.8l-8.2-8.2
	c-8-7.8-11.6-12.6-11.6-22.2v-2.8c0-10.3,6-18.2,19.6-18.2c14,0,19.5,6.9,19.5,18.9v6.7H833v-7.2c0-4.8-2.2-7.1-6.6-7.1
	c-3.9,0-6.6,2.2-6.6,6.9v1.7c0,4.6,2.6,7.4,6.6,11.3l8.9,8.8c7.6,7.7,11.3,12.4,11.3,21.5v4c0,11.4-6.1,19.5-20.3,19.5
	S806.6,278.4,806.6,267.6"/>
<path class="st0" d="M748.3,606.5c0-70.2-55.9-127.6-125.5-130.1c-23.9-67.8-98.3-103.4-166.1-79.5c-37.1,13.1-66.4,42.3-79.5,79.5
	c-69.6,2.5-125.4,59.9-125.4,130.1c0,40.1,18.6,78,50.3,102.7c-3.4,11.8-5.1,23.9-5.1,36.2c0,71.8,58.4,130.2,130.3,130.2
	c26.2,0,51.9-7.9,73.5-22.8c21.4,14.3,46.5,22,72.3,21.9c71.8,0,130.2-58.4,130.2-130.2c0-12-1.7-23.9-4.9-35.4
	C729.8,684.4,748.2,646.5,748.3,606.5 M604,519.7c0,52.1-38.6,95.3-88.7,102.8c-0.9-5.3-1.3-10.6-1.4-16
	c0.1-51.5,37.8-95.2,88.7-102.8C603.5,509,604,514.3,604,519.7 M500.5,818.9c-41.2-39.8-42.3-105.5-2.5-146.7c0.5-0.5,1-1,1.5-1.5
	c41.2,39.8,42.3,105.4,2.5,146.6C501.5,817.9,501,818.4,500.5,818.9 M397.3,503.7c50.1,7.5,88.7,50.6,88.7,102.8
	c0,5.4-0.5,10.7-1.4,16C434.6,615,396,571.8,396,519.7C396,514.3,396.5,509,397.3,503.7 M474.9,653c-25.5,51.2-87.7,72.1-138.9,46.6
	c-0.6-0.3-1.2-0.6-1.7-0.9c25.5-51.2,87.7-72.1,138.9-46.6C473.7,652.4,474.3,652.7,474.9,653 M524.8,652.3
	c50.7-26.6,113.4-7.1,140,43.6c0.5,0.9,0.9,1.8,1.4,2.7c-50.7,26.6-113.4,7.1-140-43.6C525.7,654.1,525.2,653.2,524.8,652.3
	 M500,415.7c41.4,0,78.8,24.6,95.3,62.5c-41.8,7.5-77.3,34.8-95.3,73.2c-18-38.4-53.6-65.7-95.4-73.2
	C421.2,440.3,458.6,415.7,500,415.7 M278,606.5c0.1-53.1,40.1-97.7,92.9-103.4c-5.5,42.1,9.9,84.3,41.4,112.9
	c-42.3,4.9-79.6,30.2-99.9,67.7C290.5,663.9,278,635.9,278,606.5 M323.1,745.3c0-7.2,0.8-14.5,2.3-21.6c38,18.4,82.6,17.2,119.5-3.3
	c-7.8,41.5,5.1,84.3,34.6,114.5c-49.5,29-113.1,12.4-142.1-37C328,782,323.1,763.8,323.1,745.3 M676.9,744.4
	c0.1,57.4-46.3,103.9-103.7,104c-18.1,0-35.9-4.7-51.6-13.7c29-30.5,41.4-73.1,33.3-114.4c37,20.6,81.8,21.8,119.9,3.3
	C676.2,730.5,676.9,737.4,676.9,744.4 M588.5,615.2c26.6-24.6,41.8-59.2,41.8-95.5c0-5.6-0.4-11.1-1.1-16.6
	c57,6,98.4,57.2,92.3,114.2c-2.7,25.4-14.7,48.9-33.6,66.1C667.8,645.8,630.7,620.3,588.5,615.2"/>
</svg>
