<?xml version="1.0" encoding="utf-8"?>
<!-- Generator: Adobe Illustrator 22.0.1, SVG Export Plug-In . SVG Version: 6.00 Build 0)  -->
<svg version="1.1" id="Layer_1" xmlns="http://www.w3.org/2000/svg" xmlns:xlink="http://www.w3.org/1999/xlink" x="0px" y="0px"
	 viewBox="0 0 1000 1000" style="enable-background:new 0 0 1000 1000;" xml:space="preserve">
<style type="text/css">
	.st0{fill:#FFFFFF;}
</style>
<title>Artboard 1</title>
<rect id="_Path_" y="0" width="1000" height="1000"/>
<g>
	<path id="_Path_2" class="st0" d="M142.7,288.1c34.2,0,49.1-18.1,49.1-46.1v-29.7c0-18.4-8-30.3-25-34.2
		c14-4.5,23.2-15.8,23.2-32.7v-17.5c0-28.5-13.7-46.1-44.9-46.1c-35.1,0-47.3,20.8-47.3,50.6v17.8h30.9v-20.5
		c0-12.5,3.9-19.6,14.6-19.6s14.6,7.1,14.6,18.1v21.7c0,10.7-7.1,16.4-18.1,16.4h-12.8v25.9h14.3c11.9,0,16.6,5.6,16.6,16.4v33.3
		c0,10.7-4.8,18.2-15.2,18.2c-11.6,0-15.8-7.8-15.8-19.6v-28.8H96v26.5C96,268.5,108.2,288.1,142.7,288.1"/>
	<g>
		<path id="_Path_3" class="st0" d="M835.3,625c0-28.1-18-51-45.4-51c-13.7,0-30.2,15-39.1,24.2c-9-9.2-24.4-24.2-38-24.2
			c-27.3,0-46.5,22.8-46.5,51c0,13.4,5.2,26.4,14.5,36l0,0l70.1,70.2l70-70.2l-0.1,0C830.1,651.4,835.3,638.4,835.3,625z"/>
		<g id="_Group_">
			<path id="_Path_4" class="st0" d="M536.8,845.9h-0.7c-5.3-0.3-9.7-4.3-10.6-9.5l-35.6-207.4l-53.9,100c-3,5.6-10,7.7-15.6,4.7
				c-3.2-1.7-5.4-4.9-5.9-8.5l-22.9-160l-41.9,94.1c-1.8,4.2-6,6.8-10.5,6.9H176.2c-6.4-0.4-11.2-5.8-10.8-12.2
				c0.3-5.8,5-10.5,10.8-10.8h155.4l55.1-123.8c2.6-5.8,9.4-8.4,15.2-5.9c3.6,1.6,6.1,4.9,6.7,8.9l23.6,165l53.2-98.6
				c3-5.6,10-7.7,15.6-4.6c3.1,1.7,5.3,4.7,5.9,8.2l33,192.1L660,385c1.8-6.1,8.3-9.5,14.4-7.7c3.1,0.9,5.6,3.1,7,6l63.2,131.1
				c2.9,5.7,0.6,12.6-5.1,15.5c-5.7,2.9-12.6,0.6-15.5-5.1c-0.1-0.1-0.1-0.3-0.2-0.4L673.6,420L547.8,837.7
				C546.4,842.5,541.9,845.9,536.8,845.9z"/>
		</g>
	</g>
	<g id="_Group_2">
		<path id="_Compound_Path_" class="st0" d="M306.2,121.8h19.5v43.7h-9.9v-8.9c-1.8,6.1-5.7,9.9-13.1,9.9
			c-11.8,0-17.2-9.4-17.2-22.1v-39.6c0-12.8,6.1-22.1,20.6-22.1c15.2,0,19.7,8.4,19.7,20.5v7.2h-12.5v-8.3c0-5.1-1.9-8-6.9-8
			s-7.1,3.5-7.1,8.4v43.9c0,4.9,2,8.4,6.8,8.4c4.5,0,6.8-2.5,6.8-7.8v-14.4h-6.5L306.2,121.8z"/>
		<path id="_Compound_Path_2" class="st0" d="M334.8,144.3v-39.5c0-12.8,6.3-22.1,20.7-22.1s20.9,9.3,20.9,22.1v39.5
			c0,12.7-6.3,22.1-20.9,22.1S334.8,157,334.8,144.3z M362.6,146.5v-43.9c0-4.9-2.2-8.4-7.1-8.4s-7,3.5-7,8.4v43.9
			c0,4.9,2.2,8.4,7,8.4S362.6,151.4,362.6,146.5z"/>
		<path id="_Compound_Path_3" class="st0" d="M385.4,144.3v-39.5c0-12.8,6.3-22.1,20.7-22.1S427,92,427,104.8v39.5
			c0,12.7-6.3,22.1-20.9,22.1S385.4,157,385.4,144.3z M413.3,146.5v-43.9c0-4.9-2.2-8.4-7.1-8.4s-7,3.5-7,8.4v43.9
			c0,4.9,2.2,8.4,7,8.4S413.3,151.4,413.3,146.5z"/>
		<path id="_Compound_Path_4" class="st0" d="M477.2,105.6v37.8c0,12.5-5.2,21.9-19.9,21.9h-21.2V83.7h21.2
			C472,83.7,477.2,93,477.2,105.6z M455.6,154.2c5.7,0,7.8-3.4,7.8-8.3v-42.8c0-4.8-2.2-8.2-7.8-8.2h-5.8v59.3H455.6z"/>
		<path id="_Compound_Path_5" class="st0" d="M531.9,129.4h-13.3v36.1h-13.7V83.7h13.8v34.6h13.3V83.7h13.9v81.7h-13.9V129.4z"/>
		<path id="_Compound_Path_6" class="st0" d="M554.8,83.7h32.8v11.2h-19v23.4h13.6v11.1h-13.7v24.8h19v11.2h-32.8L554.8,83.7z"/>
		<path id="_Compound_Path_7" class="st0" d="M594,165.4l15.4-81.7h15.7l15.5,81.7h-14.1l-2.5-14.9h-14.6l-2.4,14.9H594z
			 M611.2,139.5h11l-5.4-32.8h-0.1L611.2,139.5z"/>
		<path id="_Compound_Path_8" class="st0" d="M647.5,83.7h13.7v70.5h16.4v11.2h-30.1V83.7z"/>
		<path id="_Compound_Path_9" class="st0" d="M675.7,83.7h36.5v11.2h-11.3v70.5h-13.9V94.9h-11.3V83.7z"/>
		<path id="_Compound_Path_10" class="st0" d="M746.9,129.4h-13.3v36.1h-13.7V83.7h13.7v34.6h13.3V83.7h13.9v81.7h-13.9V129.4z"/>
	</g>
	<g id="_Group_3">
		<path id="_Compound_Path_11" class="st0" d="M283.4,285.3l15.4-81.7h15.7l15.5,81.7H316l-2.5-15h-14.6l-2.4,15H283.4z
			 M300.7,259.4h11l-5.4-32.8h-0.1L300.7,259.4z"/>
		<path id="_Compound_Path_12" class="st0" d="M348.5,233.9v51.4H337v-81.7h13.5l14.8,46.9v-46.9h11.5v81.7h-12.1L348.5,233.9z"/>
		<path id="_Compound_Path_13" class="st0" d="M426.9,225.5v37.9c0,12.5-5.2,21.9-19.9,21.9h-21.2v-81.7H407
			C421.7,203.5,426.9,212.8,426.9,225.5z M405.3,274.1c5.7,0,7.8-3.4,7.8-8.3V223c0-4.8-2.2-8.2-7.8-8.2h-5.8v59.3L405.3,274.1z"/>
		<path id="_Compound_Path_14" class="st0" d="M479.5,234.8l-7.7,50.5h-12.9l-11-81.7h13.3l6.4,51.8h0.1l6.9-51.8h11.2l7.6,51.8h0.1
			l6.3-51.8h11.6l-10.6,81.7h-13l-8.1-50.5L479.5,234.8z"/>
		<path id="_Compound_Path_15" class="st0" d="M518.4,203.5h32.8v11.2h-19v23.4h13.6v11.1h-13.7v24.8h19v11.2h-32.8V203.5z"/>
		<path id="_Compound_Path_16" class="st0" d="M559.7,203.5h13.8v70.5h16.4v11.2h-30.1V203.5z"/>
		<path id="_Compound_Path_17" class="st0" d="M597.4,203.5h13.7v70.5h16.4v11.2h-30.1V203.5z"/>
		<path id="_Compound_Path_18" class="st0" d="M625.7,237H645v11h-19.3V237z"/>
		<path id="_Compound_Path_19" class="st0" d="M653.2,203.5h19.9c13.7,0,18.3,6.4,18.3,18v8.3c0,6.9-2.5,11.2-8.2,13
			c6.9,1.6,10.2,6.1,10.2,13.6v10.9c0,11.6-5.2,18-18.9,18h-21.3V203.5z M666.9,238h4.8c4.5,0,6.5-2.3,6.5-6.6v-10
			c0-4.5-2-6.6-6.6-6.6h-4.7V238z M666.9,248.5V274h6c4.6,0,6.8-2.3,6.8-6.6v-12.3c0-4.3-2-6.6-6.9-6.6H666.9z"/>
		<path id="_Compound_Path_20" class="st0" d="M701.5,203.5h32.8v11.2h-19v23.4h13.6v11.1h-13.7v24.8h19v11.2h-32.7V203.5z"/>
		<path id="_Compound_Path_21" class="st0" d="M742.9,203.5h13.7v81.7h-13.7V203.5z"/>
		<path id="_Compound_Path_22" class="st0" d="M777.3,233.9v51.4h-11.6v-81.7h13.5l14.8,46.9v-46.9h11.5v81.7h-12L777.3,233.9z"/>
		<path id="_Compound_Path_23" class="st0" d="M835.3,241.6h19.5v43.6H845v-8.9c-1.8,6.1-5.7,9.9-13.1,9.9
			c-11.8,0-17.2-9.4-17.2-22.1v-39.5c0-12.8,6.2-22.1,20.6-22.1c15.2,0,19.7,8.4,19.7,20.5v7.2h-12.6V222c0-5.1-1.9-8-6.9-8
			s-7.1,3.5-7.1,8.4v43.9c0,4.9,2,8.4,6.8,8.4c4.5,0,6.8-2.5,6.8-7.8v-14.4h-6.5V241.6z"/>
	</g>
</g>
</svg>
