<?xml version="1.0" encoding="utf-8"?>
<!-- Generator: Adobe Illustrator 22.0.1, SVG Export Plug-In . SVG Version: 6.00 Build 0)  -->
<svg version="1.1" id="Layer_1" xmlns="http://www.w3.org/2000/svg" xmlns:xlink="http://www.w3.org/1999/xlink" x="0px" y="0px"
	 viewBox="0 0 1000 1000" style="enable-background:new 0 0 1000 1000;" xml:space="preserve">
<style type="text/css">
	.st0{fill:#FFFFFF;}
</style>
<title>Artboard 1</title>
<rect y="0" width="1000" height="1000"/>
<path class="st0" d="M151.3,288.1c36,0,49.9-19.6,49.9-50.9v-29.7c0-33-13.1-49.7-37.5-49.7c-14.3,0-22.9,6.6-27.9,16.4h-0.3v-43.4
	c0-12.2,3.9-20.8,16.1-20.8s15.8,7.1,15.8,19.6V143h30.9v-10.8c0-29.7-9.8-50.6-47.3-50.6c-35.7,0-49.1,22.9-49.1,54.4v98.1
	C101.9,265.5,115.6,288.1,151.3,288.1 M135.5,203.3c0.6-11.3,5.4-18.4,16.1-18.4c11.6,0,16.1,7.1,16.1,20.2v35.1
	c0,12.8-4.7,20.2-16.3,20.2c-11.3,0-15.8-7.7-15.8-20.2V203.3z"/>
<path class="st0" d="M306.5,165.7c14.6,0,19.4-8.7,19.4-20.4v-14.1h-12.5v15.1c0,4.8-1.7,8-6.6,8s-7-3.5-7-8.4V102
	c0-4.9,2.1-8.4,7-8.4s6.6,2.9,6.6,8v10.7h12.5v-9.7c0-12.1-4.2-20.5-19.4-20.5C292,82,286,91.3,286,104.1v39.6
	C286,156.3,292,165.7,306.5,165.7"/>
<polygon class="st0" points="364.7,153.6 348.3,153.6 348.3,83 334.6,83 334.6,164.8 364.7,164.8 "/>
<polygon class="st0" points="405,153.6 385.9,153.6 385.9,128.7 399.6,128.7 399.6,117.6 385.9,117.6 385.9,94.2 405,94.2 405,83 
	372.2,83 372.2,164.8 405,164.8 "/>
<path class="st0" d="M426.8,149.8h14.6l2.5,15H458L442.5,83h-15.6l-15.4,81.8h13L426.8,149.8z M434,106h0.1l5.4,32.8h-11L434,106z"
	/>
<polygon class="st0" points="476.5,113.4 492.6,164.8 504.7,164.8 504.7,83 493.2,83 493.2,129.9 478.4,83 464.9,83 464.9,164.8 
	476.5,164.8 "/>
<polygon class="st0" points="555.8,164.8 563.5,114.2 563.6,114.2 571.7,164.8 584.7,164.8 595.3,83 583.7,83 577.5,134.9 
	577.3,134.9 569.8,83 558.5,83 551.7,134.9 551.5,134.9 545.2,83 531.9,83 542.9,164.8 "/>
<path class="st0" d="M610.9,149.8h14.6l2.5,15h14.1L626.6,83h-15.7l-15.4,81.8h13L610.9,149.8z M618.2,106h0.1l5.4,32.8h-11
	L618.2,106z"/>
<polygon class="st0" points="651.8,164.8 665.6,164.8 665.6,94.2 677,94.2 677,83 640.4,83 640.4,94.2 651.8,94.2 "/>
<polygon class="st0" points="716.2,153.6 697.2,153.6 697.2,128.7 710.8,128.7 710.8,117.6 697.2,117.6 697.2,94.2 716.2,94.2 
	716.2,83 683.4,83 683.4,164.8 716.2,164.8 "/>
<path class="st0" d="M737.4,127.2l12.9,37.5h14.5l-13.2-37.2c7.8-1.8,11-7,11-15.8v-10.5c0-11.5-5.1-18.3-18.9-18.3h-20v81.8h13.7
	L737.4,127.2z M737.4,94.2h4.6c4.7,0,6.7,2.2,6.7,6.6v12c0,4.3-2.1,6.8-6.7,6.8h-4.6V94.2z"/>
<path class="st0" d="M299.8,270.4h14.6l2.5,15H331l-15.6-81.8h-15.6l-15.4,81.8h13L299.8,270.4z M307.1,226.6h0.1l5.4,32.8h-11
	L307.1,226.6z"/>
<polygon class="st0" points="336.7,203.6 336.7,285.3 348.3,285.3 348.3,234 364.4,285.3 376.5,285.3 376.5,203.6 365,203.6 
	365,250.5 350.2,203.6 "/>
<path class="st0" d="M386.5,285.3h21.2c14.7,0,19.9-9.4,19.9-22v-37.9c0-12.6-5.2-21.9-19.9-21.9h-21.2L386.5,285.3z M400.2,214.8
	h5.8c5.7,0,7.8,3.4,7.8,8.2v42.8c0,4.9-2.1,8.3-7.8,8.3h-5.8L400.2,214.8z"/>
<path class="st0" d="M458.1,256.8v11c0,10.7,5.4,18.6,19.4,18.6s20-8,20-19.2v-4c0-9-3.6-13.6-11.1-21.2l-8.8-8.7
	c-4-3.9-6.5-6.5-6.5-11.1v-1.7c0-4.6,2.6-6.7,6.5-6.7c4.3,0,6.5,2.3,6.5,7v7.1h12.5v-6.6c0-11.8-5.4-18.6-19.2-18.6
	c-13.4,0-19.3,7.8-19.3,18v2.8c0,9.4,3.6,14.1,11.5,21.8l8.1,8.1c4.2,4,6.1,6.9,6.1,11.6v3.1c0,4.3-1.9,7.2-6.3,7.2
	c-4.7,0-6.7-2.6-6.7-7.2v-11.2H458.1z"/>
<path class="st0" d="M514.5,285.3l2.4-15h14.6l2.5,15h14.1l-15.6-81.8h-15.7l-15.4,81.8H514.5z M524.2,226.6h0.1l5.4,32.8h-11
	L524.2,226.6z"/>
<polygon class="st0" points="583.2,250.5 568.4,203.6 554.9,203.6 554.9,285.3 566.5,285.3 566.5,234 582.6,285.3 594.7,285.3 
	594.7,203.6 583.2,203.6 "/>
<rect x="605.8" y="203.6" class="st0" width="13.8" height="81.8"/>
<polygon class="st0" points="651,285.3 651,214.8 662.4,214.8 662.4,203.6 625.8,203.6 625.8,214.8 637.2,214.8 637.2,285.3 "/>
<path class="st0" d="M690.3,203.6h-15.7l-15.4,81.8h13l2.4-15h14.6l2.5,15h14.1L690.3,203.6z M676.5,259.4l5.4-32.8h0.1l5.4,32.8
	H676.5z"/>
<polygon class="st0" points="738,203.6 701.5,203.6 701.5,214.8 712.8,214.8 712.8,285.3 726.7,285.3 726.7,214.8 738,214.8 "/>
<rect x="745.5" y="203.6" class="st0" width="13.7" height="81.8"/>
<path class="st0" d="M788.9,286.3c14.6,0,20.8-9.4,20.8-22.1v-39.6c0-12.8-6.2-22.1-20.8-22.1s-20.8,9.3-20.8,22.1v39.6
	C768.2,276.9,774.4,286.3,788.9,286.3 M781.9,222.5c0-4.9,2.2-8.4,7-8.4s7.1,3.5,7.1,8.4v43.9c0,4.9-2.2,8.4-7.1,8.4s-7-3.5-7-8.4
	V222.5z"/>
<polygon class="st0" points="858.5,285.3 858.5,203.6 847,203.6 847,250.5 832.2,203.6 818.7,203.6 818.7,285.3 830.3,285.3 
	830.3,234 846.4,285.3 "/>
<path class="st0" d="M684.7,404.4c-0.8-0.9-2-1.4-3.3-1.4H318.6c-2.3-0.1-4.2,1.7-4.2,3.9c0,0.3,0,0.6,0.1,0.9l61,368.6
	c0.3,2,2.1,3.5,4.2,3.5h74.8l5.1,60H428l73.2,73.2l73.4-73.4h-31.5l5.1-59.8h76.1c2.1,0,3.9-1.5,4.2-3.6l57-368.6
	C685.8,406.6,685.4,405.3,684.7,404.4z M544.4,699.5c-11.8,10.7-27.4,16.2-43.3,15.1c-15.9,1.1-31.6-4.3-43.3-15.1
	c-27.2-27.2-17.5-60.9-8-78.4c5.8-10.9,47.6-73.6,51.2-79v-0.4l0.2,0.2l0.1-0.2v0.4c3.5,5.3,45.3,68,51.2,79
	C561.9,638.5,571.6,672.3,544.4,699.5z M659.5,481.9c-9.8-4.3-22.3-2.8-34.3,2.1c-45,18.2-75.7,24.8-123,10
	c-29.8-9.3-57.7-28.9-90.7-17c-21.9,7.9-42.3,15.4-67,15.2l-14.3-73.3h339.5L659.5,481.9z"/>
</svg>
