<?xml version="1.0" encoding="utf-8"?>
<!-- Generator: Adobe Illustrator 22.0.1, SVG Export Plug-In . SVG Version: 6.00 Build 0)  -->
<svg version="1.1" id="Layer_1" xmlns="http://www.w3.org/2000/svg" xmlns:xlink="http://www.w3.org/1999/xlink" x="0px" y="0px"
	 viewBox="0 0 1000 1000" style="enable-background:new 0 0 1000 1000;" xml:space="preserve">
<style type="text/css">
	.st0{fill:#FFFFFF;}
</style>
<title>Artboard 1</title>
<rect id="_Path_" y="0" width="1000" height="1000"/>
<polygon id="_Path_2" class="st0" points="102.6,111.4 154.9,111.4 109.7,285.4 143.3,285.4 187.6,115 187.6,83.8 102.6,83.8 "/>
<g>
	<path id="_Compound_Path_" class="st0" d="M500,484.5c-81,0-146.6,65.6-146.6,146.5c0,81,65.6,146.6,146.5,146.6
		s146.6-65.6,146.6-146.5c0,0,0,0,0-0.1C646.5,550.1,580.9,484.5,500,484.5 M489.1,542.4c0-4.9,4.9-10.2,10.9-10.2
		s10.9,5.4,10.9,10.2v50.3c0,4.8-4.9,10.2-10.9,10.2s-10.9-5.3-10.9-10.2V542.4z M500,706.2c-42.1-0.1-76.2-34.3-76.1-76.4
		c0.1-33.3,21.7-62.7,53.5-72.6v28.4c-24.5,12.5-34.3,42.6-21.8,67.1c12.5,24.5,42.6,34.3,67.1,21.8c24.5-12.5,34.3-42.6,21.8-67.1
		c-4.8-9.4-12.5-17.1-21.9-21.9v-28.4c40.2,12.5,62.7,55.2,50.3,95.4C562.9,684.4,533.4,706.2,500,706.2"/>
	<path id="_Path_3" class="st0" d="M331.7,629.8c0-6.7-5.9-12-11.3-12h-64.2c-5.4,0-11.4,5.4-11.4,12s5.9,12.1,11.4,12.1h64.2
		C325.8,641.9,331.7,636.4,331.7,629.8"/>
	<path id="_Path_4" class="st0" d="M755.1,629.8c0-6.7-5.9-12-11.3-12h-64.2c-5.4,0-11.3,5.4-11.3,12s5.9,12.1,11.3,12.1h64.2
		C749.2,641.9,755.1,636.4,755.1,629.8"/>
	<path id="_Path_5" class="st0" d="M500,461.5c6.6,0,12-5.9,12-11.3v-64.2c0-5.4-5.4-11.4-12-11.4s-12.1,5.9-12.1,11.4v64.2
		C487.9,455.6,493.3,461.5,500,461.5"/>
	<path id="_Path_6" class="st0" d="M500,884.9c6.6,0,12-5.9,12-11.3v-64.2c0-5.4-5.4-11.3-12-11.3s-12.1,6-12.1,11.3v64.2
		C487.9,879,493.3,884.9,500,884.9"/>
	<path id="_Path_7" class="st0" d="M354,546.2c3.3-5.8,0.9-13.4-3.8-16l-55.7-31.9c-4.7-2.7-12.5-1-15.8,4.8s-0.8,13.4,3.9,16.1
		l55.7,31.9C342.9,553.8,350.7,552,354,546.2"/>
	<path id="_Path_8" class="st0" d="M721.4,756.5c3.3-5.8,0.9-13.4-3.8-16l-55.7-31.9c-4.7-2.7-12.5-1-15.8,4.8s-0.8,13.4,3.8,16.1
		l55.7,31.9C710.3,764.1,718.1,762.3,721.4,756.5"/>
	<path id="_Path_9" class="st0" d="M583.6,483.8c5.8,3.3,13.3,0.9,16-3.8l31.9-55.7c2.7-4.7,1-12.5-4.8-15.8s-13.4-0.8-16.1,3.9
		L578.7,468C576,472.7,577.8,480.5,583.6,483.8"/>
	<path id="_Path_10" class="st0" d="M373.3,851.2c5.8,3.3,13.4,0.9,16-3.8l31.9-55.7c2.7-4.7,1-12.5-4.8-15.8s-13.4-0.8-16.1,3.9
		l-31.9,55.7C365.8,840.1,367.5,847.9,373.3,851.2"/>
	<path id="_Path_11" class="st0" d="M416.1,483.9c5.8-3.3,7.5-11.1,4.8-15.8l-32-55.6c-2.7-4.7-10.3-7.1-16.1-3.8
		s-7.5,11.2-4.8,15.9l32,55.6C402.8,484.8,410.4,487.2,416.1,483.9"/>
	<path id="_Path_12" class="st0" d="M627.2,850.9c5.8-3.3,7.5-11.1,4.8-15.8l-32-55.6c-2.7-4.7-10.3-7.2-16.1-3.8
		s-7.5,11.2-4.8,15.9l32,55.6C613.8,851.8,621.4,854.2,627.2,850.9"/>
	<path id="_Path_13" class="st0" d="M645.9,545.9c3.3,5.8,11.1,7.5,15.8,4.8l55.6-32c4.7-2.7,7.2-10.3,3.9-16.1s-11.2-7.5-15.9-4.8
		l-55.6,32C645,532.5,642.6,540.2,645.9,545.9"/>
	<path id="_Path_14" class="st0" d="M278.9,757c3.3,5.8,11.1,7.5,15.8,4.8l55.6-32c4.7-2.7,7.2-10.3,3.8-16.1s-11.2-7.5-15.9-4.8
		l-55.6,32C278,743.6,275.6,751.2,278.9,757"/>
</g>
<g id="_Group_">
	<path id="_Compound_Path_2" class="st0" d="M283.5,165.4l15.4-81.7h15.7l15.5,81.7H316l-2.5-14.9h-14.6l-2.4,14.9H283.5z
		 M300.7,139.5h11l-5.4-32.8h-0.1L300.7,139.5z"/>
	<path id="_Compound_Path_3" class="st0" d="M335.2,83.7h32.2v11.2h-18.5v23.4h13.8v11.1h-13.8v36h-13.7V83.7z"/>
	<path id="_Compound_Path_4" class="st0" d="M372.8,83.7H405v11.2h-18.5v23.4h13.8v11.1h-13.8v36h-13.7V83.7z"/>
	<path id="_Compound_Path_5" class="st0" d="M409.2,144.3v-39.5c0-12.8,6.3-22.1,20.8-22.1s20.9,9.3,20.9,22.1v39.6
		c0,12.7-6.3,22.1-20.9,22.1S409.2,157,409.2,144.3z M437.1,146.5v-43.9c0-4.9-2.2-8.4-7.1-8.4s-7,3.5-7,8.4v43.9
		c0,4.9,2.2,8.4,7,8.4S437.1,151.4,437.1,146.5z"/>
	<path id="_Compound_Path_6" class="st0" d="M471.8,127.9v37.5H458V83.7h20c13.9,0,19,6.9,19,18.3v10.5c0,8.8-3.1,14-11,15.8
		l13.1,37.1h-14.5L471.8,127.9z M471.8,94.9v25.4h4.6c4.7,0,6.8-2.4,6.8-6.8v-12c0-4.5-2-6.6-6.8-6.6L471.8,94.9z"/>
	<path id="_Compound_Path_7" class="st0" d="M545,105.6v37.8c0,12.5-5.2,21.9-19.9,21.9h-21.3V83.7h21.2
		C539.8,83.7,545,93,545,105.6z M523.4,154.2c5.7,0,7.8-3.4,7.8-8.3v-42.8c0-4.8-2.2-8.2-7.8-8.2h-5.8v59.3L523.4,154.2z"/>
	<path id="_Compound_Path_8" class="st0" d="M548.2,165.4l15.4-81.7h15.7l15.5,81.7h-14.1l-2.5-14.9h-14.6l-2.4,14.9H548.2z
		 M565.5,139.5h11l-5.5-32.8h-0.1L565.5,139.5z"/>
	<path id="_Compound_Path_9" class="st0" d="M599.9,83.7h19.9c13.8,0,18.3,6.4,18.3,18v8.3c0,6.9-2.5,11.2-8.2,13
		c6.9,1.6,10.2,6.1,10.2,13.6v10.9c0,11.6-5.2,18-18.9,18h-21.3V83.7z M613.7,118.1h4.8c4.5,0,6.5-2.3,6.5-6.6v-10
		c0-4.5-2-6.6-6.6-6.6h-4.7V118.1z M613.7,128.6v25.6h6c4.6,0,6.8-2.3,6.8-6.6v-12.3c0-4.3-2-6.6-6.9-6.6L613.7,128.6z"/>
	<path id="_Compound_Path_10" class="st0" d="M646.5,83.7h13.8v70.5h16.4v11.2h-30.1V83.7z"/>
	<path id="_Compound_Path_11" class="st0" d="M682.3,83.7h32.8v11.2H696v23.4h13.6v11.1H696v24.8h19v11.2h-32.8L682.3,83.7z"/>
	<path id="_Compound_Path_12" class="st0" d="M731.7,165.4l15.4-81.7h15.7l15.6,81.7h-14.1l-2.5-14.9h-14.6l-2.4,14.9H731.7z
		 M748.9,139.5h11l-5.4-32.8h-0.1L748.9,139.5z"/>
	<path id="_Compound_Path_13" class="st0" d="M795,114v51.3h-11.6V83.7h13.5l14.8,46.9V83.7h11.5v81.7h-12L795,114z"/>
	<path id="_Compound_Path_14" class="st0" d="M871.5,105.6v37.8c0,12.5-5.2,21.9-19.9,21.9h-21.2V83.7h21.2
		C866.3,83.7,871.5,93,871.5,105.6z M850,154.2c5.7,0,7.8-3.4,7.8-8.3v-42.8c0-4.8-2.2-8.2-7.8-8.2h-5.8v59.3L850,154.2z"/>
</g>
<g id="_Group_2">
	<path id="_Compound_Path_15" class="st0" d="M285.5,264.3V225c0-12.7,6-22,20.4-22c15.1,0,19.3,8.4,19.3,20.4v9.6h-12.5v-10.6
		c0-5-1.7-7.9-6.6-7.9s-7,3.5-7,8.4v43.7c0,4.9,2,8.4,7,8.4s6.6-3.1,6.6-7.9v-15h12.5v14c0,11.6-4.8,20.3-19.3,20.3
		S285.5,276.9,285.5,264.3z"/>
	<path id="_Compound_Path_16" class="st0" d="M333.9,204h13.7v70.2h16.3v11.2h-30L333.9,204z"/>
	<path id="_Compound_Path_17" class="st0" d="M371.3,204h32.6v11.2H385v23.3h13.5v11H385v24.7h19v11.2h-32.7V204z"/>
	<path id="_Compound_Path_18" class="st0" d="M410.3,285.3l15.4-81.3h15.6l15.5,81.3h-14l-2.5-14.9h-14.5l-2.4,14.9H410.3z
		 M427.4,259.5h10.9l-5.4-32.6h-0.1L427.4,259.5z"/>
	<path id="_Compound_Path_19" class="st0" d="M475,234.2v51.1h-11.5V204H477l14.8,46.7V204h11.4v81.3h-12L475,234.2z"/>
	<path id="_Compound_Path_20" class="st0" d="M539.7,204h32.6v11.2h-18.9v23.3h13.5v11h-13.5v24.7h19v11.2h-32.6V204z"/>
	<path id="_Compound_Path_21" class="st0" d="M592,234.2v51.1h-11.5V204h13.4l14.8,46.7V204H620v81.3h-12L592,234.2z"/>
	<path id="_Compound_Path_22" class="st0" d="M628.9,204h32.6v11.2h-19v23.3h13.5v11h-13.5v24.7h19v11.2h-32.6V204z"/>
	<path id="_Compound_Path_23" class="st0" d="M683.5,248v37.3h-13.7V204h19.9c13.8,0,18.8,6.8,18.8,18.2v10.4
		c0,8.8-3.1,13.9-10.9,15.7l13.1,36.9h-14.4L683.5,248z M683.5,215.1v25.3h4.5c4.7,0,6.7-2.4,6.7-6.7v-12c0-4.4-2-6.6-6.7-6.6H683.5
		z"/>
	<path id="_Compound_Path_24" class="st0" d="M737.8,241.9h19.4v43.4h-9.8v-8.9c-1.8,6.1-5.6,9.8-13.1,9.8c-11.8,0-17.2-9.4-17.2-22
		V225c0-12.7,6.1-22,20.5-22c15.1,0,19.5,8.4,19.5,20.4v7.2h-12.5v-8.3c0-5-1.9-7.9-6.8-7.9s-7.1,3.5-7.1,8.4v43.7
		c0,4.9,2,8.4,6.7,8.4c4.4,0,6.7-2.5,6.7-7.8v-14.3h-6.5V241.9z"/>
	<path id="_Compound_Path_25" class="st0" d="M792.6,254.4v31h-13.7v-31L763.7,204H778l8.3,30.8h0.1l8.2-30.8h13.1L792.6,254.4z"/>
</g>
</svg>
