<?xml version="1.0" encoding="utf-8"?>
<!-- Generator: Adobe Illustrator 22.0.1, SVG Export Plug-In . SVG Version: 6.00 Build 0)  -->
<svg version="1.1" id="Layer_1" xmlns="http://www.w3.org/2000/svg" xmlns:xlink="http://www.w3.org/1999/xlink" x="0px" y="0px"
	 viewBox="0 0 1000 1000" style="enable-background:new 0 0 1000 1000;" xml:space="preserve">
<style type="text/css">
	.st0{fill:#FFFFFF;}
</style>
<title>Artboard 1</title>
<rect id="_Path_" y="0" width="1000" height="1000"/>
<path id="_Compound_Path_" class="st0" d="M194.3,236.1v-22c0-19.3-6.8-33.3-22.6-40.4c13.4-6.5,19.6-18.4,19.6-35.1v-8.3
	c0-31.5-16.4-48.5-47.6-48.5c-30.9,0-47,17-47,48.5v8.3c0,16.4,6,28.6,19,35.1c-15.8,7.1-22.3,21.1-22.3,40.4v22
	c0,30.6,14.6,52,50.3,52C179.7,288.1,194.3,266.7,194.3,236.1 M128.5,128.1c0-12.2,4.2-19.3,15.2-19.3c11.3,0,15.5,7.1,15.5,19.3
	v13.7c0,12.2-4.2,19.4-15.5,19.4c-11,0-15.2-7.2-15.2-19.4V128.1z M160.4,239.6c0,12.2-4.5,20.8-16.6,20.8
	c-11.9,0-16.4-8.6-16.4-20.8v-32.7c0-12.2,4.5-20.8,16.4-20.8c12.2,0,16.6,8.6,16.6,20.8V239.6z"/>
<g>
	<path id="_Path_2" class="st0" d="M694.2,492l-101.6,96.7c-3.8,3.8-5.8,6.6-5.8,14.5v271c0,3.2,2.6,5.8,5.8,5.8h105
		c3.2,0,5.8-2.6,5.8-5.8V494.4C703.3,491.2,700.8,485.4,694.2,492"/>
	<path id="_Path_3" class="st0" d="M401.3,618l-101.6,96.6c-3.8,3.8-5.8,6.6-5.8,14.5v145c0,3.2,2.6,5.8,5.8,5.8h105
		c3.2,0,5.8-2.6,5.8-5.8V620.4C410.5,617.2,408,611.3,401.3,618"/>
	<path id="_Path_4" class="st0" d="M740.4,374.7c0-0.8-0.3-1.6-0.9-2.2c-0.5-0.5-1.2-0.8-1.9-0.8h-0.6h-0.8l-77.8,17.6l-1.4,0.1
		c-0.6,0.1-1.1,0.4-1.5,0.8c-1.1,1.2-1.1,3,0,4.2l0.9,0.9l17.8,17.8L497.8,589.5L416.3,508c-0.9-0.9-2.4-0.9-3.3,0c0,0,0,0,0,0
		l-22.1,22.1l0,0L260.3,660.7c-0.9,0.9-0.9,2.4,0,3.3l22.1,22.1c0.9,0.9,2.4,0.9,3.3,0c0,0,0,0,0,0l129-128.9l59.1,59.1
		c0.1,0.1,0.1,0.2,0.2,0.3l22.1,22.1c0.9,0.9,2.4,0.9,3.3,0c0,0,0,0,0,0l200.1-200.2l18.7,18.6c1.1,1.1,3,1.2,4.1,0c0,0,0,0,0,0
		c0.5-0.5,0.8-1.2,0.8-1.9V455l17.1-79.4L740.4,374.7z"/>
	<path id="_Path_5" class="st0" d="M548.3,634.9l-49.2,49.6c-0.9,0.8-2.3,0.7-3.2-0.1L451.4,639c-8.2-8.1-9.9-1.5-9.9,1.7v233.5
		c0,3.2,2.6,5.8,5.8,5.8c0,0,0,0,0,0h105c3.2,0,5.8-2.6,5.8-5.8V636.8C558,633.6,555.5,627.7,548.3,634.9"/>
</g>
<g id="_Group_2">
	<path id="_Compound_Path_2" class="st0" d="M309.8,105.6v37.8c0,12.5-5.2,21.9-19.9,21.9h-21.2V83.7h21.2
		C304.6,83.7,309.8,93,309.8,105.6z M288.2,154.2c5.7,0,7.8-3.4,7.8-8.3v-42.8c0-4.8-2.2-8.2-7.8-8.2h-5.8v59.3H288.2z"/>
	<path id="_Compound_Path_3" class="st0" d="M318.5,83.7h32.8v11.2h-19v23.4h13.6v11.1h-13.7v24.8h19v11.2h-32.7V83.7z"/>
	<path id="_Compound_Path_4" class="st0" d="M358.3,144.3v-39.5c0-12.8,6-22.1,20.5-22.1c15.2,0,19.4,8.4,19.4,20.5v9.6h-12.5v-10.7
		c0-5.1-1.7-8-6.6-8s-7,3.5-7,8.4v43.9c0,4.9,2,8.4,7,8.4s6.6-3.1,6.6-8v-15h12.5V146c0,11.7-4.8,20.4-19.4,20.4
		S358.3,157,358.3,144.3z"/>
	<path id="_Compound_Path_5" class="st0" d="M406.5,83.7h32.8v11.2h-19v23.4h13.6v11.1h-13.7v24.8h19v11.2h-32.7V83.7z"/>
	<path id="_Compound_Path_6" class="st0" d="M459,114v51.3h-11.5V83.7H461l14.8,46.9V83.7h11.5v81.7h-12.1L459,114z"/>
	<path id="_Compound_Path_7" class="st0" d="M494.4,83.7h36.5v11.2h-11.3v70.5h-13.9V94.9h-11.3V83.7z"/>
	<path id="_Compound_Path_8" class="st0" d="M581.3,114.9l-7.7,50.5h-12.9l-11-81.7H563l6.4,51.8h0.1l6.9-51.8h11.2l7.6,51.8h0.1
		l6.3-51.8h11.6l-10.7,81.7h-13l-8.1-50.5H581.3z"/>
	<path id="_Compound_Path_9" class="st0" d="M618.7,144.3v-39.5c0-12.8,6.3-22.1,20.7-22.1s20.8,9.3,20.8,22.1v39.5
		c0,12.7-6.3,22.1-20.8,22.1S618.7,157,618.7,144.3z M646.5,146.5v-43.9c0-4.9-2.2-8.4-7.1-8.4s-7,3.5-7,8.4v43.9
		c0,4.9,2.2,8.4,7,8.4S646.5,151.4,646.5,146.5z"/>
	<path id="_Compound_Path_10" class="st0" d="M682.7,127.9v37.5h-13.7V83.7h20c13.9,0,18.9,6.9,18.9,18.3v10.5c0,8.8-3.1,14-11,15.8
		l13.2,37.1h-14.4L682.7,127.9z M682.7,94.9v25.4h4.6c4.7,0,6.8-2.4,6.8-6.8v-12c0-4.5-2-6.6-6.8-6.6L682.7,94.9z"/>
	<path id="_Compound_Path_11" class="st0" d="M729.9,125.6v39.8h-13.7V83.7h13.7v35.9l15-35.9h13.5l-15.9,36.8l16.3,45h-14.5
		L729.9,125.6z"/>
	<path id="_Compound_Path_12" class="st0" d="M777.9,165.4l15.4-81.7H809l15.6,81.7h-14.1l-2.5-14.9h-14.6l-2.4,14.9H777.9z
		 M795.1,139.5h11l-5.4-32.8h-0.1L795.1,139.5z"/>
	<path id="_Compound_Path_13" class="st0" d="M840.7,114v51.3h-11.6V83.7h13.5l14.8,46.9V83.7h11.5v81.7h-12.1L840.7,114z"/>
	<path id="_Compound_Path_14" class="st0" d="M919.1,105.6v37.8c0,12.5-5.2,21.9-19.9,21.9H878V83.7h21.2
		C913.9,83.7,919.1,93,919.1,105.6z M897.5,154.2c5.7,0,7.8-3.4,7.8-8.3v-42.8c0-4.8-2.2-8.2-7.8-8.2h-5.8v59.3H897.5z"/>
</g>
<g id="_Group_3">
	<path id="_Compound_Path_15" class="st0" d="M268.7,203.7h32.8v11.2h-19.1v23.4h13.6v11.1h-13.6v24.8h19v11.2h-32.8V203.7z"/>
	<path id="_Compound_Path_16" class="st0" d="M307.5,264.3v-39.5c0-12.8,6-22.1,20.5-22.1c15.2,0,19.4,8.4,19.4,20.5v9.6h-12.5
		v-10.7c0-5.1-1.7-8-6.6-8s-7,3.5-7,8.4v43.9c0,4.9,2,8.4,7,8.4s6.6-3.1,6.6-8v-15h12.5V266c0,11.7-4.8,20.4-19.4,20.4
		S307.5,277,307.5,264.3z"/>
	<path id="_Compound_Path_17" class="st0" d="M354.9,264.3v-39.5c0-12.8,6.3-22.1,20.7-22.1s20.9,9.3,20.9,22.1v39.5
		c0,12.7-6.3,22.1-20.9,22.1S354.9,277,354.9,264.3z M382.7,266.5v-43.9c0-4.9-2.2-8.4-7.1-8.4s-7,3.5-7,8.4v43.9
		c0,4.9,2.2,8.4,7,8.4S382.7,271.5,382.7,266.5L382.7,266.5z"/>
	<path id="_Compound_Path_18" class="st0" d="M415.9,234.1v51.4h-11.6v-81.7h13.5l14.8,46.9v-46.9h11.5v81.7H432L415.9,234.1z"/>
	<path id="_Compound_Path_19" class="st0" d="M451.9,264.3v-39.5c0-12.8,6.3-22.1,20.7-22.1s20.9,9.3,20.9,22.1v39.5
		c0,12.7-6.3,22.1-20.9,22.1S451.9,277,451.9,264.3z M479.8,266.5v-43.9c0-4.9-2.2-8.4-7.1-8.4s-7,3.5-7,8.4v43.9
		c0,4.9,2.2,8.4,7,8.4S479.8,271.5,479.8,266.5L479.8,266.5z"/>
	<path id="_Compound_Path_20" class="st0" d="M539.2,232.4h-0.4l-9.3,53h-6.4l-10.2-53h-0.2v53h-11.3v-81.7h16l8.9,46h0.1l8-46h17.4
		v81.7h-12.5V232.4z"/>
	<path id="_Compound_Path_21" class="st0" d="M559.6,203.7h13.7v81.7h-13.7V203.7z"/>
	<path id="_Compound_Path_22" class="st0" d="M581,264.3v-39.5c0-12.8,6-22.1,20.5-22.1c15.2,0,19.4,8.4,19.4,20.5v9.6h-12.5v-10.7
		c0-5.1-1.7-8-6.6-8s-7,3.5-7,8.4v43.9c0,4.9,2,8.4,7,8.4s6.6-3.1,6.6-8v-15h12.5V266c0,11.7-4.8,20.4-19.4,20.4S581,277,581,264.3z
		"/>
	<path id="_Compound_Path_23" class="st0" d="M665.1,241.8h19.5v43.6h-9.9v-8.9c-1.8,6.1-5.7,9.9-13.1,9.9
		c-11.8,0-17.2-9.4-17.2-22.1v-39.5c0-12.8,6.1-22.1,20.6-22.1c15.2,0,19.7,8.4,19.7,20.5v7.2H672v-8.3c0-5.1-1.9-8-6.9-8
		s-7.1,3.5-7.1,8.4v43.9c0,4.9,2,8.4,6.8,8.4c4.5,0,6.8-2.5,6.8-7.8v-14.4h-6.5V241.8z"/>
	<path id="_Compound_Path_24" class="st0" d="M706.2,248v37.5h-13.8v-81.8h20c13.9,0,18.9,6.9,18.9,18.3v10.5c0,8.8-3.1,14-11,15.8
		l13.2,37.1h-14.4L706.2,248z M706.2,215v25.4h4.6c4.7,0,6.8-2.4,6.8-6.8v-12.1c0-4.5-2-6.6-6.8-6.6L706.2,215z"/>
	<path id="_Compound_Path_25" class="st0" d="M737.6,264.3v-39.5c0-12.8,6.3-22.1,20.7-22.1s20.8,9.3,20.8,22.1v39.5
		c0,12.7-6.3,22.1-20.8,22.1S737.6,277,737.6,264.3z M765.5,266.5v-43.9c0-4.9-2.2-8.4-7.1-8.4s-7,3.5-7,8.4v43.9
		c0,4.9,2.2,8.4,7,8.4S765.5,271.5,765.5,266.5L765.5,266.5z"/>
	<path id="_Compound_Path_26" class="st0" d="M814.4,234.9l-7.7,50.5h-12.9l-11-81.7h13.3l6.4,51.8h0.1l6.9-51.8h11.2l7.6,51.8h0.1
		l6.3-51.8h11.6l-10.6,81.7h-13l-8.1-50.5L814.4,234.9z"/>
	<path id="_Compound_Path_27" class="st0" d="M850.5,203.7H887v11.2h-11.3v70.5h-13.9v-70.5h-11.3V203.7z"/>
	<path id="_Compound_Path_28" class="st0" d="M918.2,249.4H905v36h-13.8v-81.7H905v34.6h13.3v-34.6h13.9v81.7h-13.9V249.4z"/>
</g>
</svg>
