<?xml version="1.0" encoding="utf-8"?>
<!-- Generator: Adobe Illustrator 22.0.1, SVG Export Plug-In . SVG Version: 6.00 Build 0)  -->
<svg version="1.1" id="Layer_1" xmlns="http://www.w3.org/2000/svg" xmlns:xlink="http://www.w3.org/1999/xlink" x="0px" y="0px"
	 viewBox="0 0 1000 1000" style="enable-background:new 0 0 1000 1000;" xml:space="preserve">
<style type="text/css">
	.st0{fill:#FFFFFF;}
</style>
<title>Artboard 1</title>
<rect id="_Path_" y="0" width="1000" height="1000"/>
<path id="_Compound_Path_" class="st0" d="M183.1,134.5c0-31.2-13.7-53.8-49.3-53.8c-36,0-49.9,19.6-49.9,50.8v29.7
	c0,33,13.1,49.6,37.5,49.6c14.3,0,22.9-6.6,27.9-16.3h0.3V238c0,12.2-4.8,20.8-16.9,20.8s-16.6-7.2-16.6-19.7v-13.4H85.1v10.7
	c0,29.7,10.7,50.5,48.2,50.5c35.6,0,49.9-22.9,49.9-54.4V134.5z M149.5,165.4c-0.6,11.3-5.3,18.4-16,18.4c-11.6,0-16-7.1-16-20.2
	v-35.1c0-12.8,4.7-20.2,16.4-20.2c11.3,0,15.7,7.7,15.7,20.2L149.5,165.4z"/>
<path id="_Compound_Path_2" class="st0" d="M749.9,657.3L631,588.7V451.4c0-2.9-1.5-5.5-4-7l-122.9-71c-2.5-1.5-5.6-1.5-8.1,0
	l-123,71c-2.5,1.5-4,4.1-4,7v137.3l-118.9,68.6c-2.5,1.4-4.1,4.1-4.1,7v142c0,2.9,1.6,5.6,4.1,7l122.9,71c2.5,1.4,5.6,1.4,8.1,0
	L500,815.6l118.8,68.6c2.5,1.4,5.6,1.4,8.1,0l122.9-71c2.5-1.4,4-4.1,4.1-7v-142C753.9,661.4,752.4,658.7,749.9,657.3z M491.9,792.2
	l-98.6-56.9l98.6-56.9L491.9,792.2z M606.7,593.4l-98.6,56.9V536.4L606.7,593.4z M491.9,650.3l-98.6-56.9l98.6-56.9L491.9,650.3z
	 M516.2,664.3l106.7-61.5l106.7,61.6l-106.7,61.6L516.2,664.3z M614.8,579.3l-98.6-56.9l98.6-56.9V579.3z M483.8,522.3l-98.6,56.9
	V465.5L483.8,522.3z M369,863.2l-106.7-61.6V678.3L369,740V863.2z M385.2,863.2V749.3l98.6,56.9L385.2,863.2z M737.7,801.6
	L631,863.2V740l106.7-61.6L737.7,801.6z"/>
<g id="_Group_">
	<path id="_Compound_Path_3" class="st0" d="M236.1,85.4h13.1v78h-13.1V85.4z"/>
	<path id="_Compound_Path_4" class="st0" d="M266.1,114.3v49H255v-78h12.9l14.1,44.7V85.4h11v78h-11.5L266.1,114.3z"/>
	<path id="_Compound_Path_5" class="st0" d="M337.9,106.3v36.1c0,12-4.9,20.9-19,20.9h-20.2v-78H319
		C333,85.4,337.9,94.2,337.9,106.3z M317.3,152.6c5.4,0,7.5-3.2,7.5-7.9v-40.8c0-4.6-2.1-7.8-7.5-7.8h-5.5v56.6H317.3z"/>
	<path id="_Compound_Path_6" class="st0" d="M381.7,85.4v59c0,12.1-5.2,19.9-18.5,19.9c-13.8,0-19.5-7.8-19.5-19.9v-59h13.1v60.2
		c0,4.6,1.8,7.7,6.4,7.7s6.4-3.1,6.4-7.7V85.4H381.7z"/>
	<path id="_Compound_Path_7" class="st0" d="M386.8,146.5v-10.5H399v10.7c0,4.4,2,6.9,6.4,6.9c4.1,0,6-2.8,6-6.9v-3
		c0-4.5-1.8-7.2-5.9-11l-7.7-7.7c-7.5-7.3-10.9-11.8-10.9-20.8v-2.7c0-9.7,5.6-17.1,18.4-17.1c13.1,0,18.3,6.4,18.3,17.7v6.3h-12
		v-6.8c0-4.5-2.1-6.7-6.2-6.7c-3.7,0-6.2,2.1-6.2,6.4v1.6c0,4.4,2.4,6.9,6.2,10.6l8.4,8.3c7.1,7.2,10.6,11.6,10.6,20.2v3.8
		c0,10.7-5.8,18.3-19.1,18.3S386.8,156.8,386.8,146.5z"/>
	<path id="_Compound_Path_8" class="st0" d="M425.2,85.4H460v10.7h-10.8v67.2H436V96.1h-10.8L425.2,85.4z"/>
	<path id="_Compound_Path_9" class="st0" d="M477.5,127.6v35.8h-13.1v-78h19.1c13.2,0,18,6.6,18,17.5v10c0,8.4-3,13.3-10.5,15.1
		l12.5,35.4h-13.8L477.5,127.6z M477.5,96.1v24.2h4.4c4.5,0,6.4-2.3,6.4-6.4v-11.5c0-4.3-2-6.3-6.4-6.3H477.5z"/>
	<path id="_Compound_Path_10" class="st0" d="M529.6,133.7v29.7h-13.1v-29.7l-14.6-48.3h13.7l7.9,29.5h0.1l7.9-29.6H544L529.6,133.7
		z"/>
	<path id="_Compound_Path_11" class="st0" d="M555.3,151.8l-6.7,17.6h-7.3l1.6-18.6h12.4V151.8z"/>
	<path id="_Compound_Path_12" class="st0" d="M571.4,85.4h13.1v78h-13.1V85.4z"/>
	<path id="_Compound_Path_13" class="st0" d="M601.4,114.3v49h-11v-78h12.9l14.1,44.7V85.4h10.9v78h-11.5L601.4,114.3z"/>
	<path id="_Compound_Path_14" class="st0" d="M645.1,114.3v49h-11v-78H647l14.1,44.7V85.4H672v78h-11.5L645.1,114.3z"/>
	<path id="_Compound_Path_15" class="st0" d="M677.7,143.2v-37.7c0-12.2,6-21,19.8-21s19.9,8.9,19.9,21v37.7c0,12.1-6,21-19.9,21
		S677.7,155.3,677.7,143.2z M704.3,145.3v-41.9c0-4.7-2.1-8-6.8-8s-6.7,3.3-6.7,8v41.8c0,4.7,2.1,8.1,6.7,8.1S704.3,150,704.3,145.3
		L704.3,145.3z"/>
	<path id="_Compound_Path_16" class="st0" d="M765.1,85.4l-14.8,78H736l-14.8-78h13.3l9,54.4h0.1l9.2-54.4L765.1,85.4z"/>
	<path id="_Compound_Path_17" class="st0" d="M761,163.3l14.7-78h15l14.8,78H792l-2.4-14.3h-13.9l-2.3,14.3H761z M777.4,138.6h10.5
		l-5.2-31.3h-0.1L777.4,138.6z"/>
	<path id="_Compound_Path_18" class="st0" d="M801.9,85.4h34.8v10.7h-10.8v67.2h-13.2V96.1h-10.8V85.4z"/>
	<path id="_Compound_Path_19" class="st0" d="M841.1,85.4h13.1v78h-13.1V85.4z"/>
	<path id="_Compound_Path_20" class="st0" d="M860.1,143.2v-37.7c0-12.2,6-21,19.8-21s19.9,8.9,19.9,21v37.7c0,12.1-6,21-19.9,21
		S860.1,155.3,860.1,143.2z M886.6,145.3v-41.9c0-4.7-2.1-8-6.8-8s-6.7,3.3-6.7,8v41.8c0,4.7,2.1,8.1,6.7,8.1S886.6,150,886.6,145.3
		L886.6,145.3z"/>
	<path id="_Compound_Path_21" class="st0" d="M916.5,114.3v49h-11v-78h12.9l14.1,44.7V85.4h10.9v78H932L916.5,114.3z"/>
</g>
<g id="_Group_2">
	<path id="_Compound_Path_22" class="st0" d="M234,283.4l14.7-77.9h14.9l14.8,77.9H265l-2.4-14.2h-13.9l-2.3,14.2H234z M250.4,258.7
		h10.5l-5.2-31.3h-0.1L250.4,258.7z"/>
	<path id="_Compound_Path_23" class="st0" d="M294.3,234.5v49h-11v-78h12.9l14.1,44.7v-44.7h10.9v77.9h-11.5L294.3,234.5z"/>
	<path id="_Compound_Path_24" class="st0" d="M367.3,226.4v36.1c0,12-5,20.9-19,20.9h-20.2v-77.9h20.2
		C362.4,205.5,367.3,214.3,367.3,226.4z M346.7,272.7c5.4,0,7.5-3.2,7.5-7.9V224c0-4.6-2.1-7.8-7.5-7.8h-5.5v56.6L346.7,272.7z"/>
	<path id="_Compound_Path_25" class="st0" d="M385.7,205.5h13.1v77.9h-13.1V205.5z"/>
	<path id="_Compound_Path_26" class="st0" d="M416.8,234.5v49h-11v-78h12.9l14.1,44.7v-44.7h10.9v77.9h-11.5L416.8,234.5z"/>
	<path id="_Compound_Path_27" class="st0" d="M450.6,205.5h30.7v10.7h-17.6v22.3h13.1v10.6h-13.1v34.4h-13.1V205.5z"/>
	<path id="_Compound_Path_28" class="st0" d="M499.6,247.7v35.8h-13.1v-77.9h19.1c13.2,0,18,6.6,18,17.5v10c0,8.4-3,13.3-10.5,15.1
		l12.5,35.4h-13.8L499.6,247.7z M499.6,216.2v24.3h4.4c4.5,0,6.4-2.3,6.4-6.4v-11.5c0-4.3-2-6.3-6.4-6.3H499.6z"/>
	<path id="_Compound_Path_29" class="st0" d="M528.1,283.4l14.7-77.9h14.9l14.8,77.9h-13.5l-2.4-14.2h-13.9l-2.3,14.2H528.1z
		 M544.6,258.7H555l-5.2-31.3h-0.1L544.6,258.7z"/>
	<path id="_Compound_Path_30" class="st0" d="M575.6,266.7v-10.5h12.2v10.7c0,4.4,2,6.9,6.4,6.9c4.1,0,6-2.8,6-6.9v-3
		c0-4.5-1.8-7.2-5.9-11l-7.7-7.7c-7.5-7.4-10.9-11.8-10.9-20.8v-2.6c0-9.7,5.6-17.1,18.4-17.1c13.1,0,18.3,6.4,18.3,17.7v6.3h-12
		v-6.8c0-4.5-2.1-6.7-6.2-6.7c-3.7,0-6.2,2.1-6.2,6.4v1.6c0,4.4,2.4,6.9,6.2,10.6l8.4,8.3c7.1,7.2,10.6,11.6,10.6,20.2v3.8
		c0,10.7-5.8,18.3-19.1,18.3S575.6,276.9,575.6,266.7z"/>
	<path id="_Compound_Path_31" class="st0" d="M616.3,205.5h34.8v10.7h-10.8v67.2h-13.2v-67.2h-10.8V205.5z"/>
	<path id="_Compound_Path_32" class="st0" d="M669.8,247.7v35.8h-13.1v-77.9h19.1c13.2,0,18,6.6,18,17.5v10c0,8.4-3,13.3-10.5,15.1
		l12.5,35.4H682L669.8,247.7z M669.8,216.2v24.3h4.4c4.5,0,6.4-2.3,6.4-6.4v-11.5c0-4.3-2-6.3-6.4-6.3H669.8z"/>
	<path id="_Compound_Path_33" class="st0" d="M738.4,205.5v59c0,12.1-5.2,19.9-18.5,19.9c-13.8,0-19.5-7.8-19.5-19.9v-59h13.1v60.2
		c0,4.6,1.8,7.7,6.4,7.7s6.4-3.1,6.4-7.7v-60.2H738.4z"/>
	<path id="_Compound_Path_34" class="st0" d="M745.3,263.3v-37.7c0-12.2,5.8-21,19.5-21c14.5,0,18.5,8,18.5,19.5v9.2h-12v-10.3
		c0-4.8-1.6-7.6-6.3-7.6s-6.7,3.3-6.7,8.1v41.8c0,4.7,2,8,6.7,8s6.3-3,6.3-7.6v-14.3h12v13.4c0,11.1-4.6,19.4-18.5,19.4
		S745.3,275.4,745.3,263.3z"/>
	<path id="_Compound_Path_35" class="st0" d="M785.5,205.5h34.8v10.7h-10.8v67.2h-13.2v-67.2h-10.8V205.5z"/>
	<path id="_Compound_Path_36" class="st0" d="M863.9,205.5v59c0,12.1-5.2,19.9-18.5,19.9c-13.8,0-19.5-7.8-19.5-19.9v-59H839v60.2
		c0,4.6,1.8,7.7,6.4,7.7s6.4-3.1,6.4-7.7v-60.2H863.9z"/>
	<path id="_Compound_Path_37" class="st0" d="M883.9,247.7v35.8h-13.1v-77.9h19.1c13.2,0,18,6.6,18,17.5v10c0,8.4-3,13.3-10.5,15.1
		l12.5,35.4h-13.8L883.9,247.7z M883.9,216.2v24.3h4.4c4.5,0,6.4-2.3,6.4-6.4v-11.5c0-4.3-2-6.3-6.4-6.3H883.9z"/>
	<path id="_Compound_Path_38" class="st0" d="M914.5,205.5h31.3v10.7h-18.2v22.3h13v10.6h-13v23.7h18.2v10.7h-31.3V205.5z"/>
</g>
</svg>
