<?xml version="1.0" encoding="utf-8"?>
<!-- Generator: Adobe Illustrator 26.1.0, SVG Export Plug-In . SVG Version: 6.00 Build 0)  -->
<svg version="1.1" id="Layer_1" focusable="false" xmlns="http://www.w3.org/2000/svg" xmlns:xlink="http://www.w3.org/1999/xlink"
	 x="0px" y="0px" viewBox="0 0 1000 1000" style="enable-background:new 0 0 1000 1000;" xml:space="preserve">
<style type="text/css">
	.st0{fill:#FFFFFF;}
</style>
<link  id="dark-mode-general-link" rel="stylesheet" type="text/css" xmlns=""></link>
<link  id="dark-mode-custom-link" rel="stylesheet" type="text/css" xmlns=""></link>
<polygon class="st0" points="139.6,131.5 139.9,131.5 139.9,285.9 173.8,285.9 173.8,84.2 146.7,84.2 115.5,120.8 115.5,156.2 
	115.8,156.2 "/>
<g>
	<path class="st0" d="M770.1,477.1c0-15.3,12.4-27.7,27.7-27.6c15.3,0,27.7,12.4,27.6,27.7c0,15.3-12.4,27.6-27.6,27.6
		C782.5,504.8,770.1,492.4,770.1,477.1"/>
	<path class="st0" d="M830.2,515.5c19,1.8,33.5,17.7,33.5,36.8V629c0,5.9-4.8,10.7-10.7,10.7c-5.9,0-10.7-4.8-10.7-10.7v-66
		c0-2.5-0.7-5.8-5.2-5.8c-3.1,0-3.8,3.3-3.9,5.4v197.5c0,8.5-6.9,15.4-15.4,15.4c-8.5,0-15.4-6.9-15.4-15.4V646.4
		c0-1.3-0.5-4.5-4.4-4.5l0,0c-3.9,0-4.4,3.3-4.5,4.5v113.8c0.2,8.5-6.5,15.6-15,15.8s-15.6-6.5-15.8-15c0-0.3,0-0.5,0-0.8V562.7
		c-0.1-2.1-0.8-5.4-3.9-5.4c-4.5,0-5.2,3.3-5.2,5.8V629c-0.3,5.9-5.3,10.5-11.2,10.3c-5.6-0.2-10-4.7-10.3-10.3v-76.8
		c0-19.1,14.5-35,33.5-36.8c0.7-0.1,1.3-0.2,2-0.2H828C828.7,515.3,829.4,515.3,830.2,515.5"/>
</g>
<g>
	<path class="st0" d="M605.5,491.6c0-14.5-11.7-26.2-26.2-26.2c-14.5,0-26.2,11.7-26.2,26.2s11.7,26.2,26.2,26.2c0,0,0,0,0,0
		C593.8,517.8,605.5,506.1,605.5,491.6"/>
	<path class="st0" d="M526.5,551l-21.8,71c0,0-3.9,13,7.1,16.2s14.3-9.4,14.3-9.4l17.6-59.2c0,0,1-4.6,4.4-3.6s2.1,5.8,2.1,5.8
		l-30.6,111h28.4v79.5c0.2,7.5,6.5,13.5,14,13.3c7.3-0.2,13.1-6,13.3-13.3v-79.6h7.8v79.5c0.2,7.5,6.5,13.5,14,13.3
		c7.3-0.2,13.1-6,13.3-13.3v-79.5h28.4l-30.6-111c0,0-1.3-4.8,2.1-5.8s4.4,3.6,4.4,3.6l17.6,59.2c0,0,3.3,12.7,14.3,9.4
		s7.2-16.2,7.2-16.2l-21.8-71c0,0-7.8-20.5-25-20.5h-55.6C534.3,530.5,526.5,551,526.5,551"/>
</g>
<g>
	<path class="st0" d="M448.5,491.6c0-14.5-11.7-26.2-26.2-26.2c-14.5,0-26.2,11.7-26.2,26.2c0,14.5,11.7,26.2,26.2,26.2l0,0
		C436.8,517.8,448.5,506.1,448.5,491.6"/>
	<path class="st0" d="M369.5,551l-21.8,71c0,0-3.9,13,7.1,16.2s14.3-9.4,14.3-9.4l17.6-59.2c0,0,1-4.6,4.4-3.6s2.1,5.8,2.1,5.8
		l-30.6,111h28.4v79.5c0,7.5,6.1,13.7,13.7,13.7s13.7-6.1,13.7-13.7l0,0v-79.6h7.8v79.5c0.2,7.5,6.5,13.5,14,13.3
		c7.3-0.2,13.1-6,13.3-13.3v-79.5h28.5l-30.6-111c0,0-1.3-4.9,2.1-5.8s4.4,3.6,4.4,3.6l17.6,59.2c0,0,3.3,12.7,14.3,9.4
		s7.1-16.2,7.1-16.2l-21.8-71c0,0-7.8-20.5-25-20.5h-55.6C377.3,530.5,369.5,551,369.5,551"/>
</g>
<g>
	<path class="st0" d="M693.5,638.3c12.1,0,21.8-9.8,21.8-21.8c0-12.1-9.8-21.8-21.8-21.8c-12,0-21.8,9.8-21.8,21.8
		C671.7,628.5,681.4,638.3,693.5,638.3C693.5,638.3,693.5,638.3,693.5,638.3"/>
	<path class="st0" d="M641.2,706.1c-1.1,2.5-1.9,8,3.2,10.3c6,2.8,9.3-3,9.3-3l11.9-37.8c0,0,2.1-2.5,2.1,0.1v89h0
		c0.2,6.2,5.3,11,11.5,10.9c5.9-0.2,10.7-4.9,10.9-10.9v-35.2c0,0-0.7-5,3.4-5s3.4,5,3.4,5v35.2c0,6.2,5,11.2,11.2,11.2
		c6.2,0,11.2-5,11.2-11.2v-89.1c0-2.6,1.4-0.8,1.4-0.8l9.3,25.9c0,0,4,11.6,5.3,12.1c4.2,1.8,9-0.2,10.8-4.4c0,0,0,0,0,0
		c1.1-2.6,0.8-5.7-0.9-8l0.1-0.1c-0.3-0.8-13.9-34.3-15.5-39c-4.9-14.4-13.9-14.2-22.5-14.5s-13.8,0-13.8,0s-5.5-0.2-16.9,0.1
		s-15,6.2-27.5,38.5C647.3,690.1,641.2,705.2,641.2,706.1L641.2,706.1z"/>
</g>
<g>
	<path class="st0" d="M186.7,504.8c15.3,0,27.7-12.4,27.7-27.7c0-15.3-12.4-27.7-27.7-27.7S159,461.8,159,477.1c0,0,0,0,0,0
		C159,492.4,171.4,504.7,186.7,504.8z"/>
	<path class="st0" d="M219.2,515.3c-0.7-0.1-1.5-0.3-2.2-0.3h-60.5c-0.7,0.1-1.3,0.2-2,0.3c-19,1.8-33.5,17.8-33.5,36.9V629
		c0,3.9,2.1,7.6,5.6,9.5c-0.2,0.3-0.3,0.6-0.4,0.9l-24.6,130.3c-0.4,2.2,1,4.3,3.1,4.7c0,0,0.1,0,0.1,0c0.2,0,0.5,0.1,0.8,0.1
		c2,0,3.6-1.4,4-3.3l24.6-130.3c0-0.5,0-1-0.1-1.5c4.7-1.2,8-5.5,7.9-10.4v-66c0-2.5,0.6-5.8,5.2-5.8c3.1,0,3.8,3.3,3.8,5.4v197.5
		c0,8.6,6.9,15.5,15.5,15.5s15.5-6.9,15.5-15.5V646.4c0-2.4,1.8-4.3,4.2-4.4c0.1,0,0.3,0,0.4,0l0,0c3.9,0,4.3,3.1,4.3,4.4v113.8
		c0,8.6,6.9,15.5,15.5,15.5s15.5-6.9,15.5-15.5V562.7c0-2.1,0.7-5.4,3.8-5.4c4.6,0,5.2,3.3,5.2,5.8V629c0,6.1,4.9,11,11,11
		s11-4.9,11-11v-76.8C252.9,533.1,238.3,517.1,219.2,515.3z"/>
</g>
<g>
	<path class="st0" d="M326.2,674.4l20.2-36.8c0,0,2.4-5.3,2.4-6.5c-0.1-4.4-3.7-7.9-8.1-7.9c-2.7,0-5.1,1.4-6.6,3.7H334
		c-0.6,0.5-10.8,18.6-14.2,22c-3.5,3.6-6.7,3.1-6.7,3.1h-26.4c0,0-3.2,0.5-6.7-3.1c-3.4-3.4-13.5-21.5-14.2-22l-0.1,0.1
		c-2.4-3.7-7.4-4.7-11.1-2.3c-2.2,1.4-3.5,3.8-3.6,6.4c0.1,1.2,0.4,2.4,0.8,3.5l22,39.8c0.8,1.7,1.2,3.4,1.3,5.2v7.8L263.5,730H275
		v35h0.1c0.1,6,4.9,10.8,10.9,10.8c6,0.1,10.8-4.7,10.9-10.7v-33.7c-0.3-0.4-0.5-0.9-0.4-1.4h6.5c0.1,0.5,0,1-0.1,1.4v33.7
		c0,6.1,4.9,11,11,11s11-4.9,11-11V730h11.3L325,687.2v-7.6C325.1,677.9,325.5,676.1,326.2,674.4z"/>
	<path class="st0" d="M299.9,638.3c12.1,0,21.8-9.8,21.8-21.8s-9.8-21.8-21.8-21.8c-12,0-21.8,9.8-21.8,21.8
		C278,628.5,287.8,638.3,299.9,638.3C299.8,638.3,299.9,638.3,299.9,638.3z"/>
</g>
<g>
	<path class="st0" d="M291.3,165.9V84.5H324v11.2h-19v23.3h13.6v11H305v24.7h19v11.2H291.3z"/>
	<path class="st0" d="M332.7,165.9V84.5h13.7v81.4H332.7z"/>
	<path class="st0" d="M383.4,165.9l-16.1-51.1v51.1h-11.5V84.5h13.4l14.8,46.7V84.5h11.4v81.4H383.4z"/>
	<path class="st0" d="M432.6,165.9l-14.3-39.6v39.6h-13.7V84.5h13.7v35.8l14.9-35.8h13.4l-15.8,36.6l16.2,44.8H432.6z"/>
	<path class="st0" d="M453.6,165.9V84.5h13.7v81.4H453.6z"/>
	<path class="st0" d="M291.3,285.9v-81.4h32v11.2H305v23.3h13.7v11H305v35.9H291.3z"/>
	<path class="st0" d="M336.8,285.9h-13l15.4-81.4h15.6l15.5,81.4h-14l-2.5-14.9h-14.5L336.8,285.9z M358.2,189.3v9.5l-21.5,2.8v-7.7
		L358.2,189.3z M346.4,227.4l-5.4,32.6h10.9l-5.4-32.6H346.4z"/>
	<path class="st0" d="M369.8,215.7v-11.2h36.4v11.2h-11.3v70.2h-13.8v-70.2H369.8z"/>
	<path class="st0" d="M417.3,285.9h-13l20.8-81.4h41v11.2h-19v23.3h13.6v11h-13.6v24.7h19v11.2h-32.6V271h-12.7L417.3,285.9z
		 M433.4,217.1l-10.1,43h10.2v-43H433.4z"/>
	<path class="st0" d="M502.9,285.9l-14.3-39.6v39.6h-13.7v-81.4h13.7v35.8l14.9-35.8h13.4l-15.8,36.6l16.2,44.8H502.9z"/>
	<path class="st0" d="M534.7,285.9h-13l15.4-81.4h15.6l15.5,81.4h-14l-2.5-14.9h-14.5L534.7,285.9z M544.3,227.4l-5.4,32.6h10.9
		l-5.4-32.6H544.3z"/>
	<path class="st0" d="M596.4,204.5c13.2,0,19.8,7.3,19.8,21.8V264c0,14.6-6.6,21.8-19.8,21.8h-21.1v-81.4H596.4z M588.9,274.7h5.8
		c5.2,0,7.8-2.8,7.8-8.3v-42.6c0-5.4-2.6-8.2-7.8-8.2h-5.8V274.7z"/>
	<path class="st0" d="M646.1,286.8c-5.3,0-9.6-1.2-12.8-3.5l-1.9,4.7h-5.9l3.7-9c-2.5-3.7-3.7-8.4-3.7-14.2v-39.4
		c0-6.7,1.7-12.1,5.2-16c3.4-4,8.6-5.9,15.5-5.9c5.2,0,9.5,1.2,13,3.6l1.9-4.7h5.9l-3.7,8.9c2.5,3.7,3.7,8.4,3.7,14.2v39.4
		c0,6.6-1.7,12-5.2,16C658.2,284.8,653,286.8,646.1,286.8z M638.6,223v33.2l14.8-35.5c-0.8-4.1-3.2-6.1-7.3-6.1
		c-2.3,0-4.1,0.8-5.5,2.3C639.3,218.4,638.6,220.4,638.6,223z M646.1,275.8c2.4,0,4.3-0.8,5.6-2.3c1.3-1.5,2-3.6,2-6.1v-33.1
		l-14.8,35.6C639.7,273.8,642.1,275.8,646.1,275.8z"/>
	<path class="st0" d="M713.7,285.9v-52.8h-0.4l-9.2,52.8h-6.4l-10.2-52.8h-0.2v52.8h-11.3v-81.4h16l8.9,45.8h0.1l7.9-45.8h17.3v81.4
		H713.7z"/>
	<path class="st0" d="M735.5,285.9v-81.4h13.7v81.4H735.5z"/>
</g>
</svg>
