<?xml version="1.0" encoding="utf-8"?>
<!-- Generator: Adobe Illustrator 26.1.0, SVG Export Plug-In . SVG Version: 6.00 Build 0)  -->
<svg version="1.1" id="Layer_1" focusable="false" xmlns="http://www.w3.org/2000/svg" xmlns:xlink="http://www.w3.org/1999/xlink"
	 x="0px" y="0px" viewBox="0 0 1000 1000" style="enable-background:new 0 0 1000 1000;" xml:space="preserve">
<style type="text/css">
	.st0{fill:#FFFFFF;}
</style>
<link  id="dark-mode-general-link" rel="stylesheet" type="text/css" xmlns=""></link>
<link  id="dark-mode-custom-link" rel="stylesheet" type="text/css" xmlns=""></link>
<polygon class="st0" points="71.7,120.4 71.7,155.8 71.9,155.8 95.7,131.1 96,131.1 96,285.4 129.9,285.4 129.9,83.8 102.9,83.8 "/>
<polygon class="st0" points="149,120.4 149,155.8 149.3,155.8 173.1,131.1 173.4,131.1 173.4,285.4 207.3,285.4 207.3,83.8 
	180.2,83.8 "/>
<g>
	<g>
		<path class="st0" d="M165,761.3h150.4c2,0,3.7-1.6,3.7-3.6c0-0.9-0.3-1.8-1-2.5l-0.2-0.2l-74.8-96.8l-0.7-0.8
			c-0.7-0.8-1.7-1.2-2.7-1.2c-0.9,0-1.8,0.4-2.4,1l-0.4,0.5l-0.7,0.8l-73,95.8l-1.1,1.4c-0.4,0.6-0.6,1.3-0.6,2.1
			C161.3,759.6,162.9,761.3,165,761.3C165,761.3,165,761.3,165,761.3z"/>
		<path class="st0" d="M314.9,775H164.2c-2,0-3.7,1.7-3.7,3.7l0,0v117.9c0,2,1.6,3.7,3.7,3.7c0,0,0,0,0,0h48.5v-74.2
			c0-2,1.6-3.7,3.7-3.7c0,0,0,0,0,0h45c2,0,3.7,1.6,3.7,3.7c0,0,0,0,0,0v74.2h49.8c2,0,3.7-1.7,3.7-3.7v0V778.7
			C318.6,776.6,316.9,775,314.9,775z"/>
	</g>
	<path class="st0" d="M835.8,744.1H686.7c-2,0-3.6,1.5-3.6,3.5c0,0,0,0,0,0v150.6c0,2,1.7,3.6,3.7,3.5h149.2c2,0,3.6-1.6,3.7-3.5
		c0,0,0,0,0,0V747.6C839.5,745.6,837.8,744.1,835.8,744.1C835.9,744.1,835.8,744.1,835.8,744.1 M754.2,842.4c0,2-1.7,3.6-3.6,3.6
		c0,0,0,0,0,0H706c-2,0-3.6-1.6-3.7-3.6c0,0,0,0,0,0v-27.1c0-2,1.7-3.6,3.6-3.6c0,0,0,0,0,0h44.6c2,0,3.6,1.6,3.6,3.5c0,0,0,0,0,0
		V842.4z M754.2,792.4c0,2-1.7,3.6-3.6,3.6c0,0,0,0,0,0H706c-2,0-3.6-1.6-3.7-3.6c0,0,0,0,0,0v-27.1c0-2,1.7-3.6,3.7-3.5h44.6
		c2,0,3.6,1.6,3.6,3.5c0,0,0,0,0,0V792.4z M822.3,842.4c0,2-1.7,3.6-3.6,3.6c0,0,0,0,0,0h-44.6c-2,0-3.6-1.6-3.7-3.5c0,0,0,0,0,0
		v-27.1c0-2,1.7-3.6,3.6-3.6c0,0,0,0,0,0h44.5c2,0,3.6,1.6,3.7,3.5c0,0,0,0,0,0L822.3,842.4z M822.3,792.4c0,2-1.7,3.6-3.6,3.6
		c0,0,0,0,0,0h-44.6c-2,0-3.6-1.6-3.7-3.5c0,0,0,0,0,0v-27.1c0-2,1.7-3.6,3.7-3.5c0,0,0,0,0,0h44.5c2,0,3.6,1.6,3.7,3.5c0,0,0,0,0,0
		L822.3,792.4z"/>
	<path class="st0" d="M489.1,394.4h-146c-2,0-3.6,1.6-3.6,3.6l0,0v498.9c0,2,1.6,3.6,3.6,3.6h146c2,0,3.6-1.6,3.6-3.6V398
		C492.6,396,491,394.4,489.1,394.4 M402.2,843.7c0,1.1-0.9,1.9-1.9,1.9h-33.4c-1.1,0-1.9-0.9-1.9-1.9v-37.2c0-1.1,0.9-1.9,1.9-1.9
		c0,0,0,0,0,0h33.4c1.1,0,1.9,0.8,1.9,1.9c0,0,0,0,0,0V843.7z M402.2,758.1c0,1.1-0.9,1.9-1.9,1.9h0h-33.4c-1,0-1.9-0.9-1.9-1.9
		v-37.2c0-1.1,0.8-1.9,1.9-1.9c0,0,0,0,0,0h33.4c1.1,0,1.9,0.8,1.9,1.9c0,0,0,0,0,0V758.1z M402.2,672.6c0,1.1-0.9,1.9-1.9,1.9
		h-33.4c-1.1,0-1.9-0.9-1.9-1.9v-37.3c0-1.1,0.9-1.9,1.9-1.9h33.4c1.1,0,1.9,0.9,1.9,1.9V672.6z M402.2,587c0,1.1-0.9,1.9-1.9,1.9
		h-33.4c-1.1,0-1.9-0.9-1.9-1.9v-37.2c0-1,0.9-1.9,1.9-1.9c0,0,0,0,0,0h33.4c1,0,1.9,0.8,1.9,1.9c0,0,0,0,0,0V587z M402.2,501.5
		c0,1.1-0.9,1.9-1.9,1.9h-33.4c-1.1,0-1.9-0.9-1.9-1.9v-37.3c0-1.1,0.9-1.9,1.9-1.9h0h33.4c1.1,0,1.9,0.9,1.9,1.9v0V501.5z
		 M467.8,843.7c0,1.1-0.9,1.9-1.9,1.9c0,0,0,0,0,0h-33.4c-1.1,0-1.9-0.8-1.9-1.9c0,0,0,0,0,0v-37.2c0-1.1,0.9-1.9,1.9-1.9
		c0,0,0,0,0,0h33.4c1.1,0,1.9,0.8,1.9,1.9c0,0,0,0,0,0L467.8,843.7z M467.8,758.1c0,1.1-0.8,1.9-1.9,1.9c0,0,0,0,0,0h-33.4
		c-1,0-1.9-0.8-1.9-1.9c0,0,0,0,0,0v-37.2c0-1,0.8-1.9,1.9-1.9c0,0,0,0,0,0h33.4c1.1,0,1.9,0.8,1.9,1.9c0,0,0,0,0,0L467.8,758.1z
		 M467.8,672.6c0,1.1-0.9,1.9-1.9,1.9c0,0,0,0,0,0h-33.4c-1.1,0-1.9-0.8-1.9-1.9c0,0,0,0,0,0v-37.3c0-1.1,0.9-1.9,1.9-1.9
		c0,0,0,0,0,0h33.4c1.1,0,1.9,0.8,1.9,1.9l0,0L467.8,672.6z M467.8,587c0,1.1-0.9,1.9-1.9,1.9c0,0,0,0,0,0h-33.4
		c-1.1,0-1.9-0.8-1.9-1.9c0,0,0,0,0,0v-37.3c0-1,0.9-1.9,1.9-1.9c0,0,0,0,0,0h33.4c1,0,1.9,0.8,1.9,1.9c0,0,0,0,0,0L467.8,587z
		 M467.8,501.5c0,1.1-0.9,1.9-1.9,1.9c0,0,0,0,0,0h-33.4c-1.1,0-1.9-0.8-1.9-1.9c0,0,0,0,0,0v-37.3c0-1.1,0.8-1.9,1.9-1.9
		c0,0,0,0,0,0h33.4c1.1,0,1.9,0.8,1.9,1.9c0,0,0,0,0,0L467.8,501.5z"/>
	<path class="st0" d="M839.3,728.9c0,1.7-1.3,3-3,3H686.2c-1.7,0-3-1.3-3-3v-30c0-1.7,1.3-3,3-3h150.2c1.7,0,3,1.3,3,3V728.9z"/>
	<path class="st0" d="M665.4,488.6c-0.5-1.6-2-2.8-3.7-2.8c-0.7,0-1.5,0.3-2.1,0.7l-0.3,0.2l-1.2,1.6l-143.5,182l-0.7,0.9
		c-0.8,0.7-1.2,1.8-1.2,2.8v223.6c0,2,1.6,3.6,3.6,3.6c0,0,0,0,0,0h145.8c2,0,3.6-1.6,3.6-3.5c0,0,0,0,0,0V490.1
		C665.7,489.6,665.6,489.1,665.4,488.6z M605,587.5l1-1.3c9.8-12.6,26.4-33,34.4-42.9l1.1-1.3c0.8-1,2-1.5,3.2-1.5
		c2,0,3.6,1.4,4,3.3V590c0,2.2-1.8,4-4,4.1c-0.1,0-0.1,0-0.2,0s-0.1,0-0.2,0h-35.8c-0.1,0-0.1,0-0.2,0s-0.1,0-0.2,0
		c-2.2-0.1-4-1.9-4-4.1C604.2,589.1,604.5,588.2,605,587.5z M582.3,842.4c0,2-1.6,3.6-3.5,3.6c0,0,0,0,0,0h-43.5
		c-2,0-3.6-1.6-3.6-3.5c0,0,0,0,0,0v-27.2c0-2,1.6-3.6,3.6-3.6c0,0,0,0,0,0h43.5c2,0,3.6,1.6,3.6,3.5c0,0,0,0,0,0L582.3,842.4z
		 M582.3,792.1c0,2-1.6,3.6-3.5,3.6c0,0,0,0,0,0h-43.5c-2,0-3.6-1.6-3.6-3.5c0,0,0,0,0,0v-27.2c0-2,1.6-3.6,3.5-3.6c0,0,0,0,0,0
		h43.5c2,0,3.6,1.6,3.6,3.5c0,0,0,0,0,0L582.3,792.1z M582.3,741.8c0,2-1.6,3.6-3.6,3.6c0,0,0,0,0,0h-43.5c-2,0-3.6-1.6-3.6-3.5
		c0,0,0,0,0,0v-27.2c0-2,1.6-3.6,3.5-3.6c0,0,0,0,0,0h43.5c2,0,3.6,1.6,3.6,3.5c0,0,0,0,0,0L582.3,741.8z M582.4,631.5v60
		c0,2-1.6,3.6-3.6,3.6h-43.5c-2,0-3.6-1.6-3.6-3.5c0,0,0,0,0,0v-7.5c0-0.5,0.1-0.9,0.3-1.3c0.1-0.1,0.1-0.3,0.2-0.4
		c0.1-0.2,0.2-0.3,0.3-0.5c0.1-0.2,0.3-0.4,0.4-0.6c5.6-8,30.7-38.9,41.2-51.8l1.1-1.3c0.8-1,2-1.5,3.2-1.5c2,0,3.6,1.4,4,3.3
		L582.4,631.5z M648.8,842.4c0,2-1.6,3.6-3.6,3.6l0,0h-43.5c-2,0-3.6-1.6-3.6-3.5c0,0,0,0,0,0v-27.2c0-2,1.6-3.6,3.6-3.6
		c0,0,0,0,0,0h43.5c2,0,3.6,1.6,3.6,3.6V842.4z M648.8,792.1c0,2-1.6,3.6-3.6,3.6l0,0h-43.5c-2,0-3.6-1.6-3.6-3.5c0,0,0,0,0,0v-27.2
		c0-2,1.6-3.6,3.5-3.6c0,0,0,0,0,0h43.5c2,0,3.6,1.6,3.6,3.6l0,0V792.1z M648.8,741.8c0,2-1.6,3.6-3.6,3.6h-43.5
		c-2,0-3.6-1.6-3.6-3.5c0,0,0,0,0,0v-27.2c0-2,1.6-3.6,3.6-3.6c0,0,0,0,0,0h43.5c2,0,3.6,1.6,3.6,3.6l0,0V741.8z M648.8,691.4
		c0,2-1.6,3.6-3.6,3.6h-43.5c-2,0-3.6-1.6-3.6-3.5c0,0,0,0,0,0v-27.2c0-2,1.6-3.6,3.6-3.6c0,0,0,0,0,0h43.5c2,0,3.6,1.6,3.6,3.6l0,0
		V691.4z M648.8,641.1c0,2-1.6,3.6-3.6,3.6l0,0h-43.5c-2,0-3.6-1.6-3.6-3.5c0,0,0,0,0,0v-27.2c0-2,1.6-3.6,3.6-3.6c0,0,0,0,0,0h43.5
		c2,0,3.6,1.6,3.6,3.6c0,0,0,0,0,0V641.1z"/>
</g>
<g>
	<path class="st0" d="M277.3,165.9V84.5h19.8c6.6,0,11.3,1.5,14.1,4.4c2.8,3,4.1,7.4,4.1,13.4v8.3c0,6.9-2.7,11.2-8.2,13
		c6.8,1.5,10.2,6,10.2,13.6V148c0,5.9-1.5,10.4-4.4,13.4c-3,3-7.8,4.5-14.4,4.5H277.3z M291,95.7v23.2h4.8c4.3,0,6.5-2.2,6.5-6.6
		v-10c0-4.4-2.2-6.6-6.6-6.6H291z M296.9,129.3H291v25.4h6c4.5,0,6.7-2.2,6.7-6.6v-12.2C303.7,131.5,301.5,129.3,296.9,129.3z"/>
	<path class="st0" d="M352.8,84.5h12.6v61.6c0,13.8-6.4,20.8-19.3,20.8c-13.6,0-20.4-6.9-20.4-20.8V84.5h13.7v62.9
		c0,5.4,2.2,8,6.7,8c4.5,0,6.7-2.7,6.7-8V84.5z"/>
	<path class="st0" d="M401.2,165.9l-12.8-37.3v37.3h-13.7V84.5h19.9c6.6,0,11.4,1.6,14.4,4.7c3,3.1,4.4,7.6,4.4,13.6v10.4
		c0,8.8-3.6,14-10.9,15.7l13.1,37H401.2z M392.9,95.7h-4.6V121h4.6c4.5,0,6.7-2.2,6.7-6.7v-12C399.6,97.9,397.4,95.7,392.9,95.7z"/>
	<path class="st0" d="M420,130v-11h3.5V84.5h21.1c13.2,0,19.8,7.3,19.8,21.8V144c0,14.6-6.6,21.8-19.8,21.8h-21.1V130H420z
		 M437.2,154.7h5.8c5.2,0,7.8-2.8,7.8-8.3v-42.6c0-5.4-2.6-8.2-7.8-8.2h-5.8v23.3h8.8v11h-8.8V154.7z"/>
	<path class="st0" d="M482.7,165.9h-13l15.4-81.4h15.6l15.5,81.4h-14l-2.5-14.9h-14.5L482.7,165.9z M492.3,107.4l-5.4,32.6h10.9
		l-5.4-32.6H492.3z"/>
	<path class="st0" d="M549.7,165.9l-12.8-37.3v37.3h-13.7V84.5h19.9c6.6,0,11.4,1.6,14.4,4.7c3,3.1,4.4,7.6,4.4,13.6v10.4
		c0,8.8-3.6,14-10.9,15.7l13.1,37H549.7z M541.5,95.7h-4.6V121h4.6c4.5,0,6.7-2.2,6.7-6.7v-12C548.2,97.9,545.9,95.7,541.5,95.7z"/>
	<path class="st0" d="M592,84.5c13.2,0,19.8,7.3,19.8,21.8V144c0,14.6-6.6,21.8-19.8,21.8h-21.1V84.5H592z M584.5,154.7h5.8
		c5.2,0,7.8-2.8,7.8-8.3v-42.6c0-5.4-2.6-8.2-7.8-8.2h-5.8V154.7z"/>
	<path class="st0" d="M659.8,84.5l-15.1,50.4v31H631v-31l-15.2-50.4H630l8.3,30.8h0.1l8.3-30.8H659.8z"/>
	<path class="st0" d="M684.4,133.2v-10.8h19.4v43.4H694V157c-1.9,6.6-6.3,9.8-13.1,9.8c-5.7,0-10-2-12.8-6c-2.9-4-4.3-9.3-4.3-16
		v-39.4c0-6.7,1.7-12.1,5.1-16c3.4-4,8.5-5.9,15.4-5.9c7.1,0,12.2,1.8,15.1,5.3c3,3.6,4.4,8.6,4.4,15.1v7.2h-12.5v-8.3
		c0-5.3-2.3-7.9-6.8-7.9c-4.7,0-7.1,2.8-7.1,8.4V147c0,5.6,2.2,8.4,6.7,8.4c4.5,0,6.7-2.6,6.7-7.8v-14.4H684.4z"/>
	<path class="st0" d="M733.7,133.2v-10.8h19.4v43.4h-9.8V157c-1.9,6.6-6.3,9.8-13.1,9.8c-5.7,0-10-2-12.8-6c-2.9-4-4.3-9.3-4.3-16
		v-39.4c0-6.7,1.7-12.1,5.1-16c3.4-4,8.5-5.9,15.4-5.9c7.1,0,12.2,1.8,15.1,5.3c3,3.6,4.4,8.6,4.4,15.1v7.2h-12.5v-8.3
		c0-5.3-2.3-7.9-6.8-7.9c-4.7,0-7.1,2.8-7.1,8.4V147c0,5.6,2.2,8.4,6.7,8.4c4.5,0,6.7-2.6,6.7-7.8v-14.4H733.7z"/>
	<path class="st0" d="M762.4,165.9V84.5h13.7v81.4H762.4z"/>
	<path class="st0" d="M811.9,165.9l-12.8-37.3v37.3h-13.7V84.5h19.9c6.6,0,11.4,1.6,14.4,4.7c3,3.1,4.4,7.6,4.4,13.6v10.4
		c0,8.8-3.6,14-10.9,15.7l13.1,37H811.9z M803.7,95.7h-4.6V121h4.6c4.5,0,6.7-2.2,6.7-6.7v-12C810.4,97.9,808.1,95.7,803.7,95.7z"/>
	<path class="st0" d="M277.3,285.9v-81.4h19.8c6.6,0,11.3,1.5,14.1,4.4c2.8,3,4.1,7.4,4.1,13.4v8.3c0,6.9-2.7,11.2-8.2,13
		c6.8,1.5,10.2,6,10.2,13.6V268c0,5.9-1.5,10.4-4.4,13.4c-3,3-7.8,4.5-14.4,4.5H277.3z M291,215.7v23.2h4.8c4.3,0,6.5-2.2,6.5-6.6
		v-10c0-4.4-2.2-6.6-6.6-6.6H291z M296.9,249.3H291v25.4h6c4.5,0,6.7-2.2,6.7-6.6v-12.2C303.7,251.5,301.5,249.3,296.9,249.3z"/>
	<path class="st0" d="M363.9,204.5l-15.1,50.4v31h-13.7v-31l-15.2-50.4h14.3l8.3,30.8h0.1l8.3-30.8H363.9z M352.7,189.3v9.5
		l-21.5,2.8v-7.7L352.7,189.3z"/>
	<path class="st0" d="M370.8,285.9v-81.4h13.7v81.4H370.8z"/>
	<path class="st0" d="M420.4,285.9l-12.8-37.3v37.3h-13.7v-81.4h19.9c6.6,0,11.4,1.6,14.4,4.7c3,3.1,4.4,7.6,4.4,13.6v10.4
		c0,8.8-3.6,14-10.9,15.7l13.1,37H420.4z M412.1,215.7h-4.6V241h4.6c4.5,0,6.7-2.2,6.7-6.7v-12C418.8,217.9,416.6,215.7,412.1,215.7
		z"/>
	<path class="st0" d="M476.2,286.8c-6.9,0-12-2-15.5-6c-3.4-4-5.2-9.3-5.2-16v-39.4c0-6.7,1.7-12.1,5.2-16c3.4-4,8.6-5.9,15.5-5.9
		c7,0,12.2,2,15.6,5.9c3.4,4,5.2,9.3,5.2,16v39.4c0,6.6-1.7,12-5.2,16C488.3,284.8,483.1,286.8,476.2,286.8z M476.2,275.4
		c4.7,0,7.1-2.8,7.1-8.4v-43.7c0-5.6-2.4-8.4-7.1-8.4c-4.6,0-7,2.8-7,8.4V267C469.2,272.6,471.5,275.4,476.2,275.4z"/>
	<path class="st0" d="M526.8,253.2v-10.8h19.4v43.4h-9.8V277c-1.9,6.6-6.3,9.8-13.1,9.8c-5.7,0-10-2-12.8-6c-2.9-4-4.3-9.3-4.3-16
		v-39.4c0-6.7,1.7-12.1,5.1-16c3.4-4,8.5-5.9,15.4-5.9c7.1,0,12.2,1.8,15.1,5.3c3,3.6,4.4,8.6,4.4,15.1v7.2h-12.5v-8.3
		c0-5.3-2.3-7.9-6.8-7.9c-4.7,0-7.1,2.8-7.1,8.4V267c0,5.6,2.2,8.4,6.7,8.4c4.5,0,6.7-2.6,6.7-7.8v-14.4H526.8z"/>
	<path class="st0" d="M569.5,285.9v-81.4h19.8c6.6,0,11.3,1.5,14.1,4.4c2.8,3,4.1,7.4,4.1,13.4v8.3c0,6.9-2.7,11.2-8.2,13
		c6.8,1.5,10.2,6,10.2,13.6V268c0,5.9-1.5,10.4-4.4,13.4c-3,3-7.8,4.5-14.4,4.5H569.5z M583.2,215.7v23.2h4.8c4.3,0,6.5-2.2,6.5-6.6
		v-10c0-4.4-2.2-6.6-6.6-6.6H583.2z M589.1,249.3h-5.9v25.4h6c4.5,0,6.7-2.2,6.7-6.6v-12.2C595.9,251.5,593.7,249.3,589.1,249.3z"/>
	<path class="st0" d="M656.1,204.5l-15.1,50.4v31h-13.7v-31L612,204.5h14.3l8.3,30.8h0.1l8.3-30.8H656.1z M644.9,189.3v9.5
		l-21.5,2.8v-7.7L644.9,189.3z"/>
	<path class="st0" d="M663,285.9v-81.4h13.7v70.2H693v11.2H663z"/>
	<path class="st0" d="M700.7,285.9v-81.4h13.7v81.4H700.7z"/>
	<path class="st0" d="M751.3,285.9l-16.1-51.1v51.1h-11.5v-81.4h13.4l14.8,46.7v-46.7h11.4v81.4H751.3z"/>
	<path class="st0" d="M793.2,253.2v-10.8h19.4v43.4h-9.8V277c-1.9,6.6-6.3,9.8-13.1,9.8c-5.7,0-10-2-12.8-6c-2.9-4-4.3-9.3-4.3-16
		v-39.4c0-6.7,1.7-12.1,5.1-16c3.4-4,8.5-5.9,15.4-5.9c7.1,0,12.2,1.8,15.1,5.3c3,3.6,4.4,8.6,4.4,15.1v7.2h-12.5v-8.3
		c0-5.3-2.3-7.9-6.8-7.9c-4.7,0-7.1,2.8-7.1,8.4V267c0,5.6,2.2,8.4,6.7,8.4c4.5,0,6.7-2.6,6.7-7.8v-14.4H793.2z"/>
	<path class="st0" d="M832.7,285.9h-13l15.4-81.4h15.6l15.5,81.4h-14l-2.5-14.9h-14.5L832.7,285.9z M842.3,227.4l-5.4,32.6h10.9
		l-5.4-32.6H842.3z"/>
	<path class="st0" d="M899.8,285.9l-12.8-37.3v37.3h-13.7v-81.4h19.9c6.6,0,11.4,1.6,14.4,4.7c3,3.1,4.4,7.6,4.4,13.6v10.4
		c0,8.8-3.6,14-10.9,15.7l13.1,37H899.8z M891.5,215.7h-4.6V241h4.6c4.5,0,6.7-2.2,6.7-6.7v-12C898.2,217.9,896,215.7,891.5,215.7z"
		/>
</g>
</svg>
