<?xml version="1.0" encoding="utf-8"?>
<!-- Generator: Adobe Illustrator 26.1.0, SVG Export Plug-In . SVG Version: 6.00 Build 0)  -->
<svg version="1.1" id="Layer_1" focusable="false" xmlns="http://www.w3.org/2000/svg" xmlns:xlink="http://www.w3.org/1999/xlink"
	 x="0px" y="0px" viewBox="0 0 1000 1000" style="enable-background:new 0 0 1000 1000;" xml:space="preserve">
<style type="text/css">
	.st0{fill:#FFFFFF;}
</style>
<link  id="dark-mode-general-link" rel="stylesheet" type="text/css" xmlns=""></link>
<link  id="dark-mode-custom-link" rel="stylesheet" type="text/css" xmlns=""></link>
<polygon class="st0" points="126.2,83.9 126.2,285.4 92.3,285.4 92.3,131.1 92,131.1 68.3,155.8 67.9,155.8 67.9,120.4 99.2,83.9 
	"/>
<path class="st0" d="M238,127.6v17.5c0,16.9-9.2,28.2-23.2,32.7c16.9,3.9,25,15.8,25,34.2v29.7c0,27.9-14.9,46.1-49.1,46.1
	c-34.5,0-46.7-19.6-46.7-50.2v-26.4H175V240c0,11.9,4.1,19.6,15.8,19.6c10.4,0,15.1-7.4,15.1-18.1v-33.3c0-10.7-4.8-16.4-16.6-16.4
	H175v-25.9h12.8c11,0,18.1-5.7,18.1-16.4v-21.7c0-11-3.9-18.1-14.6-18.1s-14.6,7.1-14.6,19.6v20.5h-31V132
	c0-29.7,12.2-50.5,47.3-50.5C224.3,81.5,238,99,238,127.6"/>
<path class="st0" d="M867.1,626C840.7,589.1,721.6,441.5,500,441.5S159.3,589.1,132.9,626c-1.1,1.6-2.1,3-2.9,4.1
	c0.8,1.2,1.8,2.5,2.9,4.2c26.4,37,145.5,184.5,367.1,184.5s340.7-147.6,367.1-184.5c1.2-1.6,2.1-3,2.8-4.2
	C869.2,629,868.2,627.6,867.1,626 M376.5,534.8c2-2.9,8.6-11.3,9.4-12.3c1.7-2.2,5.1-2.7,7.5-3.1s5.5,0.9,5.9,2.6s-0.9,8.6-2.1,9.8
	c-3.2,3.4-11.7,8.1-16.4,7.4C377.2,538.7,375.8,535.9,376.5,534.8 M368.5,550.6c0.4-0.4,0.7-0.8,0.8-0.9c2.8-3.2,8.3-3.9,12.2-4.5
	s9,1.3,9.6,3.8s-9.6,7.2-11.5,9c-5.3,4.9-13.7,14.9-18.5,16c-1.3,0.3-2.8,0.2-4-0.4C360.2,565.6,364,557.9,368.5,550.6 M451.4,720.7
	c-3,11.8-6.5,16-9.5,19.8s-14,8.6-21,8s-8-19.2-8-28.9c0-3.3-4.7,6.5-7.2-13.5c-1.6-12.8-9.8,1.3-10.4-7.2s-4.7-6.8-9-12.2
	s-9.7,0.5-15.7,3.2s-3.5,4.1-12,1.4c-0.2-0.1-0.3-0.1-0.5-0.2c-8.1-19-12.2-39.4-12.2-60.1c0-5.2,0.3-10.3,0.8-15.4
	c0.3-0.5,0.6-1,1-1.4c8.2-9.7,8-11.9,8-11.9l9-3.1c0,0,14.4,2.2,25.3,6.3c9,3.3,23,10.9,31.2,7.6c5.9-2.4,10.6-5.7,10-10.6
	c-0.7-6.2-5.5-7.7-11.4-3.5c-2.2,1.5-6.8-9.3-10.5-8.8s4.5,12.8,1.4,13.3s-9.3-12.7-10.4-14.9s-5.9-7.5-10.2-3.4
	c-9.1,8.7-23.9,8.1-26.9,10.3c-9,6.8-11.4-2.2-11.2-7.7c0.4-1.2,0.7-2.5,1.1-3.8c3-3.2,13.5-4.3,17.2-1.9c4,2.7,6.9-0.7,8.4-2.3
	s1-4.2,0-6.3s2-3.7,4.1-4.3s9-5.4,11.7-7s17-3.3,23.4-0.1c5.2,2.8,11.7,1.5,15.4-3.1c3.1-3.7,6.9-6.9,11.2-9.3
	c2.2-1-5.5-8.3-11.9-0.4s-9.6,8.6-12.6,8.6s-20.8-4.4-23-10.1s5.6-9.8,12.1-13s24.6-3.1,29.2-4.1c9.4-2,21.3-6.8,27.3-2.7
	s-25.1,11.1-14.9,16.7c3.6,2,20.1-9.5,25.8-12.4c13.3-6.8-12.9-9.1-9.5-23c3.8-15.7-32.1-9.6-50-8.3c71.8-45.9,167.2-25,213.1,46.8
	c9.3,14.5,16,30.4,20.1,47.1c0.1,2.4-0.2,4.8-0.8,7.2c-1.4,5.6-12,10.3-18.1,1.4c-1.6-2.3-8.2-8.5-8,2.2s10.4,11.8,0.5,18.2
	s-11.7,4.9-16.2,6.5s-9,12.6-7.9,18.5s15.2,22,4.7,21.3c-2.5-0.2-20.9-12.8-23.9-20.9c-3.2-8.5-6.7-16.9-9.2-23.3s-9-8-14.5-4.3
	s1.5,7.5-2.4,15.5s-6.8,15.2-12.5,8.6c-15.1-17.3-37-8.8-40.4-28c-1.9-10.4-10.8-9.4-18.3-15.3s-11.7-9-13-4.8
	c-1.1,3.7,23.6,23.3,25.4,28.3c2.6,7.5-7.4,14-14.7,15.8s-10.5-4.1-17.7-11.6s-10.3-12.8-10.8-6.9c-0.7,8.5,6.8,21,14.1,25.6
	c6.2,4,13.2,5.7,11.2,12.2s0,2.8-7,9.7s-8.3,9.2-7.8,18.8s-2,10.2-3.5,18.2S454.4,708.9,451.4,720.7 M617,659.1
	c5.2-0.4,13,6.8,9.9,9.5s-10.8,1.7-14.7-1.3S614.7,659.3,617,659.1 M610.4,654.4c-1.7-0.6-3.1-2.2-4.4-6s1.9-6,5-4.4
	s7.3,6.3,7.3,8.8S612.1,655,610.4,654.4 M542.3,654.1c-3,2.7-10.8,1.7-14.8-1.3s2.5-8,4.8-8.2C537.5,644.1,545.3,651.3,542.3,654.1
	 M479.3,684.7c-2.1,3.5-7.9,29.4-11.8,26.4s1.6-30.1,2.7-32.2C476.3,667.8,489.5,668.4,479.3,684.7 M500.3,785.3
	c-14.7,0-29.3-2.1-43.4-6.2c-2.3-1.8-3-4.9-1.9-7.5c4.8-12.5,19-17.3,30.2-18.4c25-2.4,57.9,16.2,63.1,13.2s15.8-16.8,31.3-16.2
	c10.6,0.4,10.5,2.2,14.1,3.5C567,774.3,534.1,785.4,500.3,785.3 M609.2,740.4c-1.7-0.4-3.3-1-4.8-1.8c-8.4-4.3-7.4,2.6-11.6,1
	s4.7-11.2-7.8-3s-9-1.3-14.5-15s6.2-29.4,16-33c13.4-4.8,21.7-5.8,28-7.4c18.5-4.6,22.5-15.6,25.8-8.9c0.6,1.2,1.2,2.5,1.8,3.6
	c1.5,3.2,2.3,6.6,2.3,10.1C636.7,706.4,624.6,725,609.2,740.4 M651.4,662.5c-4.1-1.1-21.5-25.1-7.8-40.8c2.3-2.6-4.6-10.2-2.7-10.4
	c7.5-0.6,11.5,4.1,13.5,10.8c0.2,3,0.3,5.9,0.3,9C654.6,641.7,653.6,652.2,651.4,662.5"/>
<g>
	<path class="st0" d="M354.3,84.5h12.8l-15.5,81.4h-14.9l-15.5-81.4h13.9l9.4,56.8h0.1L354.3,84.5z"/>
	<path class="st0" d="M374.2,165.9V84.5h32.6v11.2h-19v23.3h13.6v11h-13.6v24.7h19v11.2H374.2z"/>
	<path class="st0" d="M412.1,130v-11h3.5V84.5h21.1c13.2,0,19.8,7.3,19.8,21.8V144c0,14.6-6.6,21.8-19.8,21.8h-21.1V130H412.1z
		 M429.3,154.7h5.8c5.2,0,7.8-2.8,7.8-8.3v-42.6c0-5.4-2.6-8.2-7.8-8.2h-5.8v23.3h8.8v11h-8.8V154.7z"/>
	<path class="st0" d="M492.9,84.5h12.6v61.6c0,13.8-6.4,20.8-19.3,20.8c-13.6,0-20.4-6.9-20.4-20.8V84.5h13.7v62.9
		c0,5.4,2.2,8,6.7,8c4.5,0,6.7-2.7,6.7-8V84.5z"/>
	<path class="st0" d="M541.3,165.9l-12.8-37.3v37.3h-13.7V84.5h19.9c6.6,0,11.4,1.6,14.4,4.7c3,3.1,4.4,7.6,4.4,13.6v10.4
		c0,8.8-3.6,14-10.9,15.7l13.1,37H541.3z M533,95.7h-4.6V121h4.6c4.5,0,6.7-2.2,6.7-6.7v-12C539.7,97.9,537.5,95.7,533,95.7z"/>
	<path class="st0" d="M562.4,165.9V84.5h13.7v70.2h16.3v11.2H562.4z"/>
	<path class="st0" d="M610.9,165.9h-13l15.4-81.4h15.6l15.5,81.4h-14l-2.5-14.9h-14.5L610.9,165.9z M620.5,107.4l-5.4,32.6H626
		l-5.4-32.6H620.5z"/>
	<path class="st0" d="M670.3,133.2v-10.8h19.4v43.4h-9.8V157c-1.9,6.6-6.3,9.8-13.1,9.8c-5.7,0-10-2-12.8-6c-2.9-4-4.3-9.3-4.3-16
		v-39.4c0-6.7,1.7-12.1,5.1-16c3.4-4,8.5-5.9,15.4-5.9c7.1,0,12.2,1.8,15.1,5.3c3,3.6,4.4,8.6,4.4,15.1v7.2h-12.5v-8.3
		c0-5.3-2.3-7.9-6.8-7.9c-4.7,0-7.1,2.8-7.1,8.4V147c0,5.6,2.2,8.4,6.7,8.4c4.5,0,6.7-2.6,6.7-7.8v-14.4H670.3z"/>
	<path class="st0" d="M716.9,166.8c-6.6,0-11.5-1.7-14.6-5c-3.1-3.3-4.7-7.8-4.7-13.5v-10.9h12.7v11.2c0,4.8,2.2,7.2,6.7,7.2
		c4.2,0,6.2-2.4,6.2-7.2v-3.1c0-2.2-0.5-4.2-1.4-5.9c-0.9-1.7-2.5-3.6-4.7-5.6l-8-8c-4.2-4.2-7.2-7.7-8.9-10.7
		c-1.7-3-2.5-6.6-2.5-11v-2.8c0-5.4,1.6-9.7,4.8-13c3.2-3.3,8-4.9,14.4-4.9c6.6,0,11.5,1.6,14.5,4.7c3,3.1,4.6,7.7,4.6,13.8v6.6
		h-12.5v-7.1c0-4.6-2.2-7-6.5-7s-6.5,2.2-6.5,6.7v1.7c0,2.1,0.5,3.9,1.5,5.4c1,1.5,2.7,3.4,5,5.6l8.8,8.6c4.1,4.2,6.9,7.7,8.6,10.5
		c1.6,2.8,2.5,6.4,2.5,10.6v4c0,5.8-1.6,10.5-4.9,13.9C728.7,165.1,723.7,166.8,716.9,166.8z"/>
	<path class="st0" d="M755.1,165.9h-13l15.4-81.4h15.6l15.5,81.4h-14L772,151h-14.5L755.1,165.9z M776.5,69.3v9.5L755,81.5v-7.7
		L776.5,69.3z M764.7,107.4l-5.4,32.6h10.9l-5.4-32.6H764.7z"/>
	<path class="st0" d="M788.1,95.7V84.5h36.4v11.2h-11.3v70.2h-13.8V95.7H788.1z"/>
	<path class="st0" d="M851.1,166.8c-5.3,0-9.6-1.2-12.8-3.5l-1.9,4.7h-5.9l3.7-9c-2.5-3.7-3.7-8.4-3.7-14.2v-39.4
		c0-6.7,1.7-12.1,5.2-16c3.4-4,8.6-5.9,15.5-5.9c5.2,0,9.5,1.2,13,3.6l1.9-4.7h5.9l-3.7,8.9c2.5,3.7,3.7,8.4,3.7,14.2v39.4
		c0,6.6-1.7,12-5.2,16C863.3,164.8,858.1,166.8,851.1,166.8z M843.7,103v33.2l14.8-35.5c-0.8-4.1-3.2-6.1-7.3-6.1
		c-2.3,0-4.1,0.8-5.5,2.3C844.3,98.4,843.7,100.4,843.7,103z M851.1,155.8c2.4,0,4.3-0.8,5.6-2.3c1.3-1.5,2-3.6,2-6.1v-33.1
		l-14.8,35.6C844.7,153.8,847.1,155.8,851.1,155.8z"/>
	<path class="st0" d="M909.1,165.9l-14.3-39.6v39.6h-13.7V84.5h13.7v35.8l14.9-35.8h13.4l-15.8,36.6l16.2,44.8H909.1z"/>
</g>
</svg>
