<?xml version="1.0" encoding="utf-8"?>
<!-- Generator: Adobe Illustrator 26.1.0, SVG Export Plug-In . SVG Version: 6.00 Build 0)  -->
<svg version="1.1" id="Layer_1" focusable="false" xmlns="http://www.w3.org/2000/svg" xmlns:xlink="http://www.w3.org/1999/xlink"
	 x="0px" y="0px" viewBox="0 0 1000 1000" style="enable-background:new 0 0 1000 1000;" xml:space="preserve">
<style type="text/css">
	.st0{fill:#FFFFFF;}
</style>
<link  id="dark-mode-general-link" rel="stylesheet" type="text/css" xmlns=""></link>
<link  id="dark-mode-custom-link" rel="stylesheet" type="text/css" xmlns=""></link>
<polygon class="st0" points="73.2,120.3 73.2,155.7 73.5,155.7 97.3,131 97.6,131 97.6,285.3 131.5,285.3 131.5,83.7 104.4,83.7 "/>
<path class="st0" d="M212.1,147.6c-13.4,0-23.2,4.8-28.6,14h-0.3v-50.3h58.3V83.7h-89.2v113.6h30.9v-4.5c0-11.9,5.4-18.4,14.9-18.4
	c10.4,0,14.6,7.1,14.6,18.1v48.8c0,10.7-3.9,18.1-14.3,18.1c-11.6,0-15.7-7.7-15.7-19.6v-25.3h-31v22.9c0,30.6,12.2,50.2,46.7,50.2
	c34.2,0,48.2-18.1,48.2-46.1v-49.4C246.5,160.4,230.2,147.6,212.1,147.6"/>
<g>
	<path class="st0" d="M419.2,676.1c1.2,0,2.2,1,2.2,2.2l0,0v72.8c0,1.2-1,2.2-2.2,2.2c0,0,0,0,0,0h-29.5c-1.2,0-2.2-1-2.2-2.2
		c0,0,0,0,0,0v-72.8c0-1.2,1-2.2,2.2-2.2c0,0,0,0,0,0H419.2z"/>
	<path class="st0" d="M742.8,784.6H257.2c-1.2,0-2.2,1-2.2,2.3v29.7c0,1.2,1,2.2,2.2,2.2h485.6c1.2,0,2.2-1,2.2-2.2v-29.7
		C745,785.7,744,784.7,742.8,784.6"/>
	<path class="st0" d="M742.8,843.6H257.2c-1.2,0-2.2,1-2.2,2.2v29.8c0,1.2,1,2.2,2.2,2.2h485.6c1.2,0,2.2-1,2.2-2.2v-29.8
		C745,844.6,744,843.6,742.8,843.6"/>
	<path class="st0" d="M650.4,595.5c-6.1-4.8-22.3-15.8-42-15.8c-14.1,0-27.2,5.6-39,16.6c-0.8,0.8-1.3,1.9-1.3,3v2.7
		c-0.1,1.3,0.5,2.5,1.4,3.3c0.9,0.8,2.2,1.1,3.4,0.8c0.3,0,0.6-0.1,0.9-0.2c0.9-0.3,1.7-0.9,2.4-1.5c2.5-1.7,9.5-4,19.5-4
		c10.3,0,30.5,2.8,50,21l0.5,0.4c1.1,1.1,2.6,1.8,4.2,1.8c1.5,0,3-0.6,4.1-1.7l0.4-0.4c19.6-18.2,39.8-21,50.1-21
		c10,0,17,2.3,19.5,4c0.8,0.7,1.7,1.3,2.7,1.6c0.9,0.2,1.9,0.2,2.8,0c1.8-0.5,3.1-2.1,3.1-4v-2.3c0-1.1-0.5-2.2-1.3-3
		c-11.9-11.3-25.1-17-39.5-17C672.7,579.7,656.6,590.6,650.4,595.5"/>
	<path class="st0" d="M620.3,402c-1,0.5-1.8,1.4-2.1,2.6l-0.5,1.6c-0.4,1.2-0.1,2.6,0.6,3.6c0.7,1,1.8,1.6,3,1.6c0.2,0,0.4,0,0.6,0
		c0.8,0,1.6-0.2,2.3-0.6c1-0.2,2-0.3,3-0.3c2.2,0,21.8,0.7,34.7,22.7l0.2,0.3c0.6,1.2,1.8,2.1,3.1,2.5c0.5,0.1,1,0.2,1.5,0.2
		c0.9,0,1.7-0.2,2.5-0.6l0.3-0.2c6.7-3.4,14.1-5.3,21.7-5.4c12.3,0,20.3,5,22.2,7.1c0.4,0.7,0.9,1.3,1.6,1.8c0.5,0.3,1,0.5,1.6,0.8
		c0.2,0.1,0.5,0.1,0.7,0.1c0.1,0,0.3,0,0.4,0c0.7,0,1.3-0.2,1.9-0.5c1-0.5,1.7-1.4,2.1-2.5l0.4-1.4c0.1-0.4,0.2-0.8,0.2-1.2
		c0-0.7-0.2-1.5-0.6-2.1c-9.4-16.4-23.1-19.8-32.9-19.8c-6,0.1-11.9,1.2-17.5,3.3c-4.4-6-15.7-18.4-32.8-18.4
		C632.1,397.4,625.9,399,620.3,402"/>
	<path class="st0" d="M517.7,476.7l0.1,2.2c0.1,2.3,2.1,4,4.4,3.9c0.3,0,0.5-0.1,0.8-0.1c0.2-0.1,0.5-0.1,0.7-0.2
		c0.8-0.3,1.5-0.9,2.1-1.5c2.1-1.5,8.7-4.2,18.5-4.2c9.4,0,23.8,2.5,38.4,14.5l0.3,0.4c1,0.9,2.4,1.4,3.8,1.4h0.4
		c1.5-0.1,2.8-0.8,3.8-1.8l0.3-0.4c16.2-17.1,33.6-19.7,42.6-19.7c6.4,0,10.9,1.3,12.7,2.3c0.7,0.6,1.6,1.1,2.5,1.3
		c0.9,0.2,1.9,0.2,2.8-0.1c1.7-0.6,2.9-2.3,2.8-4.2l-0.1-1.9c-0.1-1.1-0.6-2.2-1.5-2.9c-9.7-8.1-20.1-12.2-31.1-12.2
		c-17.1,0-30.7,10.1-36.3,15c-5.2-3.5-17.7-10.8-32.4-10.8c-12.9,0-24.5,5.4-34.5,15.9C518,474.4,517.6,475.5,517.7,476.7"/>
	<path class="st0" d="M271.9,515.7c0-29.1,23.6-52.7,52.6-52.7c0,0,0,0,0,0c1.1,0,2.2,0.1,3.4,0.2c2.9-39.2,37.1-68.6,76.3-65.7
		s68.6,37.1,65.7,76.3c-0.7,9-3,17.8-7,25.9c42.9,9.5,70,51.9,60.6,94.9c-8.1,36.5-40.4,62.5-77.8,62.4c-3.2,0-106.2-0.6-106.2-0.6
		l0,0c-31.1,0-56.3-25.1-56.4-56.2c0-14.4,5.5-28.3,15.4-38.7C282,552,271.9,534.5,271.9,515.7z"/>
</g>
<g>
	<path class="st0" d="M323.3,165.9V84.5H337v70.2h16.3v11.2H323.3z"/>
	<path class="st0" d="M379,69.3v9.5l-21.5,2.8v-7.7L379,69.3z M361,165.9V84.5h13.7v81.4H361z"/>
	<path class="st0" d="M415,84.5h12.8l-15.5,81.4h-14.9L382,84.5h13.9l9.4,56.8h0.1L415,84.5z"/>
	<path class="st0" d="M459.8,165.9h-13l15.4-81.4h15.6l15.5,81.4h-14l-2.5-14.9h-14.5L459.8,165.9z M481.1,69.3v9.5l-21.5,2.8v-7.7
		L481.1,69.3z M469.4,107.4l-5.4,32.6h10.9l-5.4-32.6H469.4z"/>
	<path class="st0" d="M323.3,285.9v-81.4H337v70.2h16.3v11.2H323.3z"/>
	<path class="st0" d="M371.8,285.9h-13l15.4-81.4h15.6l15.5,81.4h-14l-2.5-14.9h-14.5L371.8,285.9z M381.4,227.4l-5.4,32.6h10.9
		l-5.4-32.6H381.4z"/>
	<path class="st0" d="M440,285.9l-16.1-51.1v51.1h-11.5v-81.4h13.4l14.8,46.7v-46.7H452v81.4H440z"/>
	<path class="st0" d="M482.3,204.5c13.2,0,19.8,7.3,19.8,21.8V264c0,14.6-6.6,21.8-19.8,21.8h-21.1v-81.4H482.3z M474.9,274.7h5.8
		c5.2,0,7.8-2.8,7.8-8.3v-42.6c0-5.4-2.6-8.2-7.8-8.2h-5.8V274.7z"/>
	<path class="st0" d="M511.4,285.9v-81.4h13.7v81.4H511.4z"/>
</g>
</svg>
