<?xml version="1.0" encoding="utf-8"?>
<!-- Generator: Adobe Illustrator 26.1.0, SVG Export Plug-In . SVG Version: 6.00 Build 0)  -->
<svg version="1.1" id="Layer_1" focusable="false" xmlns="http://www.w3.org/2000/svg" xmlns:xlink="http://www.w3.org/1999/xlink"
	 x="0px" y="0px" viewBox="0 0 1000 1000" style="enable-background:new 0 0 1000 1000;" xml:space="preserve">
<style type="text/css">
	.st0{fill:#FFFFFF;}
</style>
<link  id="dark-mode-general-link" rel="stylesheet" type="text/css" xmlns=""></link>
<link  id="dark-mode-custom-link" rel="stylesheet" type="text/css" xmlns=""></link>
<polygon class="st0" points="149.6,83.8 149.6,285.4 115.7,285.4 115.7,131.1 115.4,131.1 91.6,155.8 91.3,155.8 91.3,120.4 
	122.6,83.8 "/>
<polygon class="st0" points="165.1,83.8 250.2,83.8 250.2,115 205.8,285.4 172.2,285.4 217.4,111.5 165.1,111.5 "/>
<path class="st0" d="M748.3,606.5c0-70.2-55.9-127.6-125.5-130.1c-23.9-67.8-98.3-103.4-166.1-79.5c-37.1,13.1-66.4,42.3-79.5,79.5
	c-69.6,2.5-125.4,59.9-125.4,130.1c0,40.1,18.6,78,50.3,102.7c-3.4,11.8-5.1,23.9-5.1,36.2c0,71.8,58.4,130.2,130.3,130.2
	c26.2,0,51.9-7.9,73.5-22.8c21.4,14.3,46.5,22,72.3,21.9c71.8,0,130.2-58.4,130.2-130.2c0-12-1.7-23.9-4.9-35.4
	C729.8,684.4,748.2,646.5,748.3,606.5 M604,519.7c0,52.1-38.6,95.3-88.7,102.8c-0.9-5.3-1.3-10.6-1.4-16
	c0.1-51.5,37.8-95.2,88.7-102.8C603.5,509,604,514.3,604,519.7 M500.5,818.9c-41.2-39.8-42.3-105.5-2.5-146.7c0.5-0.5,1-1,1.5-1.5
	c41.2,39.8,42.3,105.4,2.5,146.6C501.5,817.9,501,818.4,500.5,818.9 M397.3,503.7c50.1,7.5,88.7,50.6,88.7,102.8
	c0,5.4-0.5,10.7-1.4,16C434.6,615,396,571.8,396,519.7C396,514.3,396.5,509,397.3,503.7 M474.9,653c-25.5,51.2-87.7,72.1-138.9,46.6
	c-0.6-0.3-1.2-0.6-1.7-0.9c25.5-51.2,87.7-72.1,138.9-46.6C473.7,652.4,474.3,652.7,474.9,653 M524.8,652.3
	c50.7-26.6,113.4-7.1,140,43.6c0.5,0.9,0.9,1.8,1.4,2.7c-50.7,26.6-113.4,7.1-140-43.6C525.7,654.1,525.2,653.2,524.8,652.3
	 M500,415.7c41.4,0,78.8,24.6,95.3,62.5c-41.8,7.5-77.3,34.8-95.3,73.2c-18-38.4-53.6-65.7-95.4-73.2
	C421.2,440.3,458.6,415.7,500,415.7 M278,606.5c0.1-53.1,40.1-97.7,92.9-103.4c-5.5,42.1,9.9,84.3,41.4,112.9
	c-42.3,4.9-79.6,30.2-99.9,67.7C290.5,663.9,278,635.9,278,606.5 M323.1,745.3c0-7.2,0.8-14.5,2.3-21.6c38,18.4,82.6,17.2,119.5-3.3
	c-7.8,41.5,5.1,84.3,34.6,114.5c-49.5,29-113.1,12.4-142.1-37C328,782,323.1,763.8,323.1,745.3 M676.9,744.4
	c0.1,57.4-46.3,103.9-103.7,104c-18.1,0-35.9-4.7-51.6-13.7c29-30.5,41.4-73.1,33.3-114.4c37,20.6,81.8,21.8,119.9,3.3
	C676.2,730.5,676.9,737.4,676.9,744.4 M588.5,615.2c26.6-24.6,41.8-59.2,41.8-95.5c0-5.6-0.4-11.1-1.1-16.6
	c57,6,98.4,57.2,92.3,114.2c-2.7,25.4-14.7,48.9-33.6,66.1C667.8,645.8,630.7,620.3,588.5,615.2"/>
<g>
	<path class="st0" d="M341.9,166.8c-6.6,0-11.5-1.7-14.6-5c-3.1-3.3-4.7-7.8-4.7-13.5v-10.9h12.7v11.2c0,4.8,2.2,7.2,6.7,7.2
		c4.2,0,6.2-2.4,6.2-7.2v-3.1c0-2.2-0.5-4.2-1.4-5.9c-0.9-1.7-2.5-3.6-4.7-5.6l-8-8c-4.2-4.2-7.2-7.7-8.9-10.7
		c-1.7-3-2.5-6.6-2.5-11v-2.8c0-5.4,1.6-9.7,4.8-13c3.2-3.3,8-4.9,14.4-4.9c6.6,0,11.5,1.6,14.5,4.7c3,3.1,4.6,7.7,4.6,13.8v6.6
		h-12.5v-7.1c0-4.6-2.2-7-6.5-7s-6.5,2.2-6.5,6.7v1.7c0,2.1,0.5,3.9,1.5,5.4c1,1.5,2.7,3.4,5,5.6l8.8,8.6c4.1,4.2,6.9,7.7,8.6,10.5
		c1.6,2.8,2.5,6.4,2.5,10.6v4c0,5.8-1.6,10.5-4.9,13.9C353.7,165.1,348.7,166.8,341.9,166.8z"/>
	<path class="st0" d="M380.1,165.9h-13l15.4-81.4h15.6l15.5,81.4h-14L397,151h-14.5L380.1,165.9z M389.7,107.4l-5.4,32.6h10.9
		l-5.4-32.6H389.7z"/>
	<path class="st0" d="M458.3,165.9v-52.8H458l-9.2,52.8h-6.4l-10.2-52.8h-0.2v52.8h-11.3V84.5h16l8.9,45.8h0.1l7.9-45.8h17.3v81.4
		H458.3z"/>
	<path class="st0" d="M498.7,166.8c-6.6,0-11.5-1.7-14.6-5c-3.1-3.3-4.7-7.8-4.7-13.5v-10.9h12.7v11.2c0,4.8,2.2,7.2,6.7,7.2
		c4.2,0,6.2-2.4,6.2-7.2v-3.1c0-2.2-0.5-4.2-1.4-5.9c-0.9-1.7-2.5-3.6-4.7-5.6l-8-8c-4.2-4.2-7.2-7.7-8.9-10.7
		c-1.7-3-2.5-6.6-2.5-11v-2.8c0-5.4,1.6-9.7,4.8-13c3.2-3.3,8-4.9,14.4-4.9c6.6,0,11.5,1.6,14.5,4.7c3,3.1,4.6,7.7,4.6,13.8v6.6
		h-12.5v-7.1c0-4.6-2.2-7-6.5-7c-4.3,0-6.5,2.2-6.5,6.7v1.7c0,2.1,0.5,3.9,1.5,5.4c1,1.5,2.7,3.4,5,5.6l8.8,8.6
		c4.1,4.2,6.9,7.7,8.6,10.5c1.6,2.8,2.5,6.4,2.5,10.6v4c0,5.8-1.6,10.5-4.9,13.9C510.4,165.1,505.4,166.8,498.7,166.8z"/>
	<path class="st0" d="M523.9,95.7V84.5h36.4v11.2h-11.3v70.2h-13.8V95.7H523.9z"/>
	<path class="st0" d="M572.8,165.9h-13l15.4-81.4h15.6l15.5,81.4h-14l-2.5-14.9h-14.5L572.8,165.9z M582.4,107.4l-5.4,32.6h10.9
		l-5.4-32.6H582.4z"/>
	<path class="st0" d="M639.9,165.9l-12.8-37.3v37.3h-13.7V84.5h19.9c6.6,0,11.4,1.6,14.4,4.7c3,3.1,4.4,7.6,4.4,13.6v10.4
		c0,8.8-3.6,14-10.9,15.7l13.1,37H639.9z M631.6,95.7h-4.6V121h4.6c4.5,0,6.7-2.2,6.7-6.7v-12C638.3,97.9,636.1,95.7,631.6,95.7z"/>
	<path class="st0" d="M690.8,84.5h12.8l-15.5,81.4h-14.9l-15.5-81.4h13.9l9.4,56.8h0.1L690.8,84.5z"/>
	<path class="st0" d="M751.9,84.5h12.6v61.6c0,13.8-6.4,20.8-19.3,20.8c-13.6,0-20.4-6.9-20.4-20.8V84.5h13.7v62.9
		c0,5.4,2.2,8,6.7,8c4.5,0,6.7-2.7,6.7-8V84.5z"/>
	<path class="st0" d="M811.4,165.9v-52.8H811l-9.2,52.8h-6.4l-10.2-52.8H785v52.8h-11.3V84.5h16l8.9,45.8h0.1l7.9-45.8h17.3v81.4
		H811.4z"/>
	<path class="st0" d="M350.2,285.9V250H337v35.9h-13.7v-81.4H337v34.4h13.2v-34.4H364v81.4H350.2z"/>
	<path class="st0" d="M373.3,285.9v-81.4h32.6v11.2h-19v23.3h13.6v11h-13.6v24.7h19v11.2H373.3z"/>
	<path class="st0" d="M414.7,285.9v-81.4h13.7v81.4H414.7z"/>
	<path class="st0" d="M475.4,285.9v-52.8H475l-9.2,52.8h-6.4l-10.2-52.8H449v52.8h-11.3v-81.4h16l8.9,45.8h0.1l7.9-45.8h17.3v81.4
		H475.4z"/>
	<path class="st0" d="M515.7,286.8c-6.6,0-11.5-1.7-14.6-5c-3.1-3.3-4.7-7.8-4.7-13.5v-10.9h12.7v11.2c0,4.8,2.2,7.2,6.7,7.2
		c4.2,0,6.2-2.4,6.2-7.2v-3.1c0-2.2-0.5-4.2-1.4-5.9c-0.9-1.7-2.5-3.6-4.7-5.6l-8-8c-4.2-4.2-7.2-7.7-8.9-10.7
		c-1.7-3-2.5-6.6-2.5-11v-2.8c0-5.4,1.6-9.7,4.8-13c3.2-3.3,8-4.9,14.4-4.9c6.6,0,11.5,1.6,14.5,4.7c3,3.1,4.6,7.7,4.6,13.8v6.6
		h-12.5v-7.1c0-4.6-2.2-7-6.5-7s-6.5,2.2-6.5,6.7v1.7c0,2.1,0.5,3.9,1.5,5.4c1,1.5,2.7,3.4,5,5.6l8.8,8.6c4.1,4.2,6.9,7.7,8.6,10.5
		c1.6,2.8,2.5,6.4,2.5,10.6v4c0,5.8-1.6,10.5-4.9,13.9C527.4,285.1,522.4,286.8,515.7,286.8z"/>
	<path class="st0" d="M581.9,285.9v-52.8h-0.4l-9.2,52.8H566l-10.2-52.8h-0.2v52.8h-11.3v-81.4h16l8.9,45.8h0.1l7.9-45.8h17.3v81.4
		H581.9z"/>
	<path class="st0" d="M614.5,285.9h-13l15.4-81.4h15.6l15.5,81.4h-14l-2.5-14.9h-14.5L614.5,285.9z M635.8,189.3v9.5l-21.5,2.8v-7.7
		L635.8,189.3z M624.1,227.4l-5.4,32.6h10.9l-5.4-32.6H624.1z"/>
	<path class="st0" d="M655,285.9v-81.4h13.7v70.2H685v11.2H655z"/>
	<path class="st0" d="M692.7,285.9v-81.4h13.7v81.4H692.7z"/>
	<path class="st0" d="M743.3,285.9l-16.1-51.1v51.1h-11.5v-81.4h13.4l14.8,46.7v-46.7h11.4v81.4H743.3z"/>
	<path class="st0" d="M764.6,285.9v-81.4h13.7v81.4H764.6z"/>
</g>
</svg>
