<?xml version="1.0" encoding="utf-8"?>
<!-- Generator: Adobe Illustrator 26.1.0, SVG Export Plug-In . SVG Version: 6.00 Build 0)  -->
<svg version="1.1" id="Layer_1" focusable="false" xmlns="http://www.w3.org/2000/svg" xmlns:xlink="http://www.w3.org/1999/xlink"
	 x="0px" y="0px" viewBox="0 0 1000 1000" style="enable-background:new 0 0 1000 1000;" xml:space="preserve">
<style type="text/css">
	.st0{fill:#FFFFFF;}
	.st1{fill:none;}
</style>
<link  id="dark-mode-general-link" rel="stylesheet" type="text/css" xmlns=""></link>
<link  id="dark-mode-custom-link" rel="stylesheet" type="text/css" xmlns=""></link>
<path id="_Path_2" class="st0" d="M187,257.8h-55.6v-9.5c0-15.8,5.6-21.7,14.3-30.9l21.7-22.9c17.6-18.7,21.4-30.6,21.4-50.9V124
	c0-28.8-14-42.5-44.3-42.5c-29.7,0-44.9,15.8-44.9,44v24.4h30.9v-25.3c0-12.2,5.9-15.8,13.1-15.8c6.5,0,12.2,2.7,12.2,15.2v16.7
	c0,16.7-1.5,23.2-12.5,34.8l-19,20.2C105.8,215.2,99,228.3,99,248.2v37.2h88V257.8z"/>
<g>
	<path id="_Path_3" class="st0" d="M413.1,849.7v14.1c0,0.1,0,0.2,0,0.3s0,0.2,0,0.3c0.1,3.5,3,6.3,6.5,6.3h0.1h0.2h165h0.1h0.2
		c3.6-0.1,6.5-3,6.5-6.6l0,0l0,0v-16c92.9-30.4,162.4-105.7,177.7-197.4c0-0.2,0.1-0.4,0.1-0.5c0.1-0.3,0.1-0.6,0.1-0.9
		c0-3.7-3-6.7-6.7-6.7l0,0H237.1c-3.7,0-6.7,3-6.7,6.6l0,0l0.4,3C246.9,744.8,318.3,820.5,413.1,849.7"/>
	<path id="_Path_4" class="st0" d="M591.5,418.2c-2.2,3.1-53,76.2,1.1,135.3c24.8,27.1,22.7,51.1,15.6,67.2h34.7
		c7-23.9,4.1-53.8-24-84.6c-39.9-43.6,0.5-102.5,1.1-103.4c4.8-6.7,2.2-15.4-5.6-19.4S596.3,411.5,591.5,418.2"/>
	<path id="_Path_5" class="st0" d="M503.6,620.8h34.7c7-23.9,4.1-53.8-24.1-84.6c-39.9-43.6,0.5-102.5,1.1-103.4
		c4.7-6.7,2.2-15.3-5.6-19.4s-18.1-1.9-22.8,4.8c-2.2,3.1-53,76.2,1.1,135.3C512.8,580.7,510.7,604.6,503.6,620.8"/>
	<path id="_Path_6" class="st0" d="M382.3,418.2c-2.2,3.1-53,76.2,1.1,135.3c24.8,27.2,22.7,51.1,15.6,67.2h34.7
		c7-23.9,4.1-53.8-24.1-84.6c-39.9-43.6,0.5-102.5,1.1-103.4c4.7-6.7,2.2-15.4-5.7-19.4S387.1,411.5,382.3,418.2"/>
</g>
<polygon class="st1" points="-103.2,291.9 -101.1,291.9 -101.1,291.9 "/>
<g>
	<path class="st0" d="M293.3,165.9V84.5h32.6v11.2h-19v23.3h13.6v11H307v24.7h19v11.2H293.3z"/>
	<path class="st0" d="M334.7,165.9V84.5h13.7v81.4H334.7z"/>
	<path class="st0" d="M385.3,165.9l-16.1-51.1v51.1h-11.5V84.5h13.4l14.8,46.7V84.5h11.4v81.4H385.3z"/>
	<path class="st0" d="M427.2,133.2v-10.8h19.4v43.4h-9.8V157c-1.9,6.6-6.3,9.8-13.1,9.8c-5.7,0-10-2-12.8-6c-2.9-4-4.3-9.3-4.3-16
		v-39.4c0-6.7,1.7-12.1,5.1-16c3.4-4,8.5-5.9,15.4-5.9c7.1,0,12.2,1.8,15.1,5.3c3,3.6,4.4,8.6,4.4,15.1v7.2h-12.5v-8.3
		c0-5.3-2.3-7.9-6.8-7.9c-4.7,0-7.1,2.8-7.1,8.4V147c0,5.6,2.2,8.4,6.7,8.4c4.5,0,6.7-2.6,6.7-7.8v-14.4H427.2z"/>
	<path class="st0" d="M455.9,165.9V84.5h13.7v81.4H455.9z"/>
	<path class="st0" d="M506.5,165.9l-16.1-51.1v51.1h-11.5V84.5h13.4l14.8,46.7V84.5h11.4v81.4H506.5z"/>
	<path class="st0" d="M320.2,285.9V250H307v35.9h-13.7v-81.4H307v34.4h13.2v-34.4H334v81.4H320.2z"/>
	<path class="st0" d="M370.3,204.5h12.6v61.6c0,13.8-6.4,20.8-19.3,20.8c-13.6,0-20.4-6.9-20.4-20.8v-61.6h13.7v62.9
		c0,5.4,2.2,8,6.7,8c4.5,0,6.7-2.7,6.7-8V204.5z"/>
	<path class="st0" d="M419.8,285.9l-16.1-51.1v51.1h-11.5v-81.4h13.4l14.8,46.7v-46.7h11.4v81.4H419.8z"/>
	<path class="st0" d="M461.7,253.2v-10.8h19.4v43.4h-9.8V277c-1.9,6.6-6.3,9.8-13.1,9.8c-5.7,0-10-2-12.8-6c-2.9-4-4.3-9.3-4.3-16
		v-39.4c0-6.7,1.7-12.1,5.1-16c3.4-4,8.5-5.9,15.4-5.9c7.1,0,12.2,1.8,15.1,5.3c3,3.6,4.4,8.6,4.4,15.1v7.2h-12.5v-8.3
		c0-5.3-2.3-7.9-6.8-7.9c-4.7,0-7.1,2.8-7.1,8.4V267c0,5.6,2.2,8.4,6.7,8.4c4.5,0,6.7-2.6,6.7-7.8v-14.4H461.7z"/>
	<path class="st0" d="M517.5,204.5h12.6v61.6c0,13.8-6.4,20.8-19.3,20.8c-13.6,0-20.4-6.9-20.4-20.8v-61.6H504v62.9
		c0,5.4,2.2,8,6.7,8c4.5,0,6.7-2.7,6.7-8V204.5z"/>
	<path class="st0" d="M565.8,285.9L553,248.5v37.3h-13.7v-81.4h19.9c6.6,0,11.4,1.6,14.4,4.7c3,3.1,4.4,7.6,4.4,13.6v10.4
		c0,8.8-3.6,14-10.9,15.7l13.1,37H565.8z M557.5,215.7H553V241h4.6c4.5,0,6.7-2.2,6.7-6.7v-12C564.3,217.9,562,215.7,557.5,215.7z"
		/>
</g>
</svg>
