<?xml version="1.0" encoding="utf-8"?>
<!-- Generator: Adobe Illustrator 26.1.0, SVG Export Plug-In . SVG Version: 6.00 Build 0)  -->
<svg version="1.1" id="Layer_1" focusable="false" xmlns="http://www.w3.org/2000/svg" xmlns:xlink="http://www.w3.org/1999/xlink"
	 x="0px" y="0px" viewBox="0 0 1000 1000" style="enable-background:new 0 0 1000 1000;" xml:space="preserve">
<style type="text/css">
	.st0{fill:#FFFFFF;}
</style>
<link  id="dark-mode-general-link" rel="stylesheet" type="text/css" xmlns=""></link>
<link  id="dark-mode-custom-link" rel="stylesheet" type="text/css" xmlns=""></link>
<path class="st0" d="M156.6,285.4h32.1v-32.7h13.7v-26.5h-13.7V83.8h-33.3L96.9,231.9v20.8h59.8V285.4z M126.6,226.3l30.3-83h0.3v83
	H126.6z"/>
<g>
	<polygon class="st0" points="438.3,536.2 259,432.6 259,767.6 438.3,821.7 	"/>
	<polygon class="st0" points="458,536.9 458,821.9 638.5,767.6 638.5,432.6 	"/>
	<path class="st0" d="M779.3,424.1c0.3-11.7-9-21.4-20.8-21.7c-11.7-0.3-21.4,9-21.7,20.8c0,0.3,0,0.6,0,0.9V447h42.4V424.1z"/>
	<polygon class="st0" points="742.2,761.7 736.9,761.7 758.1,835.8 779.3,761.7 774,761.7 779.3,761.7 779.3,463.6 774,463.6 
		768.8,463.6 763.2,463.6 752.6,463.6 747.4,463.6 742.2,463.6 736.9,463.6 736.9,761.7 	"/>
	<polygon class="st0" points="677.1,447 657.8,431.8 657.8,776.7 458.6,841.1 449.3,841.1 447.5,841.1 438.3,841.1 239.9,785.7 
		239.9,431.8 220.7,447 220.7,799.2 437.4,859.2 447.5,859.2 449.3,859.2 459.5,859.2 659.4,795.7 677.1,790.5 	"/>
</g>
<g>
	<path class="st0" d="M310.5,84.5c13.2,0,19.8,7.3,19.8,21.8V144c0,14.6-6.6,21.8-19.8,21.8h-21.1V84.5H310.5z M303,154.7h5.8
		c5.2,0,7.8-2.8,7.8-8.3v-42.6c0-5.4-2.6-8.2-7.8-8.2H303V154.7z"/>
	<path class="st0" d="M378.3,84.5l-15.1,50.4v31h-13.7v-31l-15.2-50.4h14.3l8.3,30.8h0.1l8.3-30.8H378.3z"/>
	<path class="st0" d="M402.9,133.2v-10.8h19.4v43.4h-9.8V157c-1.9,6.6-6.3,9.8-13.1,9.8c-5.7,0-10-2-12.8-6c-2.9-4-4.3-9.3-4.3-16
		v-39.4c0-6.7,1.7-12.1,5.1-16c3.4-4,8.5-5.9,15.4-5.9c7.1,0,12.2,1.8,15.1,5.3c3,3.6,4.4,8.6,4.4,15.1v7.2h-12.5v-8.3
		c0-5.3-2.3-7.9-6.8-7.9c-4.7,0-7.1,2.8-7.1,8.4V147c0,5.6,2.2,8.4,6.7,8.4c4.5,0,6.7-2.6,6.7-7.8v-14.4H402.9z"/>
	<path class="st0" d="M452.7,84.5c13.2,0,19.8,7.3,19.8,21.8V144c0,14.6-6.6,21.8-19.8,21.8h-21.1V84.5H452.7z M445.2,154.7h5.8
		c5.2,0,7.8-2.8,7.8-8.3v-42.6c0-5.4-2.6-8.2-7.8-8.2h-5.8V154.7z"/>
	<path class="st0" d="M490.7,165.9h-13l15.4-81.4h15.6l15.5,81.4h-14l-2.5-14.9h-14.5L490.7,165.9z M500.3,107.4l-5.4,32.6h10.9
		l-5.4-32.6H500.3z"/>
	<path class="st0" d="M557.8,165.9l-12.8-37.3v37.3h-13.7V84.5h19.9c6.6,0,11.4,1.6,14.4,4.7c3,3.1,4.4,7.6,4.4,13.6v10.4
		c0,8.8-3.6,14-10.9,15.7l13.1,37H557.8z M549.5,95.7h-4.6V121h4.6c4.5,0,6.7-2.2,6.7-6.7v-12C556.2,97.9,554,95.7,549.5,95.7z"/>
	<path class="st0" d="M599.5,133.2v-10.8H619v43.4h-9.8V157c-1.9,6.6-6.3,9.8-13.1,9.8c-5.7,0-10-2-12.8-6c-2.9-4-4.3-9.3-4.3-16
		v-39.4c0-6.7,1.7-12.1,5.1-16c3.4-4,8.5-5.9,15.4-5.9c7.1,0,12.2,1.8,15.1,5.3c3,3.6,4.4,8.6,4.4,15.1v7.2h-12.5v-8.3
		c0-5.3-2.3-7.9-6.8-7.9c-4.7,0-7.1,2.8-7.1,8.4V147c0,5.6,2.2,8.4,6.7,8.4c4.5,0,6.7-2.6,6.7-7.8v-14.4H599.5z"/>
	<path class="st0" d="M648.9,166.8c-6.9,0-12-2-15.5-6c-3.4-4-5.2-9.3-5.2-16v-39.4c0-6.7,1.7-12.1,5.2-16c3.4-4,8.6-5.9,15.5-5.9
		c7,0,12.2,2,15.6,5.9c3.4,4,5.2,9.3,5.2,16v39.4c0,6.6-1.7,12-5.2,16C661,164.8,655.8,166.8,648.9,166.8z M660,69.3v9.5l-21.5,2.8
		v-7.7L660,69.3z M648.9,155.4c4.7,0,7.1-2.8,7.1-8.4v-43.7c0-5.6-2.4-8.4-7.1-8.4c-4.6,0-7,2.8-7,8.4V147
		C641.9,152.6,644.2,155.4,648.9,155.4z"/>
	<path class="st0" d="M676.6,130v-11h3.5V84.5h21.1c13.2,0,19.8,7.3,19.8,21.8V144c0,14.6-6.6,21.8-19.8,21.8h-21.1V130H676.6z
		 M693.7,154.7h5.8c5.2,0,7.8-2.8,7.8-8.3v-42.6c0-5.4-2.6-8.2-7.8-8.2h-5.8v23.3h8.8v11h-8.8V154.7z"/>
	<path class="st0" d="M316.5,204.5h12.6v61.6c0,13.8-6.4,20.8-19.3,20.8c-13.6,0-20.4-6.9-20.4-20.8v-61.6H303v62.9
		c0,5.4,2.2,8,6.7,8c4.5,0,6.7-2.7,6.7-8V204.5z M320.7,189.3v9.5l-21.5,2.8v-7.7L320.7,189.3z"/>
	<path class="st0" d="M336.7,215.7v-11.2h36.4v11.2h-11.3v70.2H348v-70.2H336.7z"/>
	<path class="st0" d="M380.9,285.9v-81.4h19.8c6.6,0,11.3,1.5,14.1,4.4c2.8,3,4.1,7.4,4.1,13.4v8.3c0,6.9-2.7,11.2-8.2,13
		c6.8,1.5,10.2,6,10.2,13.6V268c0,5.9-1.5,10.4-4.4,13.4c-3,3-7.8,4.5-14.4,4.5H380.9z M394.6,215.7v23.2h4.8c4.3,0,6.5-2.2,6.5-6.6
		v-10c0-4.4-2.2-6.6-6.6-6.6H394.6z M400.5,249.3h-5.9v25.4h6c4.5,0,6.7-2.2,6.7-6.6v-12.2C407.3,251.5,405,249.3,400.5,249.3z"/>
	<path class="st0" d="M456.4,204.5H469v61.6c0,13.8-6.4,20.8-19.3,20.8c-13.6,0-20.4-6.9-20.4-20.8v-61.6h13.7v62.9
		c0,5.4,2.2,8,6.7,8c4.5,0,6.7-2.7,6.7-8V204.5z M460.6,189.3v9.5l-21.5,2.8v-7.7L460.6,189.3z"/>
	<path class="st0" d="M498.9,253.2v-10.8h19.4v43.4h-9.8V277c-1.9,6.6-6.3,9.8-13.1,9.8c-5.7,0-10-2-12.8-6c-2.9-4-4.3-9.3-4.3-16
		v-39.4c0-6.7,1.7-12.1,5.1-16c3.4-4,8.5-5.9,15.4-5.9c7.1,0,12.2,1.8,15.1,5.3c3,3.6,4.4,8.6,4.4,15.1v7.2h-12.5v-8.3
		c0-5.3-2.3-7.9-6.8-7.9c-4.7,0-7.1,2.8-7.1,8.4V267c0,5.6,2.2,8.4,6.7,8.4c4.5,0,6.7-2.6,6.7-7.8v-14.4H498.9z"/>
	<path class="st0" d="M556.1,204.5h12.8l-15.5,81.4h-14.9l-15.5-81.4H537l9.4,56.8h0.1L556.1,204.5z"/>
	<path class="st0" d="M576,285.9v-81.4h13.7v81.4H576z"/>
	<path class="st0" d="M626.7,285.9l-16.1-51.1v51.1h-11.5v-81.4h13.4l14.8,46.7v-46.7h11.4v81.4H626.7z"/>
	<path class="st0" d="M668.5,253.2v-10.8H688v43.4h-9.8V277c-1.9,6.6-6.3,9.8-13.1,9.8c-5.7,0-10-2-12.8-6c-2.9-4-4.3-9.3-4.3-16
		v-39.4c0-6.7,1.7-12.1,5.1-16c3.4-4,8.5-5.9,15.4-5.9c7.1,0,12.2,1.8,15.1,5.3c3,3.6,4.4,8.6,4.4,15.1v7.2h-12.5v-8.3
		c0-5.3-2.3-7.9-6.8-7.9c-4.7,0-7.1,2.8-7.1,8.4V267c0,5.6,2.2,8.4,6.7,8.4c4.5,0,6.7-2.6,6.7-7.8v-14.4H668.5z"/>
</g>
</svg>
