<?xml version="1.0" encoding="utf-8"?>
<!-- Generator: Adobe Illustrator 26.1.0, SVG Export Plug-In . SVG Version: 6.00 Build 0)  -->
<svg version="1.1" id="Layer_1" focusable="false" xmlns="http://www.w3.org/2000/svg" xmlns:xlink="http://www.w3.org/1999/xlink"
	 x="0px" y="0px" viewBox="0 0 1000 1000" style="enable-background:new 0 0 1000 1000;" xml:space="preserve">
<style type="text/css">
	.st0{fill:#FFFFFF;}
</style>
<link  id="dark-mode-general-link" rel="stylesheet" type="text/css" xmlns=""></link>
<link  id="dark-mode-custom-link" rel="stylesheet" type="text/css" xmlns=""></link>
<path class="st0" d="M159.4,147.6c-13.4,0-23.2,4.8-28.6,14h-0.3v-50.3h58.3V83.7H99.7v113.6h30.9v-4.5c0-11.9,5.4-18.4,14.9-18.4
	c10.4,0,14.6,7.1,14.6,18.2v48.8c0,10.7-3.9,18.1-14.3,18.1c-11.6,0-15.8-7.7-15.8-19.6v-25.3H99.1v22.9c0,30.6,12.2,50.3,46.7,50.3
	c34.2,0,48.2-18.1,48.2-46.1v-49.4C193.9,160.4,177.6,147.6,159.4,147.6"/>
<g>
	<path class="st0" d="M728.3,378.4H604.1c-0.9,0-1.6,0.7-1.6,1.6v41.3c0,0.9,0.7,1.6,1.6,1.6h49.5l-55,55
		c-28.6-22.5-63.9-34.8-100.4-34.8c-89.8,0-162.8,73-162.8,162.8c0,82.6,61.9,151,141.8,161.4v47.6h-49c-0.9,0-1.6,0.7-1.6,1.5
		c0,0,0,0,0,0v44.3c0,0.9,0.7,1.6,1.6,1.6c0,0,0,0,0,0h49V909c0,0.9,0.7,1.6,1.6,1.6c0,0,0,0,0,0h44.2c0.9,0,1.6-0.7,1.6-1.6v0
		v-46.8h49c0.9,0,1.6-0.7,1.6-1.6c0,0,0,0,0,0v-44.3c0-0.9-0.7-1.6-1.6-1.6l0,0h-49v-48.4C601.9,753.8,661,686.6,661,605.8
		c0-33.5-10.4-66.2-29.7-93.6l54.2-54.2v46.2c0,0.9,0.7,1.6,1.6,1.6h41.3c0.9,0,1.6-0.7,1.6-1.6V380
		C730,379.1,729.2,378.4,728.3,378.4C728.3,378.4,728.3,378.4,728.3,378.4 M498.2,725.7c-66.2,0-119.8-53.6-119.8-119.8
		c0-66.2,53.6-119.8,119.8-119.8c66.2,0,119.8,53.6,119.8,119.8C618,672,564.4,725.6,498.2,725.7"/>
	<path class="st0" d="M572.7,556.7H427.3c-0.8,0-1.5,0.6-1.6,1.4v35.2c0,0.8,0.7,1.5,1.6,1.4c0,0,0,0,0,0h145.3
		c0.8,0.1,1.6-0.6,1.6-1.4c0,0,0,0,0,0v-35.2C574.2,557.2,573.5,556.6,572.7,556.7"/>
	<path class="st0" d="M572.7,619.5H427.3c-0.8,0-1.5,0.6-1.6,1.5v35.2c0,0.8,0.7,1.5,1.6,1.4c0,0,0,0,0,0h145.3
		c0.8,0.1,1.6-0.6,1.6-1.4c0,0,0,0,0,0v-35.2C574.2,620.1,573.5,619.4,572.7,619.5"/>
</g>
<g>
	<path class="st0" d="M312,84.5h13.7v62.9c0,13-6.3,19.4-18.8,19.4c-6.6,0-11.3-1.6-14-4.8c-2.7-3.2-4-7.6-4-13.3v-16.2h13v16.4
		c0,4.3,1.7,6.5,5,6.5c3.4,0,5.2-2.2,5.2-6.6V84.5z"/>
	<path class="st0" d="M344.4,165.9h-13l15.4-81.4h15.6l15.5,81.4h-14l-2.5-14.9h-14.5L344.4,165.9z M354,107.4l-5.4,32.6h10.9
		l-5.4-32.6H354z"/>
	<path class="st0" d="M408.7,84.5h12.8l-15.5,81.4h-14.9l-15.5-81.4h13.9l9.4,56.8h0.1L408.7,84.5z"/>
	<path class="st0" d="M456.3,165.9l-16.1-51.1v51.1h-11.5V84.5h13.4l14.8,46.7V84.5h11.4v81.4H456.3z"/>
	<path class="st0" d="M496.1,166.8c-6.6,0-11.5-1.7-14.6-5c-3.1-3.3-4.7-7.8-4.7-13.5v-10.9h12.7v11.2c0,4.8,2.2,7.2,6.7,7.2
		c4.2,0,6.2-2.4,6.2-7.2v-3.1c0-2.2-0.5-4.2-1.4-5.9c-0.9-1.7-2.5-3.6-4.7-5.6l-8-8c-4.2-4.2-7.2-7.7-8.9-10.7
		c-1.7-3-2.5-6.6-2.5-11v-2.8c0-5.4,1.6-9.7,4.8-13c3.2-3.3,8-4.9,14.4-4.9c6.6,0,11.5,1.6,14.5,4.7c3,3.1,4.6,7.7,4.6,13.8v6.6
		h-12.5v-7.1c0-4.6-2.2-7-6.5-7s-6.5,2.2-6.5,6.7v1.7c0,2.1,0.5,3.9,1.5,5.4c1,1.5,2.7,3.4,5,5.6l8.8,8.6c4.1,4.2,6.9,7.7,8.6,10.5
		c1.6,2.8,2.5,6.4,2.5,10.6v4c0,5.8-1.6,10.5-4.9,13.9C507.8,165.1,502.8,166.8,496.1,166.8z"/>
	<path class="st0" d="M521.3,95.7V84.5h36.4v11.2h-11.3v70.2h-13.8V95.7H521.3z"/>
	<path class="st0" d="M584.3,166.8c-5.3,0-9.6-1.2-12.8-3.5l-1.9,4.7h-5.9l3.7-9c-2.5-3.7-3.7-8.4-3.7-14.2v-39.4
		c0-6.7,1.7-12.1,5.2-16c3.4-4,8.6-5.9,15.5-5.9c5.2,0,9.5,1.2,13,3.6l1.9-4.7h5.9l-3.7,8.9c2.5,3.7,3.7,8.4,3.7,14.2v39.4
		c0,6.6-1.7,12-5.2,16C596.5,164.8,591.3,166.8,584.3,166.8z M576.9,103v33.2l14.8-35.5c-0.8-4.1-3.2-6.1-7.3-6.1
		c-2.3,0-4.1,0.8-5.5,2.3C577.5,98.4,576.9,100.4,576.9,103z M584.3,155.8c2.4,0,4.3-0.8,5.6-2.3c1.3-1.5,2-3.6,2-6.1v-33.1
		l-14.8,35.6C577.9,153.8,580.3,155.8,584.3,155.8z"/>
	<path class="st0" d="M612,130v-11h3.5V84.5h21.1c13.2,0,19.8,7.3,19.8,21.8V144c0,14.6-6.6,21.8-19.8,21.8h-21.1V130H612z
		 M629.2,154.7h5.8c5.2,0,7.8-2.8,7.8-8.3v-42.6c0-5.4-2.6-8.2-7.8-8.2h-5.8v23.3h8.8v11h-8.8V154.7z"/>
	<path class="st0" d="M674.7,165.9h-13l15.4-81.4h15.6l15.5,81.4h-14l-2.5-14.9h-14.5L674.7,165.9z M684.3,107.4l-5.4,32.6h10.9
		l-5.4-32.6H684.3z"/>
	<path class="st0" d="M327,285.9v-52.8h-0.4l-9.2,52.8h-6.4l-10.2-52.8h-0.2v52.8h-11.3v-81.4h16l8.9,45.8h0.1l7.9-45.8h17.3v81.4
		H327z"/>
	<path class="st0" d="M348.7,285.9v-81.4h13.7v81.4H348.7z"/>
	<path class="st0" d="M371.8,285.9v-81.4h13.7v70.2h16.3v11.2H371.8z"/>
	<path class="st0" d="M409.5,285.9v-81.4h13.7v70.2h16.3v11.2H409.5z"/>
	<path class="st0" d="M473.1,204.5h12.6v61.6c0,13.8-6.4,20.8-19.3,20.8c-13.6,0-20.4-6.9-20.4-20.8v-61.6h13.7v62.9
		c0,5.4,2.2,8,6.7,8c4.5,0,6.7-2.7,6.7-8V204.5z"/>
	<path class="st0" d="M532.6,285.9v-52.8h-0.4l-9.2,52.8h-6.4l-10.2-52.8h-0.2v52.8h-11.3v-81.4h16l8.9,45.8h0.1l7.9-45.8h17.3v81.4
		H532.6z"/>
	<path class="st0" d="M596.3,285.9L582,246.3v39.6h-13.7v-81.4H582v35.8l14.9-35.8h13.4l-15.8,36.6l16.2,44.8H596.3z"/>
	<path class="st0" d="M657.9,204.5l-15.1,50.4v31h-13.7v-31l-15.2-50.4h14.3l8.3,30.8h0.1l8.3-30.8H657.9z"/>
	<path class="st0" d="M692.4,285.9l-16.1-51.1v51.1h-11.5v-81.4h13.4l14.8,46.7v-46.7h11.4v81.4H692.4z"/>
</g>
</svg>
