<?xml version="1.0" encoding="utf-8"?>
<!-- Generator: Adobe Illustrator 26.1.0, SVG Export Plug-In . SVG Version: 6.00 Build 0)  -->
<svg version="1.1" id="Layer_1" focusable="false" xmlns="http://www.w3.org/2000/svg" xmlns:xlink="http://www.w3.org/1999/xlink"
	 x="0px" y="0px" viewBox="0 0 1000 1000" style="enable-background:new 0 0 1000 1000;" xml:space="preserve">
<style type="text/css">
	.st0{fill:#FFFFFF;}
</style>
<link  id="dark-mode-general-link" rel="stylesheet" type="text/css" xmlns=""></link>
<link  id="dark-mode-custom-link" rel="stylesheet" type="text/css" xmlns=""></link>
<path class="st0" d="M151.3,288.1c36,0,49.9-19.6,49.9-50.9v-29.7c0-33-13.1-49.7-37.5-49.7c-14.3,0-22.9,6.6-27.9,16.4h-0.3v-43.4
	c0-12.2,3.9-20.8,16.1-20.8s15.8,7.1,15.8,19.6V143h30.9v-10.8c0-29.7-9.8-50.6-47.3-50.6c-35.7,0-49.1,22.9-49.1,54.4v98.1
	C101.9,265.5,115.6,288.1,151.3,288.1 M135.5,203.3c0.6-11.3,5.4-18.4,16.1-18.4c11.6,0,16.1,7.1,16.1,20.2v35.1
	c0,12.8-4.7,20.2-16.3,20.2c-11.3,0-15.8-7.7-15.8-20.2V203.3z"/>
<path class="st0" d="M684.7,404.4c-0.8-0.9-2-1.4-3.3-1.4H318.6c-2.3-0.1-4.2,1.7-4.2,3.9c0,0.3,0,0.6,0.1,0.9l61,368.6
	c0.3,2,2.1,3.5,4.2,3.5h74.8l5.1,60H428l73.2,73.2l73.4-73.4h-31.5l5.1-59.8h76.1c2.1,0,3.9-1.5,4.2-3.6l57-368.6
	C685.8,406.6,685.4,405.3,684.7,404.4z M544.4,699.5c-11.8,10.7-27.4,16.2-43.3,15.1c-15.9,1.1-31.6-4.3-43.3-15.1
	c-27.2-27.2-17.5-60.9-8-78.4c5.8-10.9,47.6-73.6,51.2-79v-0.4l0.2,0.2l0.1-0.2v0.4c3.5,5.3,45.3,68,51.2,79
	C561.9,638.5,571.6,672.3,544.4,699.5z M659.5,481.9c-9.8-4.3-22.3-2.8-34.3,2.1c-45,18.2-75.7,24.8-123,10
	c-29.8-9.3-57.7-28.9-90.7-17c-21.9,7.9-42.3,15.4-67,15.2l-14.3-73.3h339.5L659.5,481.9z"/>
<g>
	<path class="st0" d="M315.9,165.9L303,128.5v37.3h-13.7V84.5h19.9c6.6,0,11.4,1.6,14.4,4.7c3,3.1,4.4,7.6,4.4,13.6v10.4
		c0,8.8-3.6,14-10.9,15.7l13.1,37H315.9z M307.6,95.7H303V121h4.6c4.5,0,6.7-2.2,6.7-6.7v-12C314.3,97.9,312.1,95.7,307.6,95.7z"/>
	<path class="st0" d="M337,165.9V84.5h32.6v11.2h-19v23.3h13.6v11h-13.6v24.7h19v11.2H337z"/>
	<path class="st0" d="M378.4,165.9V84.5h13.7v81.4H378.4z"/>
	<path class="st0" d="M429,165.9l-16.1-51.1v51.1h-11.5V84.5h13.4l14.8,46.7V84.5H441v81.4H429z"/>
	<path class="st0" d="M448.7,95.7V84.5h36.4v11.2h-11.3v70.2H460V95.7H448.7z"/>
	<path class="st0" d="M537.9,84.5h12.8l-15.5,81.4h-14.9l-15.5-81.4h13.9l9.4,56.8h0.1L537.9,84.5z"/>
	<path class="st0" d="M561.4,165.9h-13l15.4-81.4h15.6l15.5,81.4h-14l-2.5-14.9h-14.5L561.4,165.9z M571,107.4l-5.4,32.6h10.9
		l-5.4-32.6H571z"/>
	<path class="st0" d="M594.4,95.7V84.5h36.4v11.2h-11.3v70.2h-13.8V95.7H594.4z"/>
	<path class="st0" d="M666.1,165.9l-16.1-51.1v51.1h-11.5V84.5H652l14.8,46.7V84.5h11.4v81.4H666.1z"/>
	<path class="st0" d="M310,286.8c-6.9,0-12-2-15.5-6c-3.4-4-5.2-9.3-5.2-16v-39.4c0-6.7,1.7-12.1,5.2-16c3.4-4,8.6-5.9,15.5-5.9
		c7,0,12.2,2,15.6,5.9c3.4,4,5.2,9.3,5.2,16v39.4c0,6.6-1.7,12-5.2,16C322.1,284.8,316.9,286.8,310,286.8z M310,275.4
		c4.7,0,7.1-2.8,7.1-8.4v-43.7c0-5.6-2.4-8.4-7.1-8.4c-4.6,0-7,2.8-7,8.4V267C303,272.6,305.3,275.4,310,275.4z"/>
	<path class="st0" d="M360.6,253.2v-10.8h19.4v43.4h-9.8V277c-1.9,6.6-6.3,9.8-13.1,9.8c-5.7,0-10-2-12.8-6c-2.9-4-4.3-9.3-4.3-16
		v-39.4c0-6.7,1.7-12.1,5.1-16c3.4-4,8.5-5.9,15.4-5.9c7.1,0,12.2,1.8,15.1,5.3c3,3.6,4.4,8.6,4.4,15.1v7.2h-12.5v-8.3
		c0-5.3-2.3-7.9-6.8-7.9c-4.7,0-7.1,2.8-7.1,8.4V267c0,5.6,2.2,8.4,6.7,8.4c4.5,0,6.7-2.6,6.7-7.8v-14.4H360.6z"/>
	<path class="st0" d="M429.9,285.9L417,248.5v37.3h-13.7v-81.4h19.9c6.6,0,11.4,1.6,14.4,4.7c3,3.1,4.4,7.6,4.4,13.6v10.4
		c0,8.8-3.6,14-10.9,15.7l13.1,37H429.9z M421.6,215.7H417V241h4.6c4.5,0,6.7-2.2,6.7-6.7v-12C428.3,217.9,426.1,215.7,421.6,215.7z
		"/>
	<path class="st0" d="M451,285.9v-81.4h32.6v11.2h-19v23.3h13.6v11h-13.6v24.7h19v11.2H451z"/>
	<path class="st0" d="M492.4,285.9v-81.4h13.7v81.4H492.4z"/>
	<path class="st0" d="M543,285.9l-16.1-51.1v51.1h-11.5v-81.4h13.4l14.8,46.7v-46.7H555v81.4H543z"/>
	<path class="st0" d="M564.3,285.9v-81.4h32v11.2h-18.4v23.3h13.7v11h-13.7v35.9H564.3z"/>
	<path class="st0" d="M623.2,286.8c-5.3,0-9.6-1.2-12.8-3.5l-1.9,4.7h-5.9l3.7-9c-2.5-3.7-3.7-8.4-3.7-14.2v-39.4
		c0-6.7,1.7-12.1,5.2-16c3.4-4,8.6-5.9,15.5-5.9c5.2,0,9.5,1.2,13,3.6l1.9-4.7h5.9l-3.7,8.9c2.5,3.7,3.7,8.4,3.7,14.2v39.4
		c0,6.6-1.7,12-5.2,16C635.3,284.8,630.1,286.8,623.2,286.8z M615.7,223v33.2l14.8-35.5c-0.8-4.1-3.2-6.1-7.3-6.1
		c-2.3,0-4.1,0.8-5.5,2.3C616.4,218.4,615.7,220.4,615.7,223z M623.2,275.8c2.4,0,4.3-0.8,5.6-2.3c1.3-1.5,2-3.6,2-6.1v-33.1
		L616,269.9C616.8,273.8,619.2,275.8,623.2,275.8z"/>
	<path class="st0" d="M679.7,285.9l-12.8-37.3v37.3h-13.7v-81.4h19.9c6.6,0,11.4,1.6,14.4,4.7c3,3.1,4.4,7.6,4.4,13.6v10.4
		c0,8.8-3.6,14-10.9,15.7l13.1,37H679.7z M671.4,215.7h-4.6V241h4.6c4.5,0,6.7-2.2,6.7-6.7v-12C678.1,217.9,675.9,215.7,671.4,215.7
		z"/>
	<path class="st0" d="M700.8,285.9v-81.4h13.7v81.4H700.8z"/>
</g>
</svg>
