<?xml version="1.0" encoding="utf-8"?>
<!-- Generator: Adobe Illustrator 26.1.0, SVG Export Plug-In . SVG Version: 6.00 Build 0)  -->
<svg version="1.1" id="Layer_1" focusable="false" xmlns="http://www.w3.org/2000/svg" xmlns:xlink="http://www.w3.org/1999/xlink"
	 x="0px" y="0px" viewBox="0 0 1000 1000" style="enable-background:new 0 0 1000 1000;" xml:space="preserve">
<style type="text/css">
	.st0{fill:#FFFFFF;}
</style>
<link  id="dark-mode-general-link" rel="stylesheet" type="text/css" xmlns=""></link>
<link  id="dark-mode-custom-link" rel="stylesheet" type="text/css" xmlns=""></link>
<g id="_Group_">
	<path id="_Compound_Path_" class="st0" d="M194.3,236.1v-22c0-19.3-6.8-33.3-22.6-40.4c13.4-6.5,19.6-18.4,19.6-35.1v-8.3
		c0-31.5-16.4-48.5-47.6-48.5c-30.9,0-47,17-47,48.5v8.3c0,16.4,6,28.6,19,35.1c-15.8,7.1-22.3,21.1-22.3,40.4v22
		c0,30.6,14.6,52,50.3,52C179.7,288.1,194.3,266.7,194.3,236.1 M128.5,128.1c0-12.2,4.2-19.3,15.2-19.3c11.3,0,15.5,7.1,15.5,19.3
		v13.7c0,12.2-4.2,19.4-15.5,19.4c-11,0-15.2-7.2-15.2-19.4V128.1z M160.4,239.6c0,12.2-4.5,20.8-16.6,20.8
		c-11.9,0-16.4-8.6-16.4-20.8v-32.7c0-12.2,4.5-20.8,16.4-20.8c12.2,0,16.6,8.6,16.6,20.8V239.6z"/>
	<g>
		<path id="_Path_2" class="st0" d="M694.2,492l-101.6,96.7c-3.8,3.8-5.8,6.6-5.8,14.5v271c0,3.2,2.6,5.8,5.8,5.8h105
			c3.2,0,5.8-2.6,5.8-5.8V494.4C703.3,491.2,700.8,485.4,694.2,492"/>
		<path id="_Path_3" class="st0" d="M401.3,618l-101.6,96.6c-3.8,3.8-5.8,6.6-5.8,14.5v145c0,3.2,2.6,5.8,5.8,5.8h105
			c3.2,0,5.8-2.6,5.8-5.8V620.4C410.5,617.2,408,611.3,401.3,618"/>
		<path id="_Path_4" class="st0" d="M740.4,374.7c0-0.8-0.3-1.6-0.9-2.2c-0.5-0.5-1.2-0.8-1.9-0.8h-0.6h-0.8l-77.8,17.6l-1.4,0.1
			c-0.6,0.1-1.1,0.4-1.5,0.8c-1.1,1.2-1.1,3,0,4.2l0.9,0.9l17.8,17.8L497.8,589.5L416.3,508c-0.9-0.9-2.4-0.9-3.3,0c0,0,0,0,0,0
			l-22.1,22.1l0,0L260.3,660.7c-0.9,0.9-0.9,2.4,0,3.3l22.1,22.1c0.9,0.9,2.4,0.9,3.3,0c0,0,0,0,0,0l129-128.9l59.1,59.1
			c0.1,0.1,0.1,0.2,0.2,0.3l22.1,22.1c0.9,0.9,2.4,0.9,3.3,0c0,0,0,0,0,0l200.1-200.2l18.7,18.6c1.1,1.1,3,1.2,4.1,0c0,0,0,0,0,0
			c0.5-0.5,0.8-1.2,0.8-1.9V455l17.1-79.4L740.4,374.7z"/>
		<path id="_Path_5" class="st0" d="M548.3,634.9l-49.2,49.6c-0.9,0.8-2.3,0.7-3.2-0.1L451.4,639c-8.2-8.1-9.9-1.5-9.9,1.7v233.5
			c0,3.2,2.6,5.8,5.8,5.8c0,0,0,0,0,0h105c3.2,0,5.8-2.6,5.8-5.8V636.8C558,633.6,555.5,627.7,548.3,634.9"/>
	</g>
</g>
<g>
	<path class="st0" d="M290.9,166.8c-6.6,0-11.5-1.7-14.6-5c-3.1-3.3-4.7-7.8-4.7-13.5v-10.9h12.7v11.2c0,4.8,2.2,7.2,6.7,7.2
		c4.2,0,6.2-2.4,6.2-7.2v-3.1c0-2.2-0.5-4.2-1.4-5.9c-0.9-1.7-2.5-3.6-4.7-5.6l-8-8c-4.2-4.2-7.2-7.7-8.9-10.7
		c-1.7-3-2.5-6.6-2.5-11v-2.8c0-5.4,1.6-9.7,4.8-13c3.2-3.3,8-4.9,14.4-4.9c6.6,0,11.5,1.6,14.5,4.7c3,3.1,4.6,7.7,4.6,13.8v6.6
		h-12.5v-7.1c0-4.6-2.2-7-6.5-7s-6.5,2.2-6.5,6.7v1.7c0,2.1,0.5,3.9,1.5,5.4c1,1.5,2.7,3.4,5,5.6l8.8,8.6c4.1,4.2,6.9,7.7,8.6,10.5
		c1.6,2.8,2.5,6.4,2.5,10.6v4c0,5.8-1.6,10.5-4.9,13.9C302.7,165.1,297.7,166.8,290.9,166.8z"/>
	<path class="st0" d="M340.1,166.8c-5.3,0-9.6-1.2-12.8-3.5l-1.9,4.7h-5.9l3.7-9c-2.5-3.7-3.7-8.4-3.7-14.2v-39.4
		c0-6.7,1.7-12.1,5.2-16c3.4-4,8.6-5.9,15.5-5.9c5.2,0,9.5,1.2,13,3.6l1.9-4.7h5.9l-3.7,8.9c2.5,3.7,3.7,8.4,3.7,14.2v39.4
		c0,6.6-1.7,12-5.2,16C352.3,164.8,347.1,166.8,340.1,166.8z M332.7,103v33.2l14.8-35.5c-0.8-4.1-3.2-6.1-7.3-6.1
		c-2.3,0-4.1,0.8-5.5,2.3C333.4,98.4,332.7,100.4,332.7,103z M340.1,155.8c2.4,0,4.3-0.8,5.6-2.3c1.3-1.5,2-3.6,2-6.1v-33.1
		l-14.8,35.6C333.7,153.8,336.1,155.8,340.1,155.8z"/>
	<path class="st0" d="M407.8,165.9v-52.8h-0.4l-9.2,52.8h-6.4l-10.2-52.8h-0.2v52.8h-11.3V84.5h16l8.9,45.8h0.1l7.9-45.8h17.3v81.4
		H407.8z"/>
	<path class="st0" d="M429.5,165.9V84.5h13.7v81.4H429.5z"/>
	<path class="st0" d="M452.6,165.9V84.5h13.7v70.2h16.3v11.2H452.6z"/>
	<path class="st0" d="M490.3,165.9V84.5h13.7v81.4H490.3z"/>
	<path class="st0" d="M533.9,133.2v-10.8h19.4v43.4h-9.8V157c-1.9,6.6-6.3,9.8-13.1,9.8c-5.7,0-10-2-12.8-6c-2.9-4-4.3-9.3-4.3-16
		v-39.4c0-6.7,1.7-12.1,5.1-16c3.4-4,8.5-5.9,15.4-5.9c7.1,0,12.2,1.8,15.1,5.3c3,3.6,4.4,8.6,4.4,15.1v7.2h-12.5v-8.3
		c0-5.3-2.3-7.9-6.8-7.9c-4.7,0-7.1,2.8-7.1,8.4V147c0,5.6,2.2,8.4,6.7,8.4c4.5,0,6.7-2.6,6.7-7.8v-14.4H533.9z"/>
	<path class="st0" d="M558.7,95.7V84.5H595v11.2h-11.3v70.2h-13.8V95.7H558.7z"/>
	<path class="st0" d="M627.7,165.9h-13l15.4-81.4h15.6l15.5,81.4h-14l-2.5-14.9h-14.5L627.7,165.9z M637.3,107.4l-5.4,32.6h10.9
		l-5.4-32.6H637.3z"/>
	<path class="st0" d="M694.7,165.9l-12.8-37.3v37.3h-13.7V84.5h19.9c6.6,0,11.4,1.6,14.4,4.7c3,3.1,4.4,7.6,4.4,13.6v10.4
		c0,8.8-3.6,14-10.9,15.7l13.1,37H694.7z M686.5,95.7h-4.6V121h4.6c4.5,0,6.7-2.2,6.7-6.7v-12C693.2,97.9,690.9,95.7,686.5,95.7z"/>
	<path class="st0" d="M715.9,165.9V84.5h19.8c6.6,0,11.3,1.5,14.1,4.4c2.8,3,4.1,7.4,4.1,13.4v8.3c0,6.9-2.7,11.2-8.2,13
		c6.8,1.5,10.2,6,10.2,13.6V148c0,5.9-1.5,10.4-4.4,13.4c-3,3-7.8,4.5-14.4,4.5H715.9z M729.5,95.7v23.2h4.8c4.3,0,6.5-2.2,6.5-6.6
		v-10c0-4.4-2.2-6.6-6.6-6.6H729.5z M735.4,129.3h-5.9v25.4h6c4.5,0,6.7-2.2,6.7-6.6v-12.2C742.3,131.5,740,129.3,735.4,129.3z"/>
	<path class="st0" d="M764.2,165.9V84.5h32.6v11.2h-19v23.3h13.6v11h-13.6v24.7h19v11.2H764.2z"/>
	<path class="st0" d="M805.6,165.9V84.5h13.7v81.4H805.6z"/>
	<path class="st0" d="M826.4,130v-11h3.5V84.5H851c13.2,0,19.8,7.3,19.8,21.8V144c0,14.6-6.6,21.8-19.8,21.8h-21.1V130H826.4z
		 M843.5,154.7h5.8c5.2,0,7.8-2.8,7.8-8.3v-42.6c0-5.4-2.6-8.2-7.8-8.2h-5.8v23.3h8.8v11h-8.8V154.7z"/>
	<path class="st0" d="M880,165.9V84.5h13.7v81.4H880z"/>
	<path class="st0" d="M293,286.8c-6.9,0-12-2-15.5-6c-3.4-4-5.2-9.3-5.2-16v-39.4c0-6.7,1.7-12.1,5.2-16c3.4-4,8.6-5.9,15.5-5.9
		c7,0,12.2,2,15.6,5.9c3.4,4,5.2,9.3,5.2,16v39.4c0,6.6-1.7,12-5.2,16C305.1,284.8,299.9,286.8,293,286.8z M293,275.4
		c4.7,0,7.1-2.8,7.1-8.4v-43.7c0-5.6-2.4-8.4-7.1-8.4c-4.6,0-7,2.8-7,8.4V267C286,272.6,288.3,275.4,293,275.4z"/>
	<path class="st0" d="M343.6,253.2v-10.8h19.4v43.4h-9.8V277c-1.9,6.6-6.3,9.8-13.1,9.8c-5.7,0-10-2-12.8-6c-2.9-4-4.3-9.3-4.3-16
		v-39.4c0-6.7,1.7-12.1,5.1-16c3.4-4,8.5-5.9,15.4-5.9c7.1,0,12.2,1.8,15.1,5.3c3,3.6,4.4,8.6,4.4,15.1v7.2h-12.5v-8.3
		c0-5.3-2.3-7.9-6.8-7.9c-4.7,0-7.1,2.8-7.1,8.4V267c0,5.6,2.2,8.4,6.7,8.4c4.5,0,6.7-2.6,6.7-7.8v-14.4H343.6z"/>
	<path class="st0" d="M386.3,285.9v-81.4h19.8c6.6,0,11.3,1.5,14.1,4.4c2.8,3,4.1,7.4,4.1,13.4v8.3c0,6.9-2.7,11.2-8.2,13
		c6.8,1.5,10.2,6,10.2,13.6V268c0,5.9-1.5,10.4-4.4,13.4c-3,3-7.8,4.5-14.4,4.5H386.3z M400,215.7v23.2h4.8c4.3,0,6.5-2.2,6.5-6.6
		v-10c0-4.4-2.2-6.6-6.6-6.6H400z M405.9,249.3H400v25.4h6c4.5,0,6.7-2.2,6.7-6.6v-12.2C412.7,251.5,410.5,249.3,405.9,249.3z"/>
	<path class="st0" d="M461.8,204.5h12.6v61.6c0,13.8-6.4,20.8-19.3,20.8c-13.6,0-20.4-6.9-20.4-20.8v-61.6h13.7v62.9
		c0,5.4,2.2,8,6.7,8c4.5,0,6.7-2.7,6.7-8V204.5z M466,189.3v9.5l-21.5,2.8v-7.7L466,189.3z"/>
	<path class="st0" d="M502.3,286.8c-6.6,0-11.5-1.7-14.6-5c-3.1-3.3-4.7-7.8-4.7-13.5v-10.9h12.7v11.2c0,4.8,2.2,7.2,6.7,7.2
		c4.2,0,6.2-2.4,6.2-7.2v-3.1c0-2.2-0.5-4.2-1.4-5.9c-0.9-1.7-2.5-3.6-4.7-5.6l-8-8c-4.2-4.2-7.2-7.7-8.9-10.7
		c-1.7-3-2.5-6.6-2.5-11v-2.8c0-5.4,1.6-9.7,4.8-13c3.2-3.3,8-4.9,14.4-4.9c6.6,0,11.5,1.6,14.5,4.7c3,3.1,4.6,7.7,4.6,13.8v6.6
		h-12.5v-7.1c0-4.6-2.2-7-6.5-7s-6.5,2.2-6.5,6.7v1.7c0,2.1,0.5,3.9,1.5,5.4c1,1.5,2.7,3.4,5,5.6l8.8,8.6c4.1,4.2,6.9,7.7,8.6,10.5
		c1.6,2.8,2.5,6.4,2.5,10.6v4c0,5.8-1.6,10.5-4.9,13.9C514,285.1,509,286.8,502.3,286.8z"/>
	<path class="st0" d="M558.8,285.9l-14.3-39.6v39.6h-13.7v-81.4h13.7v35.8l14.9-35.8h13.4L557,241.1l16.2,44.8H558.8z"/>
	<path class="st0" d="M590.6,285.9h-13l15.4-81.4h15.6l15.5,81.4h-14l-2.5-14.9H593L590.6,285.9z M600.2,227.4l-5.4,32.6h10.9
		l-5.4-32.6H600.2z"/>
	<path class="st0" d="M631.1,285.9v-81.4h20.3c6.6,0,11.4,1.6,14.4,4.7c3,3.1,4.4,7.6,4.4,13.6v17.2c0,6-1.5,10.6-4.4,13.7
		c-3,3.1-7.8,4.7-14.4,4.7h-6.6v27.6H631.1z M649.9,215.7h-5v32h5c4.5,0,6.7-2.2,6.7-6.7v-18.7C656.6,217.9,654.3,215.7,649.9,215.7
		z"/>
	<path class="st0" d="M684.8,285.9h-13l15.4-81.4h15.6l15.5,81.4h-14l-2.5-14.9h-14.5L684.8,285.9z M694.4,227.4l-5.4,32.6h10.9
		l-5.4-32.6H694.4z"/>
	<path class="st0" d="M751.9,285.9L739,248.5v37.3h-13.7v-81.4h19.9c6.6,0,11.4,1.6,14.4,4.7c3,3.1,4.4,7.6,4.4,13.6v10.4
		c0,8.8-3.6,14-10.9,15.7l13.1,37H751.9z M743.6,215.7H739V241h4.6c4.5,0,6.7-2.2,6.7-6.7v-12C750.3,217.9,748.1,215.7,743.6,215.7z
		"/>
	<path class="st0" d="M770.3,253.6v-11h19.2v11H770.3z"/>
	<path class="st0" d="M303.3,324.5h12.8l-15.5,81.4h-14.9l-15.5-81.4h13.9l9.4,56.8h0.1L303.3,324.5z"/>
	<path class="st0" d="M341.5,406.8c-5.3,0-9.6-1.2-12.8-3.5l-1.9,4.7h-5.9l3.7-9c-2.5-3.7-3.7-8.4-3.7-14.2v-39.4
		c0-6.7,1.7-12.1,5.2-16c3.4-4,8.6-5.9,15.5-5.9c5.2,0,9.5,1.2,13,3.6l1.9-4.7h5.9l-3.7,8.9c2.5,3.7,3.7,8.4,3.7,14.2v39.4
		c0,6.6-1.7,12-5.2,16C353.6,404.8,348.4,406.8,341.5,406.8z M334,343v33.2l14.8-35.5c-0.8-4.1-3.2-6.1-7.3-6.1
		c-2.3,0-4.1,0.8-5.5,2.3C334.7,338.4,334,340.4,334,343z M341.5,395.8c2.4,0,4.3-0.8,5.6-2.3c1.3-1.5,2-3.6,2-6.1v-33.1l-14.8,35.6
		C335.1,393.8,337.5,395.8,341.5,395.8z"/>
	<path class="st0" d="M399.4,405.9l-14.3-39.6v39.6h-13.7v-81.4h13.7v35.8l14.9-35.8h13.4l-15.8,36.6l16.2,44.8H399.4z"/>
	<path class="st0" d="M437.2,406.8c-6.6,0-11.5-1.7-14.6-5c-3.1-3.3-4.7-7.8-4.7-13.5v-10.9h12.7v11.2c0,4.8,2.2,7.2,6.7,7.2
		c4.2,0,6.2-2.4,6.2-7.2v-3.1c0-2.2-0.5-4.2-1.4-5.9c-0.9-1.7-2.5-3.6-4.7-5.6l-8-8c-4.2-4.2-7.2-7.7-8.9-10.7
		c-1.7-3-2.5-6.6-2.5-11v-2.8c0-5.4,1.6-9.7,4.8-13c3.2-3.3,8-4.9,14.4-4.9c6.6,0,11.5,1.6,14.5,4.7c3,3.1,4.6,7.7,4.6,13.8v6.6
		h-12.5v-7.1c0-4.6-2.2-7-6.5-7s-6.5,2.2-6.5,6.7v1.7c0,2.1,0.5,3.9,1.5,5.4c1,1.5,2.7,3.4,5,5.6l8.8,8.6c4.1,4.2,6.9,7.7,8.6,10.5
		c1.6,2.8,2.5,6.4,2.5,10.6v4c0,5.8-1.6,10.5-4.9,13.9C448.9,405.1,443.9,406.8,437.2,406.8z"/>
	<path class="st0" d="M462.4,335.7v-11.2h36.4v11.2h-11.3v70.2h-13.8v-70.2H462.4z"/>
	<path class="st0" d="M533.7,324.5h12.6v61.6c0,13.8-6.4,20.8-19.3,20.8c-13.6,0-20.4-6.9-20.4-20.8v-61.6h13.7v62.9
		c0,5.4,2.2,8,6.7,8c4.5,0,6.7-2.7,6.7-8V324.5z"/>
	<path class="st0" d="M582.1,405.9l-12.8-37.3v37.3h-13.7v-81.4h19.9c6.6,0,11.4,1.6,14.4,4.7c3,3.1,4.4,7.6,4.4,13.6v10.4
		c0,8.8-3.6,14-10.9,15.7l13.1,37H582.1z M573.8,335.7h-4.6V361h4.6c4.5,0,6.7-2.2,6.7-6.7v-12C580.5,337.9,578.3,335.7,573.8,335.7
		z"/>
</g>
</svg>
