<?xml version="1.0" encoding="utf-8"?>
<!-- Generator: Adobe Illustrator 26.1.0, SVG Export Plug-In . SVG Version: 6.00 Build 0)  -->
<svg version="1.1" id="Layer_1" focusable="false" xmlns="http://www.w3.org/2000/svg" xmlns:xlink="http://www.w3.org/1999/xlink"
	 x="0px" y="0px" viewBox="0 0 1000 1000" style="enable-background:new 0 0 1000 1000;" xml:space="preserve">
<style type="text/css">
	.st0{fill:#FFFFFF;}
</style>
<link  id="dark-mode-general-link" rel="stylesheet" type="text/css" xmlns=""></link>
<link  id="dark-mode-custom-link" rel="stylesheet" type="text/css" xmlns=""></link>
<path id="_Compound_Path_" class="st0" d="M183.1,134.5c0-31.2-13.7-53.8-49.3-53.8c-36,0-49.9,19.6-49.9,50.8v29.7
	c0,33,13.1,49.6,37.5,49.6c14.3,0,22.9-6.6,27.9-16.3h0.3V238c0,12.2-4.8,20.8-16.9,20.8s-16.6-7.2-16.6-19.7v-13.4H85.1v10.7
	c0,29.7,10.7,50.5,48.2,50.5c35.6,0,49.9-22.9,49.9-54.4V134.5z M149.5,165.4c-0.6,11.3-5.3,18.4-16,18.4c-11.6,0-16-7.1-16-20.2
	v-35.1c0-12.8,4.7-20.2,16.4-20.2c11.3,0,15.7,7.7,15.7,20.2L149.5,165.4z"/>
<path id="_Compound_Path_2" class="st0" d="M749.9,657.3L631,588.7V451.4c0-2.9-1.5-5.5-4-7l-122.9-71c-2.5-1.5-5.6-1.5-8.1,0
	l-123,71c-2.5,1.5-4,4.1-4,7v137.3l-118.9,68.6c-2.5,1.4-4.1,4.1-4.1,7v142c0,2.9,1.6,5.6,4.1,7l122.9,71c2.5,1.4,5.6,1.4,8.1,0
	L500,815.6l118.8,68.6c2.5,1.4,5.6,1.4,8.1,0l122.9-71c2.5-1.4,4-4.1,4.1-7v-142C753.9,661.4,752.4,658.7,749.9,657.3z M491.9,792.2
	l-98.6-56.9l98.6-56.9L491.9,792.2z M606.7,593.4l-98.6,56.9V536.4L606.7,593.4z M491.9,650.3l-98.6-56.9l98.6-56.9L491.9,650.3z
	 M516.2,664.3l106.7-61.5l106.7,61.6l-106.7,61.6L516.2,664.3z M614.8,579.3l-98.6-56.9l98.6-56.9V579.3z M483.8,522.3l-98.6,56.9
	V465.5L483.8,522.3z M369,863.2l-106.7-61.6V678.3L369,740V863.2z M385.2,863.2V749.3l98.6,56.9L385.2,863.2z M737.7,801.6
	L631,863.2V740l106.7-61.6L737.7,801.6z"/>
<g>
	<path class="st0" d="M267.5,84.5h11.8l-14.2,74.6h-13.6l-14.2-74.6H250l8.6,52h0.1L267.5,84.5z"/>
	<path class="st0" d="M285.7,159.1V84.5h12.5v74.6H285.7z"/>
	<path class="st0" d="M332.2,159.1l-14.7-46.9v46.9h-10.6V84.5h12.3l13.5,42.8V84.5h10.5v74.6H332.2z"/>
	<path class="st0" d="M376.9,159.1l-14.7-46.9v46.9h-10.6V84.5h12.3l13.5,42.8V84.5h10.4v74.6H376.9z"/>
	<path class="st0" d="M406.3,159.1h-11.9l14.1-74.6h14.3l14.2,74.6h-12.9l-2.3-13.6h-13.3L406.3,159.1z M415.1,105.5l-5,29.9h10
		l-4.9-29.9H415.1z"/>
	<path class="st0" d="M456.3,147.1v1l-6.4,16.8h-7l1.5-17.8H456.3z"/>
	<path class="st0" d="M503,159.1l-14.7-46.9v46.9h-10.6V84.5H490l13.5,42.8V84.5H514v74.6H503z"/>
	<path class="st0" d="M560.7,84.5l-13.9,46.2v28.4h-12.5v-28.4l-14-46.2h13.1l7.6,28.3h0.1l7.6-28.3H560.7z M550.5,70.5v8.7
		l-19.7,2.5v-7L550.5,70.5z"/>
	<path class="st0" d="M582,160c-6.1,0-10.6-1.5-13.4-4.6c-2.9-3-4.3-7.2-4.3-12.4v-10h11.7v10.2c0,4.4,2.1,6.6,6.2,6.6
		c3.8,0,5.7-2.2,5.7-6.6v-2.9c0-2.1-0.4-3.8-1.3-5.4c-0.8-1.5-2.3-3.3-4.3-5.2l-7.4-7.4c-3.9-3.8-6.6-7.1-8.1-9.8
		c-1.5-2.7-2.3-6.1-2.3-10.1V100c0-4.9,1.5-8.9,4.4-11.9c2.9-3,7.3-4.5,13.2-4.5c6.1,0,10.5,1.4,13.3,4.3c2.8,2.9,4.2,7.1,4.2,12.6
		v6H588v-6.5c0-4.3-2-6.4-5.9-6.4s-5.9,2.1-5.9,6.2v1.5c0,1.9,0.5,3.6,1.4,5c0.9,1.4,2.4,3.1,4.6,5.2l8,7.9c3.7,3.8,6.4,7,7.9,9.6
		c1.5,2.6,2.3,5.8,2.3,9.7v3.6c0,5.4-1.5,9.6-4.5,12.8C592.7,158.4,588.1,160,582,160z"/>
	<path class="st0" d="M633.8,159.1l-13.1-36.3v36.3h-12.5V84.5h12.5v32.8l13.6-32.8h12.3L632.1,118l14.8,41H633.8z"/>
	<path class="st0" d="M662.9,159.1H651l14.1-74.6h14.3l14.2,74.6h-12.9l-2.3-13.6h-13.3L662.9,159.1z M671.7,105.5l-5,29.9h10
		l-5-29.9H671.7z"/>
	<path class="st0" d="M700.1,159.1V84.5h18.6c6.1,0,10.5,1.4,13.2,4.3c2.7,2.9,4.1,7,4.1,12.4v15.7c0,5.5-1.4,9.7-4.1,12.5
		c-2.7,2.9-7.1,4.3-13.2,4.3h-6v25.3H700.1z M717.3,94.7h-4.6v29.4h4.6c4.1,0,6.2-2.1,6.2-6.2v-17.2
		C723.4,96.7,721.4,94.7,717.3,94.7z"/>
	<path class="st0" d="M749.3,159.1h-11.9l14.1-74.6h14.3l14.2,74.6h-12.9l-2.3-13.6h-13.3L749.3,159.1z M758.1,105.5l-5,29.9h10
		l-5-29.9H758.1z"/>
	<path class="st0" d="M811.7,159.1L797,112.2v46.9h-10.6V84.5h12.3l13.5,42.8V84.5h10.4v74.6H811.7z"/>
	<path class="st0" d="M258,280c-6.3,0-11-1.8-14.2-5.5c-3.2-3.7-4.7-8.5-4.7-14.6v-36.1c0-6.2,1.6-11.1,4.7-14.7
		c3.2-3.6,7.9-5.4,14.2-5.4c6.4,0,11.1,1.8,14.3,5.4c3.2,3.6,4.7,8.5,4.7,14.7v36.1c0,6.1-1.6,11-4.7,14.6
		C269.2,278.1,264.4,280,258,280z M258,269.5c4.3,0,6.5-2.6,6.5-7.7v-40c0-5.1-2.2-7.7-6.5-7.7c-4.3,0-6.4,2.6-6.4,7.7v40
		C251.6,266.9,253.8,269.5,258,269.5z"/>
	<path class="st0" d="M304.4,249.2v-9.9h17.8v39.8h-9v-8.1c-1.8,6-5.8,9-12,9c-5.2,0-9.1-1.8-11.8-5.5c-2.6-3.7-4-8.5-4-14.6v-36.1
		c0-6.2,1.6-11.1,4.7-14.7c3.1-3.6,7.8-5.4,14.1-5.4c6.5,0,11.1,1.6,13.9,4.9c2.7,3.3,4.1,7.9,4.1,13.8v6.6h-11.4v-7.6
		c0-4.8-2.1-7.3-6.3-7.3c-4.3,0-6.5,2.6-6.5,7.7v40c0,5.1,2.1,7.7,6.2,7.7c4.1,0,6.2-2.4,6.2-7.2v-13.2H304.4z"/>
	<path class="st0" d="M368.5,204.5H380v56.4c0,12.7-5.9,19-17.7,19c-12.5,0-18.7-6.3-18.7-19v-56.4h12.5v57.6c0,4.9,2.1,7.4,6.2,7.4
		c4.1,0,6.2-2.5,6.2-7.4V204.5z"/>
	<path class="st0" d="M413.8,279.1L399,232.2v46.9h-10.6v-74.6h12.3l13.5,42.8v-42.8h10.4v74.6H413.8z"/>
	<path class="st0" d="M452.6,204.5c12.1,0,18.2,6.7,18.2,20v34.5c0,13.3-6,20-18.2,20h-19.4v-74.6H452.6z M445.8,268.8h5.3
		c4.8,0,7.2-2.5,7.2-7.6v-39.1c0-5-2.4-7.5-7.2-7.5h-5.3V268.8z"/>
	<path class="st0" d="M479.2,279.1v-74.6h12.5v74.6H479.2z"/>
	<path class="st0" d="M524.7,279.1l-11.8-34.2v34.2h-12.5v-74.6h18.3c6.1,0,10.5,1.4,13.2,4.3c2.7,2.9,4.1,7,4.1,12.4v9.6
		c0,8.1-3.3,12.9-10,14.4l12,33.9H524.7z M517.1,214.7h-4.2v23.2h4.2c4.1,0,6.2-2.1,6.2-6.2v-11
		C523.2,216.7,521.2,214.7,517.1,214.7z"/>
	<path class="st0" d="M560.5,280c-6.1,0-10.6-1.5-13.4-4.6c-2.9-3-4.3-7.2-4.3-12.4v-10h11.7v10.2c0,4.4,2.1,6.6,6.2,6.6
		c3.8,0,5.7-2.2,5.7-6.6v-2.9c0-2.1-0.4-3.8-1.3-5.4c-0.8-1.5-2.3-3.3-4.3-5.2l-7.4-7.4c-3.9-3.8-6.6-7.1-8.1-9.8
		c-1.5-2.7-2.3-6.1-2.3-10.1V220c0-4.9,1.5-8.9,4.4-11.9c2.9-3,7.3-4.5,13.2-4.5c6.1,0,10.5,1.4,13.3,4.3c2.8,2.9,4.2,7.1,4.2,12.6
		v6h-11.4v-6.5c0-4.3-2-6.4-5.9-6.4s-5.9,2.1-5.9,6.2v1.5c0,1.9,0.5,3.6,1.4,5c0.9,1.4,2.4,3.1,4.6,5.2l8,7.9c3.7,3.8,6.4,7,7.9,9.6
		c1.5,2.6,2.3,5.8,2.3,9.7v3.6c0,5.4-1.5,9.6-4.5,12.8C571.3,278.4,566.7,280,560.5,280z"/>
	<path class="st0" d="M583.6,214.7v-10.2h33.3v10.2h-10.3v64.4H594v-64.4H583.6z"/>
	<path class="st0" d="M641.4,280c-4.8,0-8.8-1.1-11.8-3.2l-1.8,4.3h-5.4l3.4-8.2c-2.3-3.4-3.4-7.7-3.4-13v-36.1
		c0-6.2,1.6-11.1,4.7-14.7c3.2-3.6,7.9-5.4,14.2-5.4c4.8,0,8.7,1.1,11.9,3.3l1.8-4.3h5.4l-3.4,8.1c2.3,3.4,3.4,7.7,3.4,13v36.1
		c0,6.1-1.6,11-4.7,14.6C652.5,278.1,647.7,280,641.4,280z M634.5,221.4v30.5l13.5-32.6c-0.7-3.7-3-5.6-6.7-5.6
		c-2.1,0-3.8,0.7-5,2.1C635.1,217.2,634.5,219.1,634.5,221.4z M641.4,269.8c2.2,0,3.9-0.7,5.1-2.1c1.2-1.4,1.8-3.3,1.8-5.6v-30.4
		l-13.5,32.7C635.5,268,637.7,269.8,641.4,269.8z"/>
	<path class="st0" d="M666.8,246.2v-10.1h3.2v-31.6h19.4c12.1,0,18.1,6.7,18.1,20v34.5c0,13.3-6,20-18.1,20H670v-32.9H666.8z
		 M682.5,268.8h5.3c4.8,0,7.2-2.5,7.2-7.6v-39.1c0-5-2.4-7.5-7.2-7.5h-5.3v21.3h8v10.1h-8V268.8z"/>
	<path class="st0" d="M740.8,204.5h11.6v56.4c0,12.7-5.9,19-17.7,19c-12.5,0-18.7-6.3-18.7-19v-56.4h12.5v57.6
		c0,4.9,2.1,7.4,6.2,7.4c4.1,0,6.2-2.5,6.2-7.4V204.5z"/>
	<path class="st0" d="M786.4,279.1l-13.1-36.3v36.3h-12.5v-74.6h12.5v32.8l13.6-32.8h12.3L784.8,238l14.8,41H786.4z"/>
	<path class="st0" d="M805.7,279.1v-74.6h29.9v10.2h-17.4v21.3h12.4v10.1h-12.4v22.7h17.4v10.2H805.7z"/>
	<path class="st0" d="M868,279.1l-11.8-34.2v34.2h-12.5v-74.6h18.3c6.1,0,10.5,1.4,13.2,4.3c2.7,2.9,4.1,7,4.1,12.4v9.6
		c0,8.1-3.3,12.9-10,14.4l12,33.9H868z M860.4,214.7h-4.2v23.2h4.2c4.1,0,6.2-2.1,6.2-6.2v-11C866.5,216.7,864.5,214.7,860.4,214.7z
		"/>
	<path class="st0" d="M914.6,204.5h11.8l-14.2,74.6h-13.6l-14.2-74.6h12.8l8.6,52h0.1L914.6,204.5z"/>
	<path class="st0" d="M932.9,279.1v-74.6h12.5v74.6H932.9z"/>
</g>
</svg>
