<?xml version="1.0" encoding="utf-8"?>
<!-- Generator: Adobe Illustrator 22.0.1, SVG Export Plug-In . SVG Version: 6.00 Build 0)  -->
<svg version="1.1" id="Layer_1" xmlns="http://www.w3.org/2000/svg" xmlns:xlink="http://www.w3.org/1999/xlink" x="0px" y="0px"
	 viewBox="0 0 1000 1000" style="enable-background:new 0 0 1000 1000;" xml:space="preserve">
<style type="text/css">
	.st0{fill:#FFFFFF;}
</style>
<title>Artboard 1</title>
<rect id="_Path_" y="0" width="1000" height="1000.1"/>
<polygon id="_Path_2" class="st0" points="99.8,131.4 100.1,131.4 100.1,285.7 134,285.7 134,84.1 106.9,84.1 75.7,120.7 
	75.7,156.1 76,156.1 "/>
<path id="_Path_3" class="st0" d="M154.2,125.7v24.4h30.9v-25.3c0-12.2,6-15.8,13.1-15.8c6.6,0,12.2,2.7,12.2,15.2v16.6
	c0,16.7-1.5,23.2-12.5,34.8l-19,20.2c-18.4,19.6-25.3,32.7-25.3,52.6v37.2h88v-27.7h-55.6v-9.5c0-15.8,5.6-21.7,14.3-30.9l21.7-22.9
	c17.6-18.7,21.4-30.6,21.4-50.9v-19.6c0-28.9-14-42.5-44.3-42.5C169.4,81.7,154.2,97.5,154.2,125.7"/>
<path id="_Path_4" class="st0" d="M778.5,535.7c-40.8-32.2-89.7-35.7-108.8-35.7c-10.1,0-19.4,0.9-26.3,2.5l-2.7,0.6
	c-25.8,6.1-69.1,16.3-119.4,78.8l-1.5,1.8c-0.8,1.1-1.2,2.4-1.3,3.8c0,1.2,0.3,2.3,0.9,3.3l1.1,1.9c8.3,13.9,15.2,26,20.7,36.2
	c1.7,3.3,5.7,4.6,9,2.9c0.7-0.3,1.3-0.8,1.8-1.4c0.3-0.5,0.7-1,1-1.3c43.4-60.1,77.5-68.1,100-73.4l2.8-0.7
	c4.5-0.9,9.2-1.3,13.8-1.2c10.5,0,46.9,1.7,75.3,24.2c25.3,20,38.1,51.8,38.1,94.8c0,71.9-34.8,100-64,110.8
	c-11.4,4.2-23.5,6.3-35.7,6.3c-18.5-0.1-36.8-4.3-53.6-12.2l-2.1-1c-25.1-10.9-62.6-33.6-98-104.8
	c-72.7-146-133.7-159.8-174.1-168.9l-2.1-0.5c-3.1-0.7-11.8-2.3-26-2.3c-23.4,0-68.4,4.6-107,35.4c-26.3,21-57.8,61.8-57.8,137
	c0,45.8,9.4,76,33.6,107.8c4.5,6.2,46.6,60.6,127.5,60.6c12.4,0,24.8-1.3,36.9-3.6c14.8-2.8,37.5-10.1,63-28.8l21.2,19.2
	c2.5,2.1,6.3,2,8.6-0.4c1-1.1,1.6-2.5,1.5-4L471.7,722v-1.2c0-1.7-0.7-3.3-2-4.4c-1.2-1.1-2.7-1.6-4.3-1.6l0,0L366.8,742l-1.9,0.3
	c-1.2,0.3-2.3,0.9-3.1,1.8c-2.3,2.5-2.1,6.3,0.4,8.6c0,0,0,0,0.1,0.1l20.4,18.5c-10.7,6.6-21.5,11-31.9,13
	c-8.6,1.7-17.4,2.5-26.2,2.6c-55.9,0-83.4-36.7-84.5-38.2l-0.6-0.8c-17-22.3-22.7-41.3-22.7-75.3c0-43.1,12.6-75,37.4-94.8
	c27.7-22.1,63.2-23.8,73.5-23.8c4.7-0.1,9.4,0.3,14,1.2l2.2,0.5c32.3,7.3,76.4,17.3,137.7,140.3c32.3,65,72.9,107.4,123.9,129.8
	c5.9,3,37.6,18.1,78.1,18.1c18.6,0.1,37.1-3.2,54.5-9.7c29.8-11.1,99.1-49.1,99.1-161.4C837.2,597.7,805.3,556.8,778.5,535.7z"/>
<g id="_Group_">
	<path id="_Compound_Path_" class="st0" d="M332.8,127.9v37.5h-13.7V83.6h20c13.9,0,18.9,6.9,18.9,18.3v10.5c0,8.8-3.1,14-11,15.8
		l13.1,37.1h-14.4L332.8,127.9z M332.8,94.9v25.4h4.6c4.7,0,6.8-2.4,6.8-6.8v-12c0-4.5-2-6.6-6.8-6.6L332.8,94.9z"/>
	<path id="_Compound_Path_2" class="st0" d="M365.4,83.6h32.8v11.2h-19v23.4h13.6v11.1h-13.7v24.8h19v11.2h-32.8V83.6z"/>
	<path id="_Compound_Path_3" class="st0" d="M404.7,147.8v-11h12.8V148c0,4.6,2,7.2,6.8,7.2c4.3,0,6.3-2.9,6.3-7.2v-3.1
		c0-4.7-1.9-7.6-6.1-11.6l-8.1-8.1c-7.8-7.7-11.5-12.4-11.5-21.8v-2.8c0-10.1,5.9-18,19.3-18c13.8,0,19.2,6.8,19.2,18.6v6.6h-12.5
		v-7.1c0-4.7-2.2-7-6.5-7c-3.9,0-6.5,2.2-6.5,6.8v1.7c0,4.6,2.5,7.2,6.5,11.1l8.8,8.7c7.5,7.6,11.1,12.2,11.1,21.2v4
		c0,11.2-6,19.2-20,19.2S404.7,158.5,404.7,147.8z"/>
	<path id="_Compound_Path_4" class="st0" d="M451,83.6h20.4c13.9,0,18.9,6.9,18.9,18.3v17.2c0,11.4-5.1,18.4-18.9,18.4h-6.6v27.7
		H451V83.6z M464.7,94.9V127h5.1c4.7,0,6.8-2.3,6.8-6.8v-18.8c0-4.5-2-6.6-6.8-6.6H464.7z"/>
	<path id="_Compound_Path_5" class="st0" d="M497.3,144.3v-39.5c0-12.8,6.3-22.1,20.7-22.1s20.9,9.3,20.9,22.1v39.5
		c0,12.7-6.3,22.1-20.9,22.1S497.3,157,497.3,144.3z M525.1,146.5v-43.9c0-4.9-2.2-8.4-7.1-8.4s-7,3.5-7,8.4v43.9
		c0,4.9,2.2,8.4,7,8.4S525.1,151.4,525.1,146.5L525.1,146.5z"/>
	<path id="_Compound_Path_6" class="st0" d="M558.2,114v51.4h-11.6V83.6h13.5l14.8,46.9V83.6h11.5v81.7h-12.1L558.2,114z"/>
	<path id="_Compound_Path_7" class="st0" d="M593.5,147.8v-11h12.8V148c0,4.6,2,7.2,6.8,7.2c4.3,0,6.3-2.9,6.3-7.2v-3.1
		c0-4.7-1.9-7.6-6.2-11.6l-8.1-8.1c-7.8-7.7-11.5-12.4-11.5-21.8v-2.8c0-10.1,5.9-18,19.3-18c13.7,0,19.2,6.8,19.2,18.6v6.6h-12.5
		v-7.1c0-4.7-2.2-7-6.5-7c-3.9,0-6.5,2.2-6.5,6.8v1.7c0,4.6,2.5,7.2,6.5,11.1l8.8,8.7c7.5,7.6,11.1,12.2,11.1,21.2v4
		c0,11.2-6,19.2-20,19.2S593.5,158.5,593.5,147.8z"/>
	<path id="_Compound_Path_8" class="st0" d="M639.8,83.6h13.8v81.7h-13.8V83.6z"/>
	<path id="_Compound_Path_9" class="st0" d="M661.3,83.6h19.9c13.7,0,18.3,6.4,18.3,18v8.3c0,6.9-2.5,11.2-8.2,13
		c6.9,1.6,10.2,6.1,10.2,13.6v10.9c0,11.6-5.2,18-18.9,18h-21.3V83.6z M675.1,118.1h4.8c4.5,0,6.5-2.3,6.5-6.6v-10
		c0-4.5-2-6.6-6.6-6.6h-4.7V118.1z M675.1,128.6v25.6h6c4.6,0,6.8-2.3,6.8-6.6v-12.3c0-4.3-2-6.6-6.9-6.6L675.1,128.6z"/>
	<path id="_Compound_Path_10" class="st0" d="M708.4,83.6h13.7v70.5h16.4v11.2h-30.1V83.6z"/>
	<path id="_Compound_Path_11" class="st0" d="M744.7,83.6h32.8v11.2h-19v23.4H772v11.1h-13.6v24.8h19v11.2h-32.8V83.6z"/>
</g>
<g id="_Group_2">
	<path id="_Compound_Path_12" class="st0" d="M319.1,264.3v-39.5c0-12.8,6-22.1,20.5-22.1c15.2,0,19.4,8.4,19.4,20.5v9.6h-12.5
		v-10.7c0-5.1-1.7-8-6.6-8s-7,3.5-7,8.4v43.9c0,4.9,2,8.4,7,8.4s6.6-3.1,6.6-8v-15H359V266c0,11.7-4.8,20.4-19.4,20.4
		S319.1,277,319.1,264.3z"/>
	<path id="_Compound_Path_13" class="st0" d="M367.7,264.3v-39.5c0-12.8,6.3-22.1,20.7-22.1s20.9,9.3,20.9,22.1v39.5
		c0,12.7-6.3,22.1-20.9,22.1S367.7,277,367.7,264.3z M395.5,266.5v-43.9c0-4.9-2.2-8.4-7.1-8.4s-7,3.5-7,8.4v43.9
		c0,4.9,2.2,8.4,7,8.4S395.5,271.4,395.5,266.5z"/>
	<path id="_Compound_Path_14" class="st0" d="M429.9,234v51.4h-11.6v-81.7h13.5l14.8,46.9v-46.9h11.5v81.7H446L429.9,234z"/>
	<path id="_Compound_Path_15" class="st0" d="M466.4,267.8v-11h12.8V268c0,4.6,2,7.2,6.8,7.2c4.3,0,6.3-2.9,6.3-7.2v-3.1
		c0-4.7-1.9-7.6-6.1-11.6l-8.1-8c-7.8-7.7-11.5-12.4-11.5-21.8v-2.8c0-10.1,5.9-18,19.3-18c13.7,0,19.2,6.8,19.2,18.6v6.6h-12.6
		v-7.1c0-4.7-2.2-7-6.5-7c-3.9,0-6.5,2.2-6.5,6.8v1.7c0,4.6,2.5,7.2,6.5,11.1l8.8,8.7c7.5,7.6,11.1,12.2,11.1,21.2v4
		c0,11.2-6,19.2-20,19.2S466.4,278.5,466.4,267.8z"/>
	<path id="_Compound_Path_16" class="st0" d="M554.2,203.7v61.8c0,12.7-5.4,20.9-19.4,20.9c-14.5,0-20.5-8.2-20.5-20.9v-61.8H528
		v63.2c0,4.8,1.9,8.1,6.8,8.1s6.8-3.2,6.8-8.1v-63.2H554.2z"/>
	<path id="_Compound_Path_17" class="st0" d="M601.1,232.4h-0.4l-9.3,53.1H585l-10.2-53.1h-0.2v53.1h-11.3v-81.7h16l8.9,46.1h0.1
		l8-46.1h17.4v81.7h-12.5V232.4z"/>
	<path id="_Compound_Path_18" class="st0" d="M622.7,203.7H643c13.9,0,18.9,6.9,18.9,18.3v17.2c0,11.4-5.1,18.4-18.9,18.4h-6.6v27.7
		h-13.7V203.7z M636.4,214.9v32.2h5.1c4.7,0,6.8-2.3,6.8-6.8v-18.8c0-4.5-2-6.6-6.8-6.6L636.4,214.9z"/>
	<path id="_Compound_Path_19" class="st0" d="M666.4,203.7H703v11.2h-11.4v70.5h-13.9v-70.5h-11.3V203.7z"/>
	<path id="_Compound_Path_20" class="st0" d="M709.5,203.7h13.7v81.7h-13.7V203.7z"/>
	<path id="_Compound_Path_21" class="st0" d="M731.2,264.3v-39.5c0-12.8,6.3-22.1,20.7-22.1s20.9,9.3,20.9,22.1v39.5
		c0,12.7-6.3,22.1-20.9,22.1S731.2,277,731.2,264.3z M759,266.5v-43.9c0-4.9-2.2-8.4-7.1-8.4s-7,3.5-7,8.4v43.9c0,4.9,2.2,8.4,7,8.4
		S759,271.4,759,266.5z"/>
	<path id="_Compound_Path_22" class="st0" d="M792.3,234v51.4h-11.6v-81.7h13.5l14.8,46.9v-46.9h11.5v81.7h-12L792.3,234z"/>
</g>
<g id="_Group_3">
	<path id="_Compound_Path_23" class="st0" d="M316.9,405.4l15.4-81.7H348l15.6,81.7h-14.1l-2.5-15h-14.6l-2.4,15H316.9z
		 M334.2,379.5h11l-5.4-32.8h-0.1L334.2,379.5z"/>
	<path id="_Compound_Path_24" class="st0" d="M381.2,354.1v51.4h-11.6v-81.7h13.5l14.8,46.9v-46.9h11.5v81.7h-12.1L381.2,354.1z"/>
	<path id="_Compound_Path_25" class="st0" d="M458.7,345.6v37.9c0,12.5-5.2,22-19.9,22h-21.2v-81.7h21.2
		C453.5,323.7,458.7,333,458.7,345.6z M437.1,394.2c5.7,0,7.8-3.4,7.8-8.3v-42.8c0-4.8-2.2-8.2-7.8-8.2h-5.8v59.3L437.1,394.2z"/>
	<path id="_Compound_Path_26" class="st0" d="M479.9,323.7h20.4c13.9,0,18.9,6.9,18.9,18.3v17.2c0,11.5-5.1,18.5-18.9,18.5h-6.6
		v27.7h-13.7V323.7z M493.7,334.9v32.2h5.1c4.7,0,6.8-2.3,6.8-6.8v-18.8c0-4.5-2-6.6-6.8-6.6H493.7z"/>
	<path id="_Compound_Path_27" class="st0" d="M540.4,367.9v37.5h-13.8v-81.7h20c13.9,0,18.9,6.9,18.9,18.3v10.5
		c0,8.8-3.1,14-11,15.8l13.1,37.1h-14.4L540.4,367.9z M540.4,334.9v25.4h4.6c4.7,0,6.8-2.4,6.8-6.8v-12c0-4.5-2-6.6-6.8-6.6
		L540.4,334.9z"/>
	<path id="_Compound_Path_28" class="st0" d="M573.5,384.3v-39.5c0-12.8,6.3-22.1,20.7-22.1s20.9,9.3,20.9,22.1v39.5
		c0,12.7-6.3,22.1-20.9,22.1S573.5,397,573.5,384.3z M601.3,386.5v-43.9c0-4.9-2.2-8.4-7.1-8.4s-7,3.5-7,8.4v43.9
		c0,4.9,2.2,8.4,7,8.4S601.3,391.4,601.3,386.5L601.3,386.5z"/>
	<path id="_Compound_Path_29" class="st0" d="M664.4,345.6v37.9c0,12.5-5.2,22-19.9,22h-21.2v-81.7h21.2
		C659.2,323.7,664.4,333,664.4,345.6z M642.8,394.2c5.7,0,7.8-3.4,7.8-8.3v-42.8c0-4.8-2.2-8.2-7.8-8.2H637v59.3L642.8,394.2z"/>
	<path id="_Compound_Path_30" class="st0" d="M712.5,323.7v61.8c0,12.7-5.4,20.9-19.4,20.9c-14.5,0-20.5-8.2-20.5-20.9v-61.8h13.8
		v63.2c0,4.8,1.9,8.1,6.8,8.1s6.8-3.3,6.8-8.1v-63.2H712.5z"/>
	<path id="_Compound_Path_31" class="st0" d="M720.7,384.3v-39.5c0-12.8,6-22.1,20.5-22.1c15.2,0,19.4,8.4,19.4,20.5v9.6H748v-10.7
		c0-5.1-1.7-8-6.6-8s-7,3.5-7,8.4v43.9c0,4.9,2,8.4,7,8.4s6.6-3.1,6.6-8v-15h12.5V386c0,11.7-4.8,20.4-19.4,20.4
		S720.7,397,720.7,384.3z"/>
	<path id="_Compound_Path_32" class="st0" d="M766.8,323.7h36.5v11.2H792v70.5h-13.8v-70.5h-11.3V323.7z"/>
	<path id="_Compound_Path_33" class="st0" d="M809.9,323.7h13.7v81.7h-13.7V323.7z"/>
	<path id="_Compound_Path_34" class="st0" d="M831.6,384.3v-39.5c0-12.8,6.3-22.1,20.7-22.1s20.9,9.3,20.9,22.1v39.5
		c0,12.7-6.3,22.1-20.9,22.1S831.6,397,831.6,384.3z M859.4,386.5v-43.9c0-4.9-2.2-8.4-7.1-8.4s-7,3.5-7,8.4v43.9
		c0,4.9,2.2,8.4,7,8.4S859.4,391.4,859.4,386.5L859.4,386.5z"/>
	<path id="_Compound_Path_35" class="st0" d="M892.7,354.1v51.4h-11.6v-81.7h13.5l14.8,46.9v-46.9h11.5v81.7h-12.1L892.7,354.1z"/>
</g>
</svg>
