<?xml version="1.0" encoding="utf-8"?>
<!-- Generator: Adobe Illustrator 22.0.1, SVG Export Plug-In . SVG Version: 6.00 Build 0)  -->
<svg version="1.1" id="Layer_1" xmlns="http://www.w3.org/2000/svg" xmlns:xlink="http://www.w3.org/1999/xlink" x="0px" y="0px"
	 viewBox="0 0 1000 1000" style="enable-background:new 0 0 1000 1000;" xml:space="preserve">
<style type="text/css">
	.st0{fill:#FFFFFF;}
</style>
<title>Artboard 1</title>
<rect y="0" width="1000" height="1000"/>
<polygon class="st0" points="130.3,84.1 130.3,285.7 96.4,285.7 96.4,131.4 96.1,131.4 72.3,156.1 72,156.1 72,120.7 103.2,84.1 "/>
<rect x="355.6" y="83.7" class="st0" width="13.7" height="81.8"/>
<polygon class="st0" points="377.4,165.5 391.1,165.5 391.1,129.4 404.9,129.4 404.9,118.3 391.1,118.3 391.1,94.9 409.6,94.9 
	409.6,83.7 377.4,83.7 "/>
<polygon class="st0" points="448.5,94.9 448.5,83.7 415.7,83.7 415.7,165.5 448.5,165.5 448.5,154.3 429.4,154.3 429.4,129.4 
	443.1,129.4 443.1,118.3 429.4,118.3 429.4,94.9 "/>
<path class="st0" d="M514.4,136.6c0-7.5-3.4-12.1-10.2-13.6c5.6-1.8,8.2-6.2,8.2-13v-8.3c0-11.6-4.6-18-18.3-18h-19.9v81.8h21.3
	c13.8,0,18.9-6.4,18.9-18V136.6z M487.9,94.9h4.7c4.6,0,6.6,2.2,6.6,6.6v10c0,4.3-2,6.6-6.5,6.6h-4.8L487.9,94.9z M500.7,147.6
	c0,4.3-2.2,6.6-6.8,6.6h-6v-25.6h5.9c4.8,0,6.9,2.3,6.9,6.6L500.7,147.6z"/>
<polygon class="st0" points="520.3,165.5 553,165.5 553,154.3 534,154.3 534,129.4 547.6,129.4 547.6,118.3 534,118.3 534,94.9 
	553,94.9 553,83.7 520.3,83.7 "/>
<polygon class="st0" points="561.5,83.7 561.5,165.5 591.6,165.5 591.6,154.3 575.2,154.3 575.2,83.7 "/>
<path class="st0" d="M596.9,104.8v39.5c0,12.7,6.3,22.1,20.7,22.1s20.9-9.4,20.9-22.1v-39.5c0-12.8-6.3-22.1-20.9-22.1
	S596.9,92,596.9,104.8 M624.7,102.6v43.9c0,4.9-2.2,8.4-7.1,8.4s-7-3.5-7-8.4v-43.9c0-4.9,2.2-8.4,7-8.4S624.7,97.7,624.7,102.6"/>
<polygon class="st0" points="663.1,135.6 663,135.6 656.6,83.7 643.3,83.7 654.3,165.5 667.2,165.5 674.9,114.9 675,114.9 
	683.1,165.5 696.1,165.5 706.7,83.7 695.2,83.7 688.9,135.6 688.8,135.6 681.2,83.7 670,83.7 "/>
<polygon class="st0" points="328.1,285.4 341,285.4 348.8,234.8 348.9,234.8 357,285.4 370,285.4 380.6,203.6 369,203.6 
	362.7,255.5 362.6,255.5 355,203.6 343.8,203.6 336.9,255.5 336.8,255.5 330.4,203.6 317.2,203.6 "/>
<path class="st0" d="M378.7,285.4h13l2.4-14.9h14.6l2.5,14.9h14.1l-15.5-81.8h-15.7L378.7,285.4z M401.4,226.6h0.1l5.4,32.8H396
	L401.4,226.6z"/>
<polygon class="st0" points="447.9,285.4 447.9,214.8 459.3,214.8 459.3,203.6 422.7,203.6 422.7,214.8 434.1,214.8 434.1,285.4 "/>
<polygon class="st0" points="498.4,214.8 498.4,203.6 465.6,203.6 465.6,285.4 498.4,285.4 498.4,274.2 479.4,274.2 479.4,249.3 
	493,249.3 493,238.2 479.4,238.2 479.4,214.8 "/>
<path class="st0" d="M544.7,232.4v-10.5c0-11.5-5.1-18.3-18.9-18.3h-20v81.8h13.7v-37.5l12.9,37.5h14.5l-13.1-37.1
	C541.5,246.4,544.7,241.2,544.7,232.4 M530.9,233.5c0,4.3-2,6.8-6.7,6.8h-4.6v-25.4h4.6c4.7,0,6.7,2.2,6.7,6.6V233.5z"/>
<path class="st0" d="M233.5,285.7V253h13.7v-26.5h-13.7V84.1h-33.3l-58.6,148.1V253h59.8v32.7L233.5,285.7z M171.3,226.5l30.3-83
	h0.3v83H171.3z"/>
<g>
	<path class="st0" d="M769.6,729.6C757,712.6,675.7,609,561.7,609c-99,0-204.9,89.8-204.9,89.8s-39.8-81.4-121.1-89.2
		c-0.5,0-1-0.1-1.5-0.1h-0.5c-1.7,0.1-3.3,1.8-3.1,3.2c0.2,1.1,0.7,2.1,1.3,3c10.5,17.3,37.3,66.9,37.3,116.3
		c0,49.6-26.9,99.3-37.3,116.6l-0.7,1.1c-0.3,0.5-0.5,1.1-0.5,1.7c0,1.7,1.3,3.1,3,3.2l0.9-0.1c0.3,0,0.6,0,0.9-0.1
		c81.6-7.6,121.5-89.2,121.5-89.2S462.8,855,561.7,855c114,0,195.3-103.6,207.9-120.6c0.3-0.5,0.6-0.9,0.9-1.2
		c0.2-0.4,0.3-0.8,0.3-1.2c0-0.4-0.1-0.8-0.3-1.2C770.2,730.4,769.9,730,769.6,729.6 M625.1,745.1c-18.4,0-33.2-14.9-33.2-33.3
		c0-18.4,14.9-33.2,33.3-33.2c18.3,0,33.2,14.9,33.2,33.2C658.4,730.2,643.5,745.1,625.1,745.1C625.1,745.1,625.1,745.1,625.1,745.1
		"/>
	<path class="st0" d="M233.2,414.2c-0.2-0.1-0.4-0.1-0.6-0.1c-1.8,0-3.3,1.5-3.3,3.3c0,0,0,0,0,0V440c0,0.9,0.3,1.7,0.9,2.4
		c55,47.8,107.1,3,119.2-8.8c0.2-0.4,0.5-0.7,0.9-0.9c0.5-0.4,1.2-0.6,1.8-0.6c0.8,0,1.6,0.3,2.2,0.9c0,0.1,0.1,0.1,0.2,0.1
		c62.1,59.3,127.3,11.3,140.9,0l1.3-1.2c0.4-0.2,0.8-0.3,1.2-0.2c0.4,0,0.9,0.1,1.3,0.2l1.4,1.2c13.6,11.3,78.7,59.3,140.9,0
		c0,0,0.1-0.1,0.1-0.1c0.6-0.6,1.4-0.9,2.2-0.9c0.6,0,1.3,0.2,1.8,0.6c0.4,0.2,0.7,0.6,0.9,0.9c12,11.8,64.1,56.6,119.2,8.8
		c0.6-0.6,1-1.5,1-2.4v-22.7c0-1.8-1.4-3.3-3.2-3.3c0,0,0,0,0,0c-0.2,0-0.5,0.1-0.7,0.1c-0.5,0.3-1,0.6-1.7,0.9
		c-16.9,8.5-69.4,28.6-117-16.4c-0.5-0.4-0.9-0.8-1.4-1.3c-0.4-0.2-0.9-0.3-1.4-0.3c-0.3,0-0.7,0.1-1,0.1c-0.7,0.3-1.2,0.7-1.7,1.3
		c-14.2,10.8-79.4,54.9-137.4,0.8l-0.9-0.8c-0.6-0.6-1.5-1-2.4-1c-0.9,0-1.7,0.4-2.3,1l-0.9,0.8c-58,54.1-123.2,10-137.4-0.8
		c-0.4-0.6-1-1-1.6-1.3c-0.3-0.1-0.7-0.1-1-0.1c-0.5,0-0.9,0.1-1.4,0.3c-0.4,0.5-0.9,0.9-1.4,1.3c-47.6,45.1-100.1,24.9-117,16.4
		C234.3,414.7,233.8,414.5,233.2,414.2"/>
	<path class="st0" d="M349.4,516.1c0.2-0.3,0.5-0.7,0.9-0.9c0.5-0.4,1.2-0.6,1.8-0.6c0.8,0,1.6,0.3,2.2,0.9c0,0.1,0.1,0.1,0.1,0.1
		c62.1,59.2,127.3,11.2,140.9,0l1.3-1.3c0.4-0.2,0.8-0.2,1.2-0.2c0.4,0,0.9,0.1,1.3,0.2l1.3,1.3c13.6,11.2,78.7,59.2,140.9,0
		c0,0,0.1-0.1,0.1-0.1c0.6-0.6,1.4-0.9,2.2-0.9c0.6,0,1.3,0.2,1.8,0.6c0.4,0.2,0.7,0.5,0.9,0.9c12,11.8,64.1,56.7,119.2,8.8
		c0.6-0.6,1-1.4,1-2.3v-22.8c0-1.8-1.4-3.2-3.2-3.2c0,0,0,0,0,0c-0.2,0-0.5,0.1-0.7,0.1l-1.7,0.8c-16.9,8.5-69.4,28.6-117-16.4
		l-1.4-1.3c-0.4-0.2-0.9-0.4-1.4-0.3c-0.3,0-0.7,0.1-1,0.2c-0.7,0.2-1.3,0.6-1.7,1.2c-14.2,10.8-79.4,54.9-137.4,0.8l-0.9-0.9
		c-0.6-0.6-1.5-0.9-2.4-0.9c-0.8,0-1.7,0.3-2.3,0.9l-0.9,0.9c-58,54.1-123.2,10-137.4-0.8c-0.4-0.6-0.9-1-1.6-1.2
		c-0.3-0.2-0.7-0.2-1-0.2c-0.5,0-0.9,0.1-1.4,0.3c-0.5,0.5-0.9,0.9-1.4,1.3c-47.6,45-100.1,24.9-117,16.4l-1.7-0.8
		c-0.2-0.1-0.4-0.1-0.6-0.1c-1.8,0-3.3,1.4-3.3,3.2c0,0,0,0,0,0v22.8c0,0.9,0.3,1.7,0.9,2.3c55,47.8,107.1,3,119.2-8.8"/>
</g>
<polygon class="st0" points="319.1,83.7 319.1,165.5 349.2,165.5 349.2,154.3 332.9,154.3 332.9,83.7 "/>
</svg>
