<?xml version="1.0" encoding="utf-8"?>
<!-- Generator: Adobe Illustrator 22.0.1, SVG Export Plug-In . SVG Version: 6.00 Build 0)  -->
<svg version="1.1" id="Layer_1" xmlns="http://www.w3.org/2000/svg" xmlns:xlink="http://www.w3.org/1999/xlink" x="0px" y="0px"
	 viewBox="0 0 1000 1000" style="enable-background:new 0 0 1000 1000;" xml:space="preserve">
<style type="text/css">
	.st0{fill:#FFFFFF;}
</style>
<title>Artboard 1</title>
<rect y="0" width="1000" height="1000"/>
<path class="st0" d="M302.8,166.4c7.5,0,11.4-3.7,13.1-9.9v8.9h9.9v-43.7h-19.5v10.8h6.5v14.5c0,5.3-2.3,7.8-6.8,7.8
	c-4.7,0-6.8-3.5-6.8-8.4v-43.9c0-4.9,2.2-8.4,7.1-8.4s6.9,2.9,6.9,8v8.3h12.5v-7.2c0-12.1-4.5-20.5-19.6-20.5
	c-14.5,0-20.6,9.3-20.6,22.1v39.6C285.5,157,291,166.4,302.8,166.4"/>
<polygon class="st0" points="367.6,154.2 348.6,154.2 348.6,129.4 362.2,129.4 362.2,118.3 348.6,118.3 348.6,94.9 367.6,94.9 
	367.6,83.7 334.9,83.7 334.9,165.4 367.6,165.4 "/>
<polygon class="st0" points="387.8,114.1 403.9,165.4 416,165.4 416,83.7 404.5,83.7 404.5,130.6 389.7,83.7 376.2,83.7 
	376.2,165.4 387.8,165.4 "/>
<path class="st0" d="M466.1,143.5v-37.9c0-12.7-5.2-22-19.9-22H425v81.8h21.2C460.9,165.4,466.1,156,466.1,143.5 M438.7,154.1V94.9
	h5.8c5.7,0,7.8,3.4,7.8,8.2v42.8c0,4.9-2.2,8.3-7.8,8.3L438.7,154.1z"/>
<polygon class="st0" points="508,154.2 488.9,154.2 488.9,129.4 502.6,129.4 502.6,118.3 488.9,118.3 488.9,94.9 508,94.9 508,83.7 
	475.2,83.7 475.2,165.4 508,165.4 "/>
<path class="st0" d="M530.2,127.9l12.8,37.5h14.5l-13.1-37.1c7.8-1.8,11-7,11-15.8V102c0-11.5-5.1-18.3-18.9-18.3h-20v81.8h13.8
	L530.2,127.9z M530.2,94.9h4.6c4.7,0,6.8,2.2,6.8,6.6v12c0,4.4-2,6.8-6.8,6.8h-4.6V94.9z"/>
<polygon class="st0" points="318.3,274.1 299.3,274.1 299.3,249.3 312.9,249.3 312.9,238.2 299.3,238.2 299.3,214.8 318.3,214.8 
	318.3,203.6 285.5,203.6 285.5,285.3 318.3,285.3 "/>
<path class="st0" d="M342.5,285.3v5.6l25.9,4.8v-10.2l-10.1-1.9c7-3.4,10.1-10.4,10.1-19.3v-39.6c0-12.8-6.3-22.1-20.9-22.1
	s-20.7,9.3-20.7,22.1v39.6C326.8,275.3,331.5,283.4,342.5,285.3 M340.5,222.5c0-4.9,2.2-8.4,7-8.4s7.1,3.5,7.1,8.4v44.6
	c0,4.8-2.2,8.4-7.1,8.4s-7-3.6-7-8.4V222.5z"/>
<path class="st0" d="M377.3,203.6v61.9c0,12.7,6,20.9,20.5,20.9c14,0,19.4-8.2,19.4-20.9v-61.9h-12.6v63.2c0,4.8-1.9,8.1-6.8,8.1
	s-6.8-3.2-6.8-8.1v-63.2H377.3z"/>
<path class="st0" d="M439.4,270.4H454l2.5,15h14.1l-15.5-81.8h-15.7L424,285.3h13L439.4,270.4z M446.6,226.6h0.1l5.4,32.8h-11
	L446.6,226.6z"/>
<polygon class="st0" points="477.4,203.6 477.4,285.3 507.5,285.3 507.5,274.1 491.1,274.1 491.1,203.6 "/>
<rect x="514.8" y="203.6" class="st0" width="13.8" height="81.8"/>
<polygon class="st0" points="561.3,285.3 561.3,214.8 572.6,214.8 572.6,203.6 536.1,203.6 536.1,214.8 547.4,214.8 547.4,285.3 "/>
<polygon class="st0" points="593.1,285.3 606.8,285.3 606.8,254.2 622,203.6 608.9,203.6 600.6,234.5 600.4,234.5 592.1,203.6 
	577.8,203.6 593.1,254.2 "/>
<path class="st0" d="M159.4,147.6c-13.4,0-23.2,4.8-28.6,14h-0.3v-50.3h58.3V83.7H99.7v113.6h30.9v-4.5c0-11.9,5.4-18.4,14.9-18.4
	c10.4,0,14.6,7.1,14.6,18.2v48.8c0,10.7-3.9,18.1-14.3,18.1c-11.6,0-15.8-7.7-15.8-19.6v-25.3H99.1v22.9c0,30.6,12.2,50.3,46.7,50.3
	c34.2,0,48.2-18.1,48.2-46.1v-49.4C193.9,160.4,177.6,147.6,159.4,147.6"/>
<g>
	<path class="st0" d="M728.3,378.4H604.1c-0.9,0-1.6,0.7-1.6,1.6v41.3c0,0.9,0.7,1.6,1.6,1.6h49.5l-55,55
		c-28.6-22.5-63.9-34.8-100.4-34.8c-89.8,0-162.8,73-162.8,162.8c0,82.6,61.9,151,141.8,161.4v47.6h-49c-0.9,0-1.6,0.7-1.6,1.5
		c0,0,0,0,0,0v44.3c0,0.9,0.7,1.6,1.6,1.6c0,0,0,0,0,0h49V909c0,0.9,0.7,1.6,1.6,1.6c0,0,0,0,0,0h44.2c0.9,0,1.6-0.7,1.6-1.6v0
		v-46.8h49c0.9,0,1.6-0.7,1.6-1.6c0,0,0,0,0,0v-44.3c0-0.9-0.7-1.6-1.6-1.6l0,0h-49v-48.4C601.9,753.8,661,686.6,661,605.8
		c0-33.5-10.4-66.2-29.7-93.6l54.2-54.2v46.2c0,0.9,0.7,1.6,1.6,1.6h41.3c0.9,0,1.6-0.7,1.6-1.6V380
		C730,379.1,729.2,378.4,728.3,378.4C728.3,378.4,728.3,378.4,728.3,378.4 M498.2,725.7c-66.2,0-119.8-53.6-119.8-119.8
		c0-66.2,53.6-119.8,119.8-119.8c66.2,0,119.8,53.6,119.8,119.8C618,672,564.4,725.6,498.2,725.7"/>
	<path class="st0" d="M572.7,556.7H427.3c-0.8,0-1.5,0.6-1.6,1.4v35.2c0,0.8,0.7,1.5,1.6,1.4c0,0,0,0,0,0h145.3
		c0.8,0.1,1.6-0.6,1.6-1.4c0,0,0,0,0,0v-35.2C574.2,557.2,573.5,556.6,572.7,556.7"/>
	<path class="st0" d="M572.7,619.5H427.3c-0.8,0-1.5,0.6-1.6,1.5v35.2c0,0.8,0.7,1.5,1.6,1.4c0,0,0,0,0,0h145.3
		c0.8,0.1,1.6-0.6,1.6-1.4c0,0,0,0,0,0v-35.2C574.2,620.1,573.5,619.4,572.7,619.5"/>
</g>
</svg>
